<?xml version="1.0" encoding="utf-8"?>
<!-- Generator: Adobe Illustrator 16.0.0, SVG Export Plug-In . SVG Version: 6.00 Build 0)  -->
<!DOCTYPE svg PUBLIC "-//W3C//DTD SVG 1.1//EN" "http://www.w3.org/Graphics/SVG/1.1/DTD/svg11.dtd">
<svg version="1.1" id="Layer_1" xmlns="http://www.w3.org/2000/svg" xmlns:xlink="http://www.w3.org/1999/xlink" x="0px" y="0px"
	 width="425.2px" height="425.2px" viewBox="0 0 425.2 425.2" enable-background="new 0 0 425.2 425.2" xml:space="preserve">
<g>
	<path fill="#117CDC" d="M103.976,317.509h9.01c1.521-14.116,5.762-27.411,12.207-39.323c-2.701-0.67-5.397-1.332-8.08-2.068
		c-6.184-1.685-9.821-8.078-8.135-14.264c1.692-6.183,8.076-9.84,14.268-8.133c5.459,1.499,10.955,2.815,16.464,4.041
		c10.771-11.998,24.162-21.493,39.303-27.523c10.249-17.236,23.451-27.366,38.232-27.366c14.79,0,27.986,10.13,38.234,27.373
		c15.141,6.03,28.525,15.519,39.287,27.517c5.511-1.226,11.014-2.542,16.479-4.041c6.18-1.713,12.57,1.95,14.258,8.133
		c1.699,6.186-1.945,12.579-8.126,14.264c-2.688,0.736-5.399,1.398-8.101,2.068c6.451,11.918,10.684,25.207,12.205,39.323h9.031
		v-48.738c-21.508-41.081-64.174-69.171-113.268-69.171c-49.086,0-91.76,28.075-113.268,69.139V317.509z"/>
	<path fill="#117CDC" d="M160.617,285.269c-1.688,10.142-2.819,20.907-3.266,32.24h23.208c0.469-10.613,1.59-20.442,3.161-29.471
		C175.995,287.351,168.294,286.424,160.617,285.269z"/>
	<path fill="#117CDC" d="M250.773,288.038c1.566,9.023,2.688,18.857,3.158,29.471h23.208c-0.448-11.333-1.579-22.099-3.267-32.24
		C266.196,286.424,258.496,287.351,250.773,288.038z"/>
	<path fill="#117CDC" d="M189.179,265.197c7.748-24.79,19.097-39.098,28.065-39.098s20.32,14.308,28.068,39.098
		c7.859-0.624,15.7-1.51,23.512-2.648c-3.525-12.41-8.017-23.35-13.346-32.304c-10.248-17.243-23.444-27.373-38.234-27.373
		c-14.781,0-27.983,10.13-38.232,27.366c-5.329,8.961-9.823,19.9-13.349,32.311C173.476,263.694,181.319,264.573,189.179,265.197z"
		/>
	<polygon fill="#117CDC" points="277.14,317.509 253.932,317.509 180.559,317.509 157.351,317.509 112.986,317.509 103.976,317.509 
		103.976,325.876 330.512,325.876 330.512,317.509 321.48,317.509 	"/>
	<path fill="#117CDC" d="M183.72,288.038c11.148,0.993,22.335,1.535,33.521,1.535c11.191,0,22.375-0.542,33.533-1.535
		c7.723-0.688,15.423-1.614,23.1-2.77c11.887-1.792,23.697-4.151,35.402-7.083c2.701-0.67,5.413-1.332,8.101-2.068
		c6.181-1.685,9.825-8.078,8.126-14.264c-1.688-6.183-8.078-9.846-14.258-8.133c-5.465,1.499-10.968,2.815-16.479,4.041
		c-8.601,1.918-17.248,3.514-25.941,4.787c-7.812,1.139-15.652,2.024-23.512,2.648c-18.681,1.469-37.456,1.474-56.134,0
		c-7.859-0.624-15.703-1.503-23.515-2.648c-8.695-1.267-17.354-2.869-25.954-4.787c-5.509-1.226-11.004-2.542-16.464-4.041
		c-6.192-1.707-12.576,1.95-14.268,8.133c-1.686,6.186,1.952,12.579,8.135,14.264c2.683,0.736,5.379,1.398,8.08,2.068
		c11.72,2.932,23.536,5.291,35.424,7.083C168.294,286.424,175.995,287.351,183.72,288.038z"/>
	<path fill="#117CDC" d="M338.037,112.663h-141.24l-35.096,34.212l3.962,23.13h164.179v155.602h-225.24V186.481l-16.369,8.604
		v138.712c0,4.533,3.653,8.19,8.183,8.19h241.62c4.516,0,8.186-3.657,8.186-8.19V120.849
		C346.223,116.328,342.553,112.663,338.037,112.663z M254.768,152.241c-6.035,0-10.906-4.883-10.906-10.92s4.871-10.92,10.906-10.92
		c6.04,0,10.932,4.883,10.932,10.92S260.808,152.241,254.768,152.241z M286.857,152.241c-6.037,0-10.932-4.883-10.932-10.92
		s4.895-10.92,10.932-10.92c6.026,0,10.909,4.883,10.909,10.92S292.884,152.241,286.857,152.241z M318.934,152.241
		c-6.049,0-10.932-4.883-10.932-10.92s4.883-10.92,10.932-10.92c6.026,0,10.909,4.883,10.909,10.92S324.96,152.241,318.934,152.241z
		"/>
	<path fill="#117CDC" d="M53.662,111.775l27.054,26.373c1.929,1.888,2.813,4.594,2.353,7.251l-6.382,37.249l33.457-17.589
		c2.387-1.248,5.236-1.255,7.625,0.007l33.449,17.583l-6.391-37.249c-0.453-2.658,0.421-5.37,2.357-7.251l27.065-26.373
		l-37.396-5.432c-2.665-0.39-4.976-2.063-6.167-4.48l-16.734-33.898l-16.726,33.898c-1.198,2.417-3.498,4.09-6.167,4.48
		L53.662,111.775L53.662,111.775z"/>
</g>
</svg>
