<?xml version="1.0" encoding="utf-8"?>
<!-- Generator: Adobe Illustrator 16.0.0, SVG Export Plug-In . SVG Version: 6.00 Build 0)  -->
<!DOCTYPE svg PUBLIC "-//W3C//DTD SVG 1.1//EN" "http://www.w3.org/Graphics/SVG/1.1/DTD/svg11.dtd">
<svg version="1.1" id="Layer_1" xmlns="http://www.w3.org/2000/svg" xmlns:xlink="http://www.w3.org/1999/xlink" x="0px" y="0px"
	 width="425.2px" height="425.2px" viewBox="0 0 425.2 425.2" enable-background="new 0 0 425.2 425.2" xml:space="preserve">
<g>
	<path fill="#117CDC" d="M205.213,265.986h-12.447c-0.881-4.357-2.082-8.605-3.604-12.709l10.4-5.99
		c2.49-1.443,3.34-4.646,1.898-7.128l-10.412-18.02c-1.434-2.501-4.629-3.366-7.115-1.92l-10.809,6.238
		c-2.891-3.316-6.045-6.397-9.436-9.215l6.014-10.408c1.434-2.51,0.574-5.68-1.922-7.128l-18.02-10.413
		c-2.512-1.435-5.684-0.588-7.121,1.908l-6.215,10.8c-4.139-1.417-8.42-2.51-12.832-3.248v-12.025c0-2.886-2.32-5.225-5.199-5.225
		H99.674v37.884c3.096-0.461,6.242-0.777,9.463-0.777c35.449,0,64.176,28.747,64.176,64.18c0,13.668-4.305,26.303-11.592,36.711
		h41.434c-0.336-1.313-1.16-2.501-2.434-3.243l-10.781-6.227c1.404-4.116,2.49-8.399,3.244-12.793h12.029
		c2.865,0,5.188-2.329,5.188-5.213v-20.803C210.412,268.322,208.078,265.986,205.213,265.986z"/>
	<path fill="#117CDC" d="M334.902,104.312H93.287c-4.527,0-8.184,3.665-8.184,8.19v212.944c0,4.532,3.656,8.189,8.184,8.189h241.615
		c4.521,0,8.189-3.657,8.189-8.189V112.502C343.092,107.977,339.424,104.312,334.902,104.312z M283.725,122.049
		c6.023,0,10.912,4.883,10.912,10.923c0,6.035-4.889,10.923-10.912,10.923c-6.041,0-10.936-4.888-10.936-10.923
		C272.789,126.932,277.684,122.049,283.725,122.049z M251.639,122.049c6.037,0,10.934,4.883,10.934,10.923
		c0,6.035-4.896,10.923-10.934,10.923s-10.914-4.888-10.914-10.923C240.725,126.932,245.602,122.049,251.639,122.049z
		 M326.705,317.256H101.471V161.659h225.234V317.256z M315.803,143.895c-6.049,0-10.93-4.888-10.93-10.923
		c0-6.04,4.881-10.923,10.93-10.923c6.027,0,10.902,4.883,10.902,10.923C326.705,139.007,321.83,143.895,315.803,143.895z"/>
	<g>
		<g>
			<path fill="#117CDC" d="M272.914,189.699c0,2.146-1.734,3.881-3.881,3.881h-16.498c-2.129,0-3.861-1.735-3.861-3.881v-12.622
				c0-2.134,1.732-3.872,3.861-3.872h16.498c2.146,0,3.881,1.738,3.881,3.872V189.699z"/>
			<path fill="#117CDC" d="M236.623,198.406c1.846,1.077,2.471,3.446,1.396,5.309l-8.225,14.273
				c-1.078,1.854-3.453,2.473-5.313,1.421l-10.91-6.315c-1.863-1.066-2.488-3.435-1.414-5.305l8.23-14.266
				c1.068-1.856,3.441-2.494,5.301-1.421L236.623,198.406z"/>
			<path fill="#117CDC" d="M226.01,234.197c1.854-1.078,4.213-0.442,5.301,1.411l8.246,14.289c1.057,1.847,0.422,4.22-1.43,5.293
				l-10.936,6.304c-1.838,1.08-4.23,0.434-5.281-1.421l-8.248-14.28c-1.078-1.844-0.432-4.225,1.41-5.29L226.01,234.197z"/>
			<path fill="#117CDC" d="M251.686,261.285c0-2.148,1.734-3.877,3.893-3.877h16.48c2.152,0,3.881,1.729,3.881,3.852v12.633
				c0,2.144-1.729,3.867-3.881,3.867h-16.506c-2.121,0-3.867-1.724-3.867-3.867V261.285z"/>
			<path fill="#117CDC" d="M288,252.578c-1.855-1.091-2.504-3.437-1.418-5.305l8.236-14.27c1.061-1.863,3.438-2.499,5.303-1.451
				l10.922,6.348c1.846,1.033,2.473,3.425,1.412,5.283l-8.254,14.269c-1.053,1.852-3.434,2.507-5.285,1.431L288,252.578z"/>
			<path fill="#117CDC" d="M298.605,216.773c-1.859,1.078-4.23,0.467-5.303-1.421l-8.234-14.28
				c-1.088-1.845-0.457-4.218,1.408-5.302l10.93-6.286c1.842-1.086,4.219-0.444,5.291,1.403l8.242,14.277
				c1.08,1.87,0.441,4.243-1.41,5.327L298.605,216.773z"/>
		</g>
		<path fill="#117CDC" d="M262.309,187.741c-20.852,0-37.752,16.903-37.752,37.76c0,20.839,16.9,37.729,37.752,37.729
			c20.842,0,37.74-16.891,37.74-37.729C300.049,204.644,283.15,187.741,262.309,187.741z M262.309,243.516
			c-9.959,0-18.039-8.063-18.039-18.015c0-9.966,8.08-18.033,18.039-18.033c9.945,0,18.021,8.067,18.021,18.033
			C280.33,235.453,272.254,243.516,262.309,243.516z"/>
	</g>
</g>
</svg>
