<?xml version="1.0" encoding="utf-8"?>
<!-- Generator: Adobe Illustrator 16.0.0, SVG Export Plug-In . SVG Version: 6.00 Build 0)  -->
<!DOCTYPE svg PUBLIC "-//W3C//DTD SVG 1.1//EN" "http://www.w3.org/Graphics/SVG/1.1/DTD/svg11.dtd">
<svg version="1.1" id="Layer_1" xmlns="http://www.w3.org/2000/svg" xmlns:xlink="http://www.w3.org/1999/xlink" x="0px" y="0px"
	 width="425.2px" height="425.2px" viewBox="0 0 425.2 425.2" enable-background="new 0 0 425.2 425.2" xml:space="preserve">
<g>
	<path fill="#117CDC" d="M223.688,111.536v-4.883c0-4.175-3.387-7.56-7.562-7.56c-4.174,0-7.559,3.385-7.559,7.56v4.883H92.027
		v42.206h4.787v129.442c0,3.284,2.66,5.931,5.938,5.931h62.619l-27.767,48.092c-2.086,3.611-0.847,8.235,2.765,10.323
		c1.193,0.69,2.489,1.014,3.776,1.014c2.61,0,5.152-1.354,6.55-3.78l14.261-24.704h43.612v20.926c0,4.175,3.385,7.559,7.559,7.559
		c4.175,0,7.562-3.384,7.562-7.559V320.06h43.608l14.258,24.704c2.086,3.609,6.709,4.859,10.33,2.767
		c3.607-2.088,4.845-6.712,2.758-10.323l-27.76-48.092h62.602c3.303,0,5.951-2.646,5.951-5.931V153.742h4.787v-42.206H223.688z
		 M208.568,309.978h-37.784l12.041-20.862h25.743V309.978z M223.688,309.978v-20.862h25.739l12.044,20.862H223.688z
		 M320.658,274.833H111.591V153.689h209.067V274.833z"/>
	<path fill="#117CDC" d="M292.236,162.863c-10.848,0-19.676,8.821-19.676,19.664c0,2.895,0.668,5.62,1.785,8.094l-22.626,22.001
		c-2.608-1.267-5.484-2.045-8.577-2.045c-5.07,0-9.656,1.98-13.148,5.151l-18.527-9.827c0.073-0.672,0.21-1.324,0.21-2.012
		c0-10.85-8.828-19.67-19.677-19.67c-10.845,0-19.67,8.82-19.67,19.67c0,2.217,0.455,4.318,1.132,6.303l-21.832,19.133
		c-2.886-1.654-6.186-2.684-9.748-2.684c-10.845,0-19.666,8.823-19.666,19.666c0,10.855,8.821,19.683,19.666,19.683
		c10.848,0,19.675-8.827,19.675-19.683c0-2.407-0.494-4.676-1.291-6.81l21.534-18.873c2.986,1.826,6.457,2.936,10.201,2.936
		c5.343,0,10.171-2.152,13.715-5.614l18.042,9.574c-0.128,0.904-0.271,1.8-0.271,2.738c0,10.85,8.82,19.67,19.656,19.67
		c10.85,0,19.678-8.82,19.678-19.67c0-2.891-0.666-5.614-1.785-8.09l22.643-22.005c2.592,1.267,5.475,2.045,8.559,2.045
		c10.845,0,19.666-8.827,19.666-19.682C311.902,171.685,303.081,162.863,292.236,162.863z M141.881,252.876
		c-3.61,0-6.55-2.947-6.55-6.568c0-3.614,2.94-6.55,6.55-6.55c3.621,0,6.563,2.936,6.563,6.55
		C148.445,249.929,145.502,252.876,141.881,252.876z M192,210.444c-3.607,0-6.557-2.939-6.557-6.555
		c0-3.614,2.949-6.557,6.557-6.557c3.621,0,6.563,2.942,6.563,6.557C198.563,207.505,195.621,210.444,192,210.444z M243.143,236.815
		c-3.607,0-6.543-2.942-6.543-6.557c0-3.621,2.936-6.568,6.543-6.568c3.621,0,6.563,2.947,6.563,6.568
		C249.706,233.873,246.764,236.815,243.143,236.815z M292.236,189.096c-3.621,0-6.56-2.947-6.56-6.568c0-3.614,2.938-6.55,6.56-6.55
		c3.609,0,6.552,2.936,6.552,6.55C298.788,186.148,295.846,189.096,292.236,189.096z"/>
</g>
</svg>
