<?xml version="1.0" encoding="utf-8"?>
<!-- Generator: Adobe Illustrator 16.0.0, SVG Export Plug-In . SVG Version: 6.00 Build 0)  -->
<!DOCTYPE svg PUBLIC "-//W3C//DTD SVG 1.1//EN" "http://www.w3.org/Graphics/SVG/1.1/DTD/svg11.dtd">
<svg version="1.1" id="Layer_1" xmlns="http://www.w3.org/2000/svg" xmlns:xlink="http://www.w3.org/1999/xlink" x="0px" y="0px"
	 width="425.2px" height="425.2px" viewBox="0 0 425.2 425.2" enable-background="new 0 0 425.2 425.2" xml:space="preserve">
<g>
	<path fill="#117CDC" d="M265.019,253.372c-11.496-5.484-23.801-8.923-36.322-10.412c0.428-2.983,0.848-5.955,1.277-8.928
		c2.775-1.781,4.773-4.4,4.957-6.598c0.316-2.758,0.641-5.514,0.961-8.261c0.383,0.388,0.912,0.684,1.49,0.743
		c1.326,0.141,2.512-0.825,2.648-2.146l1.32-12.727c0.143-1.33-0.824-2.516-2.146-2.65c-0.502-0.048-0.977,0.059-1.398,0.287
		c0.277-2.428,0.566-4.828,0.838-7.274c0.236-3.312,1.883-12.176-4.516-17.888c-9.268-9.08-29.629-9.08-38.887,0
		c-6.396,5.712-4.76,14.576-4.529,17.888c0.277,2.446,0.566,4.847,0.838,7.274c-0.396-0.229-0.902-0.335-1.385-0.287
		c-1.32,0.135-2.281,1.32-2.148,2.65l1.316,12.727c0.131,1.321,1.311,2.287,2.643,2.146c0.594-0.06,1.113-0.355,1.492-0.743
		c0.316,2.747,0.643,5.503,0.967,8.261c0.188,2.197,2.193,4.816,4.971,6.598c0.414,2.973,0.838,5.944,1.256,8.928
		c-12.514,1.489-24.813,4.928-36.309,10.412c-3.703,1.959-6.307,6.975-5.91,10.885c0.43,4.482,0.877,8.962,1.338,13.421
		c0.395,3.915,4.004,6.958,7.453,8.483c52.668,23.355,63.414,5.065,94.904,0c3.693-0.713,7.045-4.568,7.443-8.483
		c0.459-4.459,0.904-8.938,1.342-13.421C271.294,260.347,268.722,255.317,265.019,253.372z"/>
	<g>
		<path fill="#117CDC" d="M214.683,308.59c-51.789,0-93.928-42.134-93.928-93.921c0-51.781,42.139-93.909,93.928-93.909
			c51.791,0,93.93,42.128,93.93,93.909C308.612,266.456,266.474,308.59,214.683,308.59L214.683,308.59z M214.683,133.859
			c-44.566,0-80.826,36.249-80.826,80.81c0,44.563,36.26,80.821,80.826,80.821c44.563,0,80.814-36.258,80.814-80.821
			C295.497,170.108,259.245,133.859,214.683,133.859L214.683,133.859z"/>
	</g>
	<path fill="#117CDC" d="M233.112,89.26c0,10.169-8.266,18.438-18.438,18.438c-10.168,0-18.426-8.27-18.426-18.438
		c0-10.174,8.258-18.427,18.426-18.427C224.847,70.833,233.112,79.086,233.112,89.26z"/>
	<g>
		<polygon fill="#117CDC" points="221.233,127.132 208.118,127.132 208.118,89.26 221.233,89.26 221.233,127.132 		"/>
	</g>
	<path fill="#117CDC" d="M196.249,340.095c0-10.176,8.258-18.437,18.426-18.437c10.172,0,18.438,8.261,18.438,18.437
		c0,10.155-8.266,18.422-18.438,18.422C204.507,358.517,196.249,350.25,196.249,340.095z"/>
	<g>
		<polygon fill="#117CDC" points="221.233,340.095 208.118,340.095 208.118,302.213 221.233,302.213 221.233,340.095 		"/>
	</g>
	<path fill="#117CDC" d="M340.097,233.094c-10.17,0-18.422-8.247-18.422-18.425c0-10.171,8.252-18.42,18.422-18.42
		c10.178,0,18.428,8.249,18.428,18.42C358.524,224.847,350.274,233.094,340.097,233.094z"/>
	<g>
		<polygon fill="#117CDC" points="340.097,221.22 302.22,221.22 302.22,208.119 340.097,208.119 340.097,221.22 		"/>
	</g>
	<path fill="#117CDC" d="M89.255,196.249c10.178,0,18.443,8.249,18.443,18.42c0,10.178-8.266,18.425-18.443,18.425
		c-10.154,0-18.42-8.247-18.42-18.425C70.835,204.498,79.101,196.249,89.255,196.249z"/>
	<g>
		<polygon fill="#117CDC" points="127.146,221.22 89.255,221.22 89.255,208.119 127.146,208.119 127.146,221.22 		"/>
	</g>
	<g>
		<polygon fill="#117CDC" points="281.204,157.413 271.933,148.146 298.728,121.354 307.997,130.621 281.204,157.413 		"/>
	</g>
	<g>
		<polygon fill="#117CDC" points="130.634,308 121.366,298.733 148.147,271.945 157.415,281.215 130.634,308 		"/>
	</g>
	<g>
		<polygon fill="#117CDC" points="298.728,307.996 271.933,281.185 281.204,271.927 307.997,298.74 298.728,307.996 		"/>
	</g>
	<g>
		<polygon fill="#117CDC" points="148.147,157.413 121.366,130.621 130.634,121.354 157.415,148.146 148.147,157.413 		"/>
	</g>
	<path fill="#117CDC" d="M316.388,139.032c-7.188,7.203-18.863,7.203-26.055,0c-7.195-7.209-7.209-18.857,0-26.064
		c7.191-7.203,18.867-7.203,26.055,0C323.587,120.175,323.587,131.823,316.388,139.032z"/>
	<path fill="#117CDC" d="M112.97,290.324c7.193-7.183,18.869-7.183,26.061,0c7.195,7.192,7.195,18.869,0,26.062
		c-7.191,7.199-18.867,7.199-26.061,0.012C105.774,309.193,105.774,297.517,112.97,290.324z"/>
	<path fill="#117CDC" d="M290.333,316.386c-7.195-7.192-7.195-18.869,0-26.062c7.191-7.183,18.867-7.183,26.055,0
		c7.199,7.192,7.199,18.869,0,26.073C309.2,323.585,297.524,323.585,290.333,316.386z"/>
	<path fill="#117CDC" d="M139.03,112.968c7.195,7.207,7.195,18.855,0,26.064c-7.191,7.203-18.867,7.203-26.061,0
		c-7.195-7.209-7.195-18.857,0-26.064C120.163,105.765,131.839,105.765,139.03,112.968z"/>
</g>
</svg>
