<?xml version="1.0" encoding="utf-8"?>
<!-- Generator: Adobe Illustrator 16.0.0, SVG Export Plug-In . SVG Version: 6.00 Build 0)  -->
<!DOCTYPE svg PUBLIC "-//W3C//DTD SVG 1.1//EN" "http://www.w3.org/Graphics/SVG/1.1/DTD/svg11.dtd">
<svg version="1.1" id="Layer_1" xmlns="http://www.w3.org/2000/svg" xmlns:xlink="http://www.w3.org/1999/xlink" x="0px" y="0px"
	 width="425.2px" height="425.2px" viewBox="0 0 425.2 425.2" enable-background="new 0 0 425.2 425.2" xml:space="preserve">
<g>
	<g>
		<path fill="#117CDC" d="M182.949,257.736l17.726-49.944c-18.705-14.766-29.305-34.646-29.305-55.389
			c0-43.953,46.794-79.719,104.295-79.719c57.519,0,104.312,35.766,104.312,79.719c0,43.951-46.793,79.707-104.312,79.707
			c-12.503,0-24.702-1.665-36.298-4.953c-5.578,2.061-22.17,10.897-35.709,18.678L182.949,257.736L182.949,257.736z M275.665,90.352
			c-47.768,0-86.636,27.828-86.636,62.052c0,17.028,9.635,32.95,27.13,44.859l5.63,3.831l-6.404,18.044
			c18.771-9.904,22.342-9.904,24.094-9.904h1.328l1.614,0.424c10.524,3.17,21.723,4.798,33.244,4.798
			c47.776,0,86.653-27.842,86.653-62.052C362.318,118.18,323.441,90.352,275.665,90.352L275.665,90.352z"/>
	</g>
	<g>
		<g>
			<polygon fill="#117CDC" points="327.086,135.903 228.617,135.903 228.617,126.67 327.086,126.67 327.086,135.903 			"/>
		</g>
		<g>
			<polygon fill="#117CDC" points="327.086,154.349 228.617,154.349 228.617,145.115 327.086,145.115 327.086,154.349 			"/>
		</g>
		<g>
			<polygon fill="#117CDC" points="327.086,172.839 228.617,172.839 228.617,163.604 327.086,163.604 327.086,172.839 			"/>
		</g>
	</g>
	<path fill="#117CDC" d="M206.193,292.018c-15.004-7.158-31.067-11.652-47.409-13.597c0.549-3.893,1.105-7.773,1.658-11.654
		c3.626-2.32,6.24-5.741,6.473-8.606c0.419-3.607,0.845-7.206,1.257-10.791c0.503,0.52,1.193,0.897,1.947,0.969
		c1.733,0.187,3.277-1.073,3.455-2.795l1.729-16.616c0.18-1.733-1.082-3.279-2.801-3.457c-0.656-0.068-1.278,0.07-1.829,0.38
		c0.364-3.175,0.743-6.313,1.098-9.506c0.305-4.316,2.451-15.883-5.896-23.352c-12.1-11.85-38.678-11.85-50.763,0
		c-8.349,7.469-6.208,19.035-5.912,23.352c0.364,3.193,0.742,6.331,1.095,9.506c-0.519-0.31-1.177-0.448-1.811-0.38
		c-1.722,0.178-2.977,1.724-2.801,3.457l1.717,16.616c0.171,1.722,1.708,2.981,3.444,2.795c0.779-0.071,1.455-0.449,1.949-0.969
		c0.415,3.585,0.838,7.184,1.262,10.791c0.25,2.865,2.867,6.286,6.486,8.606c0.544,3.881,1.098,7.762,1.64,11.654
		c-16.332,1.944-32.381,6.438-47.394,13.597c-4.835,2.546-8.227,9.103-7.711,14.197c0.56,5.86,1.143,11.711,1.749,17.525
		c0.515,5.104,4.896,10.15,9.729,11.073c41.082,6.616,82.78,6.616,123.877,0c4.823-0.923,9.2-5.97,9.725-11.073
		c0.602-5.814,1.171-11.665,1.745-17.525C214.387,301.12,211.027,294.555,206.193,292.018z"/>
</g>
</svg>
