<?xml version="1.0" encoding="utf-8"?>
<!-- Generator: Adobe Illustrator 16.0.0, SVG Export Plug-In . SVG Version: 6.00 Build 0)  -->
<!DOCTYPE svg PUBLIC "-//W3C//DTD SVG 1.1//EN" "http://www.w3.org/Graphics/SVG/1.1/DTD/svg11.dtd">
<svg version="1.1" id="Layer_1" xmlns="http://www.w3.org/2000/svg" xmlns:xlink="http://www.w3.org/1999/xlink" x="0px" y="0px"
	 width="425.2px" height="425.2px" viewBox="0 0 425.2 425.2" enable-background="new 0 0 425.2 425.2" xml:space="preserve">
<g>
	<g>
		<g>
			<path fill="#117CDC" d="M214.244,351.998c-77.137,0-139.875-62.742-139.875-139.867h34.695
				c0,57.992,47.182,105.179,105.18,105.179c45.316,0,85.414-28.869,99.764-71.836l32.916,11
				C327.816,313.606,274.502,351.998,214.244,351.998L214.244,351.998z"/>
		</g>
		<polygon fill="#117CDC" points="131.494,219.608 91.727,179.832 51.951,219.608 		"/>
	</g>
	<g>
		<g>
			<path fill="#117CDC" d="M354.471,212.261h-34.695c0-57.986-47.172-105.167-105.156-105.167c-45.318,0-85.412,28.869-99.777,71.83
				l-32.9-10.994c19.102-57.14,72.418-95.531,132.678-95.531C291.73,72.398,354.471,135.141,354.471,212.261L354.471,212.261z"/>
		</g>
		<polygon fill="#117CDC" points="297.357,204.82 337.135,244.571 376.898,204.82 		"/>
	</g>
	<g>
		<g>
			<path fill="#117CDC" d="M227.348,172.07c0,2.549-2.057,4.601-4.602,4.601h-19.59c-2.529,0-4.586-2.052-4.586-4.601v-14.988
				c0-2.534,2.057-4.598,4.586-4.598h19.59c2.545,0,4.602,2.063,4.602,4.598V172.07z"/>
			<path fill="#117CDC" d="M184.262,182.403c2.189,1.284,2.936,4.093,1.662,6.309l-9.771,16.938
				c-1.281,2.202-4.092,2.942-6.303,1.694l-12.955-7.5c-2.211-1.268-2.951-4.081-1.682-6.299l9.777-16.934
				c1.268-2.204,4.086-2.967,6.293-1.694L184.262,182.403z"/>
			<path fill="#117CDC" d="M171.66,224.896c2.203-1.28,5.002-0.526,6.295,1.681l9.795,16.958c1.25,2.193,0.494,5.011-1.703,6.286
				l-12.979,7.488c-2.188,1.273-5.027,0.508-6.273-1.688l-9.793-16.958c-1.281-2.193-0.508-5.013,1.674-6.286L171.66,224.896z"/>
			<path fill="#117CDC" d="M202.15,257.055c0-2.547,2.057-4.605,4.613-4.605h19.57c2.557,0,4.605,2.059,4.605,4.578v14.999
				c0,2.547-2.049,4.592-4.605,4.592h-19.59c-2.525,0-4.594-2.045-4.594-4.592V257.055z"/>
			<path fill="#117CDC" d="M245.264,246.719c-2.205-1.298-2.98-4.081-1.688-6.297l9.781-16.949c1.258-2.202,4.08-2.958,6.293-1.719
				l12.965,7.533c2.193,1.232,2.938,4.07,1.682,6.274l-9.807,16.947c-1.242,2.193-4.074,2.972-6.268,1.699L245.264,246.719z"/>
			<path fill="#117CDC" d="M257.852,204.205c-2.205,1.287-5.023,0.561-6.295-1.685l-9.781-16.947
				c-1.285-2.192-0.539-5.01,1.678-6.299l12.977-7.464c2.184-1.284,5.008-0.523,6.281,1.663l9.787,16.958
				c1.279,2.221,0.525,5.035-1.676,6.322L257.852,204.205z"/>
		</g>
		<path fill="#117CDC" d="M214.754,169.743c-24.752,0-44.816,20.064-44.816,44.829c0,24.74,20.064,44.794,44.816,44.794
			c24.748,0,44.813-20.054,44.813-44.794C259.566,189.808,239.502,169.743,214.754,169.743z M214.754,235.963
			c-11.82,0-21.416-9.574-21.416-21.391c0-11.829,9.596-21.41,21.416-21.41c11.811,0,21.398,9.581,21.398,21.41
			C236.152,226.389,226.564,235.963,214.754,235.963z"/>
	</g>
</g>
</svg>
