<?xml version="1.0" encoding="utf-8"?>
<!-- Generator: Adobe Illustrator 16.0.0, SVG Export Plug-In . SVG Version: 6.00 Build 0)  -->
<!DOCTYPE svg PUBLIC "-//W3C//DTD SVG 1.1//EN" "http://www.w3.org/Graphics/SVG/1.1/DTD/svg11.dtd">
<svg version="1.1" xmlns="http://www.w3.org/2000/svg" xmlns:xlink="http://www.w3.org/1999/xlink" x="0px" y="0px" width="200px"
	 height="200px" viewBox="0 0 200 200" enable-background="new 0 0 200 200" xml:space="preserve">
<g id="Fast" display="none">
	<g display="inline">
		<path fill-rule="evenodd" clip-rule="evenodd" fill="#EF4023" stroke="#EF4023" stroke-width="0.8899" stroke-miterlimit="10" d="
			M3.25,67.213c0.24-2.193,0.393-4.4,0.732-6.579c3.31-21.277,14.49-37.158,33.363-47.336c24.987-13.475,55.82-8.235,75.526,12.513
			c2.135,2.247,3.996,4.758,5.925,7.194c0.291,0.368,0.428,1.028,0.342,1.497c-0.358,1.915-0.83,3.808-1.292,5.847
			c-2.049-2.947-3.983-5.728-5.822-8.371c-4.568,2.005-8.919,3.914-13.402,5.881c0.318,1.065,0.693,2.269,1.035,3.482
			c2.114,7.493,3.312,15.131,3.645,22.909c0.04,0.917,0.226,1.827,0.324,2.743c0.02,0.185,0.012,0.425-0.089,0.561
			c-1.603,2.178-3.225,4.344-5.085,6.406c0-0.652,0-1.303,0-2.022c-9.718,0-19.337,0-29.071,0c0,8.106,0,16.21,0,24.371
			c2.37,0.166,4.723,0.328,7.467,0.518c-1.948,1.604-3.53,3.024-5.251,4.248c-0.532,0.377-1.446,0.218-2.347,0.323
			c0.548,1.625-0.751,2.19-1.76,2.932c-0.948,0.695-1.91,1.37-3.086,2.211c0-1.894,0-3.525,0-5.277
			c-7.823,0.209-15.387,1.143-22.954,3.125c1.635,4.261,3.798,8.135,6.438,11.948c-1.479,0.646-2.868,1.252-4.6,2.01
			c-2.235-4.153-4.443-8.254-6.812-12.657c-3.588,1.502-7.369,3.084-11.396,4.771c3.863,4.028,8.096,7.047,12.907,9.927
			c-2.332,0.531-4.332,1.017-6.349,1.415c-0.343,0.068-0.817-0.165-1.136-0.392C16.192,111.201,7.362,97.492,4.281,80.158
			c-0.504-2.838-0.695-5.73-1.03-8.598C3.25,70.111,3.25,68.661,3.25,67.213z M64.327,71.934c-9.761,0-19.375,0-29.145,0
			c0.198,9.532,1.599,18.768,4.57,27.902c8.089-2.174,16.249-3.234,24.575-3.485C64.327,88.176,64.327,80.098,64.327,71.934z
			 M69.36,42.684c0,8.069,0,16.143,0,24.207c9.748,0,19.403,0,29.138,0c-0.206-9.545-1.604-18.787-4.511-27.665
			c-4.167,0.78-8.158,1.677-12.195,2.242C77.712,42.041,73.584,42.284,69.36,42.684z M39.822,39.058
			c-2.579,6.545-5.328,23.901-4.444,27.831c9.647,0,19.292,0,28.914,0c0-8.168,0-16.239,0-24.393
			C55.96,42.309,47.846,41.2,39.822,39.058z M8.337,71.93c0.723,13.295,5.194,24.937,13.441,34.926
			c4.53-1.986,8.881-3.894,13.318-5.839c-3.099-9.372-4.559-19.133-4.833-29.086C22.889,71.93,15.7,71.93,8.337,71.93z
			 M21.874,32.065C14.958,38.577,7.048,59.12,8.537,66.889c7.221,0,14.44,0,21.748,0c0.244-10.003,1.753-19.718,4.809-29.027
			C30.631,35.905,26.282,33.999,21.874,32.065z M92.265,34.502c-1.891-4.64-4.128-8.917-7.085-12.794
			c-3.04-3.985-6.591-7.376-11.291-9.336c-1.419-0.592-2.945-0.936-4.52-1.422c0,9.069,0,17.817,0,26.649
			C77.159,37.46,84.718,36.458,92.265,34.502z M64.338,10.996c-1.357,0.382-2.64,0.644-3.848,1.1
			c-4.511,1.703-8.019,4.751-11.035,8.423c-3.426,4.171-5.952,8.857-8.021,13.981c7.592,1.958,15.162,2.97,22.904,3.09
			C64.338,28.685,64.338,19.967,64.338,10.996z M84.794,13.65c2.226,2.97,4.71,5.902,6.752,9.116
			c2.062,3.248,3.684,6.776,5.644,10.453c3.647-1.536,7.447-3.134,11.442-4.814C101.596,21.362,93.674,16.514,84.794,13.65z
			 M36.742,33.315c3.025-7.377,6.844-13.935,12.482-19.565c-6.125,0.871-20.645,9.812-23.975,14.756
			C29.085,30.111,32.869,31.694,36.742,33.315z"/>
		<path fill-rule="evenodd" clip-rule="evenodd" fill="#EF4023" stroke="#EF4023" stroke-width="0.8899" stroke-miterlimit="10" d="
			M62.846,132.947c-2.35-0.343-4.704-0.651-7.045-1.039c-1.448-0.24-2.874-0.601-4.548-0.958c2.942-1.476,5.592-2.826,8.269-4.121
			c0.319-0.155,0.806-0.085,1.181,0.016c1.184,0.312,2.352,0.687,3.502,1.031c0.082-0.169,0.122-0.211,0.116-0.245
			c-0.675-3.19,1.175-4.791,3.735-5.957c0.34-0.156,0.646-0.39,1.14-0.694c0,2.32,0,4.5,0,7.034c1.816-0.586,3.445-0.994,4.978-1.63
			c3.28-1.362,5.992-3.558,8.403-6.132c4.284-4.572,7.241-9.956,9.654-15.786c-0.43-0.158-0.808-0.299-0.987-0.366
			c3.016-3.044,6.077-6.135,9.128-9.217c-0.561,1.978-1.151,4.062-1.786,6.306c0.401,0.167,0.817,0.327,1.225,0.507
			c3.657,1.608,7.328,3.186,10.956,4.858c0.761,0.351,1.155,0.334,1.682-0.33c7.134-9.011,11.394-19.194,12.584-30.64
			c0.123-1.178,0.195-2.359,0.301-3.672c-2.347,0-4.546,0-7.03,0c1.076-1.704,1.995-3.208,2.982-4.668
			c0.137-0.203,0.604-0.242,0.923-0.252c0.971-0.032,1.945-0.012,3.148-0.012c-0.166-1.742-0.336-3.372-0.466-5.005
			c-0.035-0.446-0.065-0.959,0.114-1.344c1.028-2.192,2.119-4.354,3.37-6.896c0.357,1.645,0.689,2.963,0.929,4.3
			c6.082,33.965-15.552,66.236-49.331,73.528c-2.655,0.573-5.388,0.781-8.083,1.166c-0.374,0.053-0.742,0.145-1.114,0.219
			C68.132,132.947,65.489,132.947,62.846,132.947z M108.655,110.46c-4.093-1.707-7.873-3.282-11.714-4.883
			c-3.088,7.446-6.897,14.063-12.41,19.618C93.703,122.36,101.603,117.505,108.655,110.46z"/>
		<path fill-rule="evenodd" clip-rule="evenodd" fill="#EF4023" d="M5.628,99.991c1.164,2.01,2.332,3.977,3.432,5.981
			c0.182,0.331,0.063,0.827,0.081,1.249c0.114,2.756-0.105,5.578,0.406,8.259c1.3,6.833,5.989,10.82,12.957,11.6
			c6.745,0.758,13.137-0.732,19.391-2.98c11.129-4.004,21.09-10.116,30.404-17.304c16.104-12.431,29.833-27.055,40.502-44.439
			c4.763-7.761,8.691-15.914,10.778-24.841c1.164-4.979,1.726-10.003,0.377-15.044c-0.364-1.364-0.978-2.662-1.479-3.992
			c-0.116,0.018-0.232,0.035-0.347,0.051c-0.663,2.445-1.324,4.888-2.066,7.628c-3.405-8.105-6.693-15.929-10.149-24.16
			c8.197,3.438,16.042,6.729,24.184,10.143c-2.998,0.803-5.695,1.527-8.471,2.27c0.053,0.185,0.059,0.354,0.139,0.471
			c3.427,5.052,4.196,10.708,3.698,16.617c-0.84,9.956-4.546,18.989-9.217,27.661c-8.579,15.928-20.071,29.565-33.339,41.752
			c-10.53,9.674-21.982,18.052-34.925,24.258c-6.511,3.123-13.25,5.603-20.442,6.624c-5.074,0.721-10.122,0.719-14.999-1.136
			c-6.829-2.594-10.628-7.71-11.95-14.754c-0.984-5.241-0.38-10.437,0.794-15.584C5.409,100.212,5.528,100.123,5.628,99.991z"/>
	</g>
</g>
<g id="Protection" display="none">
	<path display="inline" fill-rule="evenodd" clip-rule="evenodd" fill="#EF4023" d="M136.778,88.853
		c-0.296-0.502-0.592-1.005-0.889-1.508c-4.472-7.578-11.122-11.7-19.901-11.584c-9.026,0.118-15.781,4.417-20.008,12.494
		c-0.051,0.099-0.106,0.193-0.152,0.293c-0.676,1.465-1.562,2.852-3.338,2.816c-1.749-0.035-2.604-1.427-3.328-2.87
		c-3.305-6.58-8.516-10.796-15.751-12.294c-9.614-1.989-19.5,2.91-23.963,11.77c-0.812,1.61-1.573,3.409-3.66,3.382
		c-1.99-0.025-2.708-1.781-3.537-3.319c-4.279-7.941-11.006-12.201-19.98-12.278c-8.643-0.073-15.222,3.963-19.705,11.368
		c-0.313,0.517-0.599,1.051-0.916,1.566C1.605,88.76,1.456,88.767,1,88.932c0.314-9.376,2.481-18.115,6.381-26.454
		c3.943-8.428,9.436-15.703,16.313-21.961c21.792-19.833,53.947-23.123,79.945-8.006c12.619,7.337,21.863,17.845,27.861,31.142
		c3.587,7.95,5.579,16.302,5.818,25.02C137.139,88.733,136.958,88.792,136.778,88.853z"/>
	<path display="inline" fill-rule="evenodd" clip-rule="evenodd" fill="#EF4023" stroke="#FFFFFF" stroke-miterlimit="10" d="
		M71.855,17.88c-1.959,0-3.717,0.055-5.464-0.047c-0.337-0.02-0.912-0.647-0.916-1.001c-0.06-4.531-0.091-9.065-0.008-13.595
		c0.034-1.86,1.486-3.206,3.148-3.236c1.688-0.03,3.198,1.325,3.22,3.132C71.895,7.935,71.855,12.737,71.855,17.88z"/>
	
		<rect x="65.993" y="3.179" display="inline" fill-rule="evenodd" clip-rule="evenodd" fill="#EF4023" width="5.3" height="14.829"/>
	<g display="inline">
		<path fill-rule="evenodd" clip-rule="evenodd" fill="#EF4023" stroke="#FFFFFF" stroke-miterlimit="10" d="M65.43,80.071
			c2.233,0,4.209,0,6.319,0c0.041,0.529,0.108,1.005,0.108,1.483c0.007,16.984,0.033,33.97-0.003,50.954
			c-0.018,8.732-6.791,15.285-15.485,15.107c-8.442-0.173-15.391-8.288-14.238-16.628c0.209-1.511,1.57-2.71,3.094-2.727
			c1.537-0.016,2.903,1.135,3.101,2.676c0.125,0.985,0.105,1.989,0.252,2.97c0.703,4.67,4.476,7.584,9.325,7.237
			c4.169-0.298,7.501-3.986,7.507-8.452c0.027-16.82,0.016-33.639,0.019-50.458C65.43,81.579,65.43,80.924,65.43,80.071z"/>
		<rect x="61.32" y="77.974" fill-rule="evenodd" clip-rule="evenodd" fill="#FFFFFF" width="14.43" height="2.51"/>
	</g>
</g>
<g id="Blockchain" display="none">
	<g display="inline">
		<g>
			<polygon fill="none" stroke="#EF4023" stroke-width="4.5" stroke-miterlimit="10" points="36.871,56.693 68.731,74.989 
				68.77,111.73 36.946,130.176 5.084,111.879 5.045,75.138 			"/>
			
				<line fill="none" stroke="#EF4023" stroke-width="4.5" stroke-miterlimit="10" x1="68.978" y1="74.846" x2="35.956" y2="93.986"/>
			<line fill="none" stroke="#EF4023" stroke-width="4.5" stroke-miterlimit="10" x1="36.112" y1="93.883" x2="4.879" y2="74.849"/>
			
				<line fill="none" stroke="#EF4023" stroke-width="4.5" stroke-miterlimit="10" x1="36.112" y1="93.883" x2="36.951" y2="130.181"/>
		</g>
		<g>
			<polyline fill="none" stroke="#EF4023" stroke-width="4.5" stroke-miterlimit="10" points="48.92,63.611 48.907,49.717 
				80.731,31.271 112.593,49.566 112.631,86.308 80.807,104.754 69.511,98.278 			"/>
			
				<line fill="none" stroke="#EF4023" stroke-width="4.5" stroke-miterlimit="10" x1="112.652" y1="49.532" x2="79.63" y2="68.672"/>
			<line fill="none" stroke="#EF4023" stroke-width="4.5" stroke-miterlimit="10" x1="79.973" y1="68.46" x2="48.739" y2="49.426"/>
			
				<line fill="none" stroke="#EF4023" stroke-width="4.5" stroke-miterlimit="10" x1="79.973" y1="68.46" x2="80.812" y2="104.759"/>
		</g>
		<g>
			<polyline fill="none" stroke="#EF4023" stroke-width="4.5" stroke-miterlimit="10" points="92.532,38.776 92.533,24.905 
				124.357,6.459 156.219,24.754 156.257,61.496 124.434,79.941 113.131,73.455 			"/>
			
				<line fill="none" stroke="#EF4023" stroke-width="4.5" stroke-miterlimit="10" x1="156.178" y1="24.779" x2="123.511" y2="43.713"/>
			
				<line fill="none" stroke="#EF4023" stroke-width="4.5" stroke-miterlimit="10" x1="123.572" y1="43.601" x2="92.338" y2="24.566"/>
			<line fill="none" stroke="#EF4023" stroke-width="4.5" stroke-miterlimit="10" x1="123.572" y1="43.601" x2="124.41" y2="79.9"/>
		</g>
	</g>
</g>
<g id="Cryptocurrencies2" display="none">
	<g display="inline">
		<path fill-rule="evenodd" clip-rule="evenodd" fill="#EF4023" stroke="#EF4023" stroke-miterlimit="10" d="M72.101,114.5
			c3.002-1.756,4.849-1.505,7.184,0.899c0.508,0.523,1.036,1.03,1.52,1.575c1.884,2.126,1.804,4.969-0.356,6.814
			c-9.309,7.954-18.646,15.874-28.003,23.77c-2.182,1.841-4.966,1.509-6.791-0.675c-0.567-0.679-1.088-1.396-1.627-2.1
			c-1.902-2.483-1.955-4.229-0.129-6.936c-2.308-2.819-4.653-5.664-6.977-8.526c-3.152-3.882-6.347-7.732-9.413-11.681
			c-3.049-3.926-5.137-8.32-5.769-13.308c-0.129-1.013-0.596-1.25-1.538-1.235c-3.126,0.048-6.253,0.042-9.379,0.01
			c-5.115-0.052-8.769-3.686-8.771-8.786C2.035,66.342,2.033,38.36,2.044,10.378C2.046,4.79,5.648,1.18,11.24,1.168
			c11.932-0.024,23.865-0.011,35.797,0c5.592,0.005,9.23,3.572,9.247,9.153c0.034,11.463,0.014,22.928,0.015,34.391
			c0,5.367-0.039,10.735,0.033,16.101c0.012,0.867,0.322,1.857,0.814,2.57c3.608,5.229,7.274,10.421,10.972,15.587
			c2.14,2.99,3.191,6.259,3.061,9.947c-0.246,6.978-0.381,13.959-0.676,20.934C70.426,111.649,70.979,113.079,72.101,114.5z
			 M20.382,82.668c0-2.328,0.044-4.56-0.009-6.789c-0.121-5.002,2.751-8.649,7.595-9.568c4.435-0.842,8.499,1.609,10.13,6.138
			c1.11,3.082,2.165,6.184,3.298,9.258c0.148,0.403,0.605,0.979,0.932,0.988c3.003,0.077,6.008,0.045,9.062,0.045
			c0-20.457,0-40.746,0-61.057c-14.892,0-29.694,0-44.496,0c0,20.4,0,40.648,0,60.985C11.438,82.668,15.897,82.668,20.382,82.668z
			 M56.683,71.037c-0.129,0.034-0.259,0.068-0.388,0.103c0,0.543,0,1.086,0,1.629c0.002,7.087,0.017,14.173,0.002,21.26
			c-0.005,2.757-0.959,3.553-3.648,3.156c-2.936-0.433-5.86-0.98-8.811-1.251c-2.001-0.185-3.03-1.066-3.662-2.955
			c-2.11-6.313-4.35-12.584-6.564-18.863c-0.89-2.524-2.773-3.562-5.234-2.962c-2.091,0.51-3.273,2.102-3.188,4.553
			c0.263,7.602,0.762,15.201,0.824,22.804c0.057,7.073,2.462,13.075,6.953,18.424c4.689,5.585,9.261,11.27,13.875,16.918
			c0.256,0.314,0.425,0.698,0.658,1.089c7.137-5.897,13.95-11.528,20.793-17.184c-0.455-0.812-0.78-1.525-1.223-2.155
			c-1.16-1.651-1.465-3.42-1.371-5.446c0.331-7.129,0.572-14.267,0.651-21.403c0.02-1.756-0.272-3.784-1.163-5.231
			C62.55,79.238,59.544,75.182,56.683,71.037z M51.474,16.677c0-2.039-0.002-4.002,0.001-5.965c0.005-3.385-1.3-4.697-4.721-4.698
			C35.567,6.011,24.379,6.015,13.192,6.018c-0.937,0.001-1.876-0.035-2.809,0.031C8.638,6.171,7.15,7.246,7.009,8.958
			c-0.21,2.557-0.055,5.144-0.055,7.72C21.807,16.677,36.566,16.677,51.474,16.677z M20.943,87.648c-4.852,0-9.414,0-14.088,0
			c0,2.55-0.105,4.941,0.034,7.316c0.104,1.775,1.5,3.246,3.224,3.306c3.628,0.127,7.263,0.039,10.83,0.039
			C20.943,94.657,20.943,91.137,20.943,87.648z M75.289,118.215c-9.399,7.764-18.659,15.415-27.978,23.112
			c0.745,0.91,1.4,1.708,2.144,2.617c9.319-7.95,18.57-15.841,27.897-23.798C76.612,119.455,76.009,118.89,75.289,118.215z
			 M43.348,87.867c0.623,1.176,0.959,2.89,1.818,3.214c1.917,0.722,4.095,0.751,6.192,1.065c0-1.634,0-3.054,0-4.548
			c-2.451,0-4.782-0.004-7.114,0.007C44.056,87.606,43.867,87.711,43.348,87.867z"/>
		<path fill-rule="evenodd" clip-rule="evenodd" fill="#EF4023" d="M31.324,31.928c5.998,1.012,10.015,6.833,5.586,12.642
			c6.185,5.93,1.822,13.39-5.496,14.239c-0.653,2.538-1.359,3.358-2.785,3.234c-1.367-0.119-2.066-1.038-2.327-3.275
			c-1.862,0-3.773,0.127-5.654-0.057c-0.868-0.084-1.942-0.574-2.452-1.24c-0.93-1.215-0.04-3.036,1.482-3.43
			c0.437-0.113,0.905-0.108,1.48-0.17c0-5.247,0-10.444,0-15.641c0-0.46,0-0.92,0-1.42c-0.486-0.051-0.847-0.057-1.194-0.13
			c-1.348-0.284-2.144-1.105-2.079-2.505c0.064-1.408,0.947-2.194,2.318-2.265c1.609-0.083,3.226-0.025,4.839-0.041
			c0.407-0.004,0.814-0.051,1.197-0.077c0.44-2.312,1.168-3.175,2.607-3.153C30.303,28.661,30.993,29.551,31.324,31.928z
			 M26.126,47.398c0,2.285,0,4.376,0,6.568c0.497,0,0.854,0.001,1.21,0c1.196-0.002,2.408,0.117,3.581-0.047
			c0.945-0.132,1.947-0.446,2.741-0.96c1.853-1.201,1.834-3.405-0.015-4.617c-0.712-0.467-1.602-0.83-2.44-0.902
			C29.561,47.299,27.898,47.398,26.126,47.398z M26.09,36.777c0,1.98,0,3.777,0,5.645c1.693,0,3.298,0.127,4.873-0.033
			c1.812-0.184,3.03-1.47,2.999-2.832c-0.03-1.325-1.364-2.611-3.112-2.754C29.313,36.678,27.757,36.777,26.09,36.777z"/>
		<path fill-rule="evenodd" clip-rule="evenodd" fill="#EF4023" d="M29.105,8.962c1.349-0.001,2.7-0.04,4.047,0.009
			c1.514,0.055,2.511,1.058,2.503,2.417c-0.008,1.321-0.918,2.31-2.387,2.344c-2.748,0.063-5.5,0.064-8.248-0.004
			c-1.454-0.036-2.352-1.048-2.34-2.379c0.013-1.316,0.945-2.302,2.378-2.371C26.405,8.914,27.756,8.964,29.105,8.962z"/>
		
			<rect x="37.162" y="119.25" transform="matrix(-0.7766 0.63 -0.63 -0.7766 210.7479 195.5222)" fill-rule="evenodd" clip-rule="evenodd" fill="#FFFFFF" width="67.095" height="31.75"/>
		<polygon fill-rule="evenodd" clip-rule="evenodd" fill="#EF4023" points="45.812,141.102 75.47,117.822 71.702,113.049 
			42.044,136.329 		"/>
	</g>
</g>
<g id="Cryptocurrencies" display="none">
	<g display="inline">
		<g>
			<path fill="#FFFFFF" d="M104.444,61.27c-16.106,0-29.21-13.103-29.21-29.209s13.104-29.209,29.21-29.209
				c16.105,0,29.208,13.103,29.208,29.209S120.549,61.27,104.444,61.27z"/>
			<path fill="#EF4023" d="M104.444,4.702c15.085,0,27.358,12.273,27.358,27.359s-12.273,27.359-27.358,27.359
				c-15.086,0-27.359-12.273-27.359-27.359S89.358,4.702,104.444,4.702 M104.444,1C87.29,1,73.383,14.907,73.383,32.061
				s13.907,31.061,31.061,31.061c17.153,0,31.06-13.907,31.06-31.061S121.597,1,104.444,1L104.444,1z"/>
		</g>
		<g>
			<path fill="#EF4023" d="M118.259,35.618c-0.731-1.365-2.001-2.432-3.811-3.201c2.607-0.82,4.012-2.721,4.216-5.703
				c0.082-1.08-0.057-2.051-0.417-2.915c-0.36-0.864-0.918-1.604-1.677-2.221c-0.757-0.616-1.608-1.132-2.548-1.547
				s-2.038-0.787-3.292-1.113l1.026-6.09l-3.721-0.626l-0.997,5.921c-0.645-0.108-1.63-0.258-2.957-0.448l1.005-5.969l-3.722-0.626
				l-1.025,6.09c-0.534-0.073-1.317-0.197-2.349-0.37l-5.119-0.887l-0.667,3.963l2.682,0.452c1.225,0.206,1.849,0.875,1.875,2.006
				l-1.167,6.936c0.161,0.027,0.288,0.057,0.382,0.088l-0.387-0.064l-1.636,9.715c-0.267,0.799-0.803,1.132-1.609,0.997
				l-2.683-0.452l-1.494,4.297l4.834,0.813c0.306,0.052,0.749,0.131,1.327,0.236c0.579,0.105,1.013,0.182,1.303,0.231l-1.038,6.164
				l3.723,0.626l1.026-6.09c0.673,0.13,1.654,0.304,2.943,0.521l-1.021,6.066l3.721,0.626l1.038-6.162
				c1.332,0.158,2.524,0.235,3.577,0.229c1.053-0.005,2.079-0.118,3.076-0.339c0.999-0.222,1.859-0.562,2.583-1.02
				c0.724-0.458,1.363-1.088,1.921-1.889c0.557-0.801,0.988-1.764,1.294-2.889C119.062,38.77,118.99,36.984,118.259,35.618z
				 M103.421,22.036c0.114,0.02,0.432,0.069,0.958,0.148s0.961,0.146,1.309,0.195c0.349,0.05,0.812,0.15,1.392,0.297
				s1.064,0.295,1.453,0.443c0.39,0.148,0.811,0.356,1.263,0.623s0.801,0.558,1.045,0.872c0.246,0.314,0.435,0.694,0.566,1.14
				c0.132,0.444,0.154,0.933,0.064,1.464c-0.075,0.451-0.217,0.851-0.425,1.196c-0.207,0.347-0.477,0.62-0.809,0.821
				s-0.667,0.369-1.004,0.502c-0.337,0.133-0.753,0.217-1.248,0.25c-0.494,0.033-0.923,0.052-1.289,0.057
				c-0.365,0.004-0.816-0.026-1.351-0.091c-0.536-0.065-0.942-0.118-1.217-0.155c-0.275-0.039-0.65-0.102-1.124-0.189
				c-0.475-0.088-0.751-0.139-0.832-0.153L103.421,22.036L103.421,22.036L103.421,22.036z M110.813,40.206
				c-0.216,0.344-0.467,0.634-0.755,0.867c-0.288,0.233-0.647,0.42-1.077,0.564c-0.429,0.143-0.841,0.248-1.233,0.314
				c-0.392,0.067-0.858,0.104-1.398,0.112c-0.541,0.009-1.01,0-1.413-0.025c-0.401-0.027-0.877-0.074-1.43-0.141
				c-0.551-0.069-0.981-0.129-1.287-0.18s-0.692-0.121-1.158-0.207c-0.466-0.086-0.763-0.141-0.893-0.163l1.376-8.169
				c0.128,0.022,0.512,0.079,1.152,0.169c0.639,0.091,1.16,0.171,1.563,0.239c0.402,0.068,0.954,0.185,1.656,0.354
				c0.7,0.167,1.284,0.34,1.751,0.517c0.467,0.178,0.969,0.416,1.508,0.714c0.538,0.298,0.96,0.621,1.265,0.971
				c0.306,0.35,0.542,0.77,0.707,1.262c0.166,0.492,0.201,1.028,0.103,1.607C111.175,39.462,111.03,39.861,110.813,40.206z"/>
		</g>
	</g>
	<g display="inline">
		<g>
			<path fill="#FFFFFF" d="M32.205,61.27c-16.106,0-29.209-13.103-29.209-29.209S16.098,2.851,32.205,2.851
				c16.106,0,29.209,13.103,29.209,29.209S48.311,61.27,32.205,61.27z"/>
			<path fill="#EF4023" d="M32.205,4.702c15.085,0,27.358,12.273,27.358,27.359S47.29,59.419,32.205,59.419
				S4.846,47.146,4.846,32.061S17.119,4.702,32.205,4.702 M32.205,1C15.051,1,1.144,14.907,1.144,32.061
				s13.907,31.061,31.061,31.061s31.06-13.907,31.06-31.061S49.358,1,32.205,1L32.205,1z"/>
		</g>
		<g>
			<path fill-rule="evenodd" clip-rule="evenodd" fill="#EF4023" d="M19.923,26.543c0.07-0.222,0.129-0.414,0.191-0.604
				c0.506-1.566,1.016-3.131,1.516-4.7C21.686,21.066,21.756,21,21.947,21c8.318,0.005,16.637-0.001,24.955,0.011
				c1.37,0.002,2.471,0.587,3.211,1.767c0.324,0.515,0.452,1.101,0.535,1.698c0.14,0.994-0.125,1.92-0.428,2.852
				c-1.056,3.249-2.108,6.5-3.133,9.758c-0.522,1.661-1.506,2.988-2.814,4.094c-0.866,0.734-1.844,1.286-2.922,1.65
				c-0.575,0.194-1.167,0.291-1.776,0.291c-8.242-0.002-16.483-0.001-24.724-0.001c-0.086,0-0.172,0-0.287,0
				c0.051-0.17,0.089-0.311,0.134-0.451c0.528-1.634,1.059-3.268,1.58-4.904c0.055-0.171,0.136-0.212,0.304-0.211
				c7.362,0.004,14.724,0.003,22.086,0.003c0.049,0,0.1-0.005,0.148,0.001c0.121,0.016,0.172-0.036,0.209-0.151
				c1.04-3.232,2.083-6.464,3.125-9.695c0.106-0.33,0.215-0.658,0.321-0.987c0.017-0.051,0.029-0.103,0.051-0.181
				C34.988,26.543,27.471,26.543,19.923,26.543z"/>
			<path fill-rule="evenodd" clip-rule="evenodd" fill="#EF4023" d="M28.912,29.478c-0.026,0.101-0.041,0.175-0.064,0.246
				c-0.524,1.566-1.051,3.131-1.57,4.698c-0.054,0.165-0.125,0.23-0.31,0.229c-4.34-0.005-8.68-0.004-13.021-0.004
				c-0.027,0-0.055-0.002-0.082,0c-0.145,0.013-0.169-0.048-0.123-0.177c0.179-0.507,0.353-1.015,0.528-1.523
				c0.367-1.073,0.733-2.146,1.101-3.22c0.085-0.249,0.085-0.249,0.34-0.249c4.318,0,8.636,0,12.954,0
				C28.741,29.478,28.815,29.478,28.912,29.478z"/>
		</g>
	</g>
	<g display="inline">
		<path fill="#EF4023" d="M101.765,73.718c1.784,0,3.573,0,5.357,0c0.272,0.074,0.539,0.184,0.813,0.215
			c12.614,1.472,22.937,10.512,25.999,22.81c0.39,1.562,0.639,3.158,0.951,4.739c0,1.784,0,3.572,0,5.356
			c-0.077,0.31-0.186,0.616-0.223,0.928c-1.494,12.233-10.032,22.281-21.861,25.63c-1.856,0.524-3.785,0.811-5.68,1.206
			c-1.784,0-3.573,0-5.357,0c-0.27-0.075-0.538-0.184-0.812-0.215c-12.625-1.481-22.925-10.499-26.002-22.809
			c-0.39-1.562-0.636-3.16-0.95-4.741c0-1.785,0-3.572,0-5.356c0.076-0.31,0.187-0.614,0.225-0.928
			c1.504-12.282,10.054-22.297,21.976-25.659C98.023,74.381,99.909,74.105,101.765,73.718z M122.707,113.143
			c2.382,0,4.57-0.042,6.753,0.023c0.862,0.026,1.196-0.29,1.427-1.083c1.309-4.577,1.599-9.215,0.473-13.834
			c-2.639-10.85-9.354-18.06-20.174-20.752c-10.992-2.736-20.569,0.373-27.917,9.062c-6.326,7.48-7.798,16.193-5.195,25.6
			c0.104,0.378,0.543,0.93,0.839,0.939c2.382,0.078,4.767,0.042,7.293,0.042c0-7.774,0-15.413,0-23.052
			c0.127-0.082,0.257-0.164,0.384-0.246c5.962,5.829,11.802,11.783,17.806,17.755c0.512-0.467,0.999-0.879,1.451-1.333
			c5.156-5.171,10.306-10.352,15.467-15.519c0.33-0.329,0.751-0.563,1.394-1.038C122.707,97.731,122.707,105.347,122.707,113.143z
			 M81.166,118.748c4.53,7.826,14.384,13.992,25.903,12.858c8.559-0.842,19.446-7.734,20.466-12.844c-3.615,0-7.212,0-10.968,0
			c0-4.875,0-9.659,0-14.444c-0.132-0.078-0.266-0.158-0.398-0.238c-3.941,3.994-7.882,7.986-12.007,12.165
			c-4.001-4.033-8.011-8.074-12.144-12.239c0,4.952,0,9.796,0,14.743C88.37,118.748,84.854,118.748,81.166,118.748z"/>
		<g>
			<path fill="#EF4023" d="M104.444,76.801c15.085,0,27.358,12.273,27.358,27.359s-12.273,27.359-27.358,27.359
				c-15.086,0-27.359-12.273-27.359-27.359S89.358,76.801,104.444,76.801 M104.444,73.1c-17.154,0-31.061,13.906-31.061,31.061
				c0,17.154,13.907,31.061,31.061,31.061c17.153,0,31.06-13.907,31.06-31.061C135.503,87.006,121.597,73.1,104.444,73.1
				L104.444,73.1z"/>
		</g>
	</g>
	<g display="inline">
		<g>
			<path fill="#FFFFFF" d="M32.205,133.37c-16.106,0-29.209-13.103-29.209-29.209s13.103-29.209,29.209-29.209
				c16.106,0,29.209,13.103,29.209,29.209S48.311,133.37,32.205,133.37z"/>
			<path fill="#EF4023" d="M32.205,76.801c15.085,0,27.358,12.273,27.358,27.359s-12.273,27.359-27.358,27.359
				S4.846,119.246,4.846,104.16S17.119,76.801,32.205,76.801 M32.205,73.1c-17.154,0-31.061,13.906-31.061,31.061
				c0,17.154,13.907,31.061,31.061,31.061s31.06-13.907,31.06-31.061C63.265,87.006,49.358,73.1,32.205,73.1L32.205,73.1z"/>
		</g>
		<g>
			<path fill-rule="evenodd" clip-rule="evenodd" fill="#EF4023" d="M32.157,81.84c4.4,7.25,8.753,14.422,13.128,21.633
				c-0.187,0.12-0.333,0.223-0.488,0.312c-4.163,2.394-8.327,4.785-12.488,7.182c-0.255,0.147-0.454,0.227-0.754,0.046
				c-4.102-2.461-8.213-4.906-12.322-7.356c-0.063-0.038-0.118-0.087-0.217-0.162C23.382,96.301,27.743,89.114,32.157,81.84z"/>
			<path fill-rule="evenodd" clip-rule="evenodd" fill="#EF4023" d="M45.838,106.555c-4.545,6.312-9.09,12.625-13.681,19
				c-4.558-6.33-9.072-12.599-13.586-18.869c0.023-0.037,0.047-0.074,0.071-0.111c0.208,0.119,0.418,0.235,0.625,0.358
				c4.029,2.403,8.06,4.801,12.081,7.217c0.377,0.226,0.656,0.244,1.047,0.017c4.283-2.482,8.576-4.945,12.867-7.412
				c0.169-0.097,0.344-0.182,0.516-0.272C45.797,106.506,45.818,106.531,45.838,106.555z"/>
		</g>
	</g>
</g>
<g id="Expertise_1_" display="none">
	<g display="inline">
		<path fill-rule="evenodd" clip-rule="evenodd" fill="#EF4023" d="M102.253,134.007c-31.035,0-61.94,0-93.174,0
			c0.369-17.167,5.922-31.513,17.701-41.885c16.104-14.177,33.665-15.797,51.59-4.903C95.515,97.64,102.752,118.246,102.253,134.007
			z"/>
		<g>
			<path fill="#EF4023" stroke="#F2F2F2" stroke-width="0.4635" stroke-miterlimit="10" d="M-8,94.262"/>
			<path fill="#EF4023" d="M53.925,75.2c14.634,0,26.495-11.865,26.495-26.5c0-14.63-11.861-26.492-26.495-26.492
				c-14.633,0-26.497,11.862-26.497,26.492C27.429,63.335,39.292,75.2,53.925,75.2z"/>
		</g>
	</g>
	
		<rect x="23.943" y="14.079" display="inline" fill-rule="evenodd" clip-rule="evenodd" fill="#FFFFFF" width="68.024" height="30.112"/>
	<path display="inline" fill-rule="evenodd" clip-rule="evenodd" fill="#EF4023" d="M25.176,25.531
		c3.861-1.332,7.501-2.591,11.144-3.842c5.908-2.032,11.806-4.091,17.731-6.065c1.962-0.652,2.608-2.281,1.134-4.233
		c-0.662-0.876-1.576-0.678-2.462-0.359c-4.353,1.561-8.709,3.119-13.062,4.683c-6.788,2.44-13.572,4.892-20.365,7.316
		c-0.394,0.141-0.897,0.242-1.274,0.122c-5.654-1.803-11.298-3.644-17.185-5.555c0.583-0.217,0.951-0.369,1.327-0.494
		C19.118,11.44,36.072,5.776,53.034,0.139c0.48-0.161,1.104-0.193,1.577-0.037c17.093,5.68,34.178,11.389,51.262,17.094
		c0.287,0.096,0.562,0.221,1.023,0.404c-3.906,1.308-7.623,2.556-11.344,3.799C82.1,25.891,68.643,30.373,55.199,34.885
		c-0.901,0.301-1.691,0.31-2.594,0c-8.684-2.975-17.383-5.911-26.078-8.86C26.145,25.894,25.766,25.748,25.176,25.531z"/>
	
		<path display="inline" fill-rule="evenodd" clip-rule="evenodd" fill="#EF4023" stroke="#EF4023" stroke-width="0.1992" stroke-miterlimit="10" d="
		M80.37,33.95c0,0.437,0,0.81,0,1.179c0,4.479-0.053,8.959,0.023,13.438c0.034,2.13-0.746,3.808-2.251,5.217
		c-1.92,1.798-4.229,2.937-6.67,3.814c-6.241,2.243-12.712,2.889-19.292,2.725c-5.78-0.144-11.437-0.966-16.84-3.127
		c-2.086-0.834-4.05-1.891-5.694-3.463c-1.466-1.401-2.223-3.052-2.189-5.141c0.073-4.48,0.021-8.959,0.021-13.438
		c0-0.375,0-0.75,0-1.254c1.864,0.616,3.617,1.194,5.368,1.778c6.713,2.24,13.418,4.492,20.142,6.696
		c0.562,0.185,1.29,0.189,1.853,0.005c8.253-2.715,16.493-5.476,24.737-8.224C79.801,34.081,80.034,34.035,80.37,33.95z"/>
	<path display="inline" fill-rule="evenodd" clip-rule="evenodd" fill="#EF4023" d="M22.841,70.681c-4.469,0-8.778,0-13.195,0
		c1.177-4.729,2.332-9.376,3.479-13.988c-3.102-2.224-4.141-4.75-3.209-7.749c0.546-1.764,1.614-3.16,3.284-3.951
		c0.74-0.349,0.869-0.765,0.865-1.495c-0.03-4.881-0.019-9.76-0.01-14.642c0.004-1.429,0.686-2.268,1.906-2.407
		c1.493-0.169,2.48,0.719,2.492,2.323c0.022,3.426,0.009,6.854,0.01,10.28c0.001,1.557,0.02,3.116-0.014,4.672
		c-0.013,0.587,0.138,0.921,0.723,1.18c2.426,1.072,3.636,3.042,3.72,5.639c0.078,2.431-0.75,4.502-2.988,5.751
		c-0.563,0.315-0.447,0.65-0.333,1.111c1.028,4.087,2.041,8.18,3.054,12.272C22.699,69.975,22.755,70.277,22.841,70.681z"/>
</g>
<g id="Diversification" display="none">
	
		<rect x="25.64" y="72.023" display="inline" fill="#EF4023" stroke="#FFFFFF" stroke-miterlimit="10" width="100.975" height="5.459"/>
	
		<rect x="73.397" y="24.265" display="inline" fill="#EF4023" stroke="#FFFFFF" stroke-miterlimit="10" width="5.459" height="100.976"/>
	
		<rect x="25.639" y="72.024" transform="matrix(-0.75 0.6614 -0.6614 -0.75 182.6671 80.4685)" display="inline" fill="#EF4023" stroke="#FFFFFF" stroke-miterlimit="10" width="100.976" height="5.459"/>
	
		<rect x="25.639" y="73.139" transform="matrix(0.7092 0.705 -0.705 0.7092 75.6186 -31.6075)" display="inline" fill="#EF4023" stroke="#FFFFFF" stroke-miterlimit="10" width="100.976" height="5.459"/>
	
		<circle display="inline" fill="none" stroke="#EF4023" stroke-width="5.4593" stroke-miterlimit="10" cx="76.127" cy="74.752" r="22.544"/>
	
		<circle display="inline" fill="none" stroke="#EF4023" stroke-width="5.4593" stroke-miterlimit="10" cx="76.127" cy="14.406" r="11.406"/>
	
		<circle display="inline" fill="#EF4023" stroke="#EF4023" stroke-width="0.9584" stroke-miterlimit="10" cx="76.127" cy="136.511" r="12.086"/>
	
		<path display="inline" fill-rule="evenodd" clip-rule="evenodd" fill="#EF4023" stroke="#EF4023" stroke-width="2.1837" stroke-miterlimit="10" d="
		M126.062,97.297c3.326,12.448,6.62,24.78,9.973,37.336c-12.52-3.352-24.853-6.655-37.304-9.99
		C107.858,115.512,116.897,106.468,126.062,97.297z M106.316,122.528c8.104,2.161,15.898,4.241,24.016,6.407
		c-2.152-8.107-4.228-15.925-6.385-24.048C117.99,110.849,112.268,116.572,106.316,122.528z"/>
	
		<path display="inline" fill-rule="evenodd" clip-rule="evenodd" fill="#EF4023" stroke="#EF4023" stroke-width="0.8233" stroke-miterlimit="10" d="
		M30.029,50.211c-2.185-9.468-4.348-18.847-6.551-28.396c9.349,2.851,18.559,5.657,27.855,8.491
		C44.218,36.954,37.172,43.536,30.029,50.211z M45.562,31.706c-6.052-1.838-11.873-3.607-17.934-5.449
		c1.413,6.167,2.774,12.11,4.191,18.289C36.463,40.206,40.922,36.04,45.562,31.706z"/>
	
		<path display="inline" fill-rule="evenodd" clip-rule="evenodd" fill="#EF4023" stroke="#EF4023" stroke-width="8.737" stroke-miterlimit="10" d="
		M32.525,39.654c-0.699-3.029-1.391-6.031-2.096-9.086c2.991,0.912,5.938,1.81,8.914,2.716
		C37.066,35.413,34.812,37.518,32.525,39.654z M37.497,33.733c-1.937-0.589-3.8-1.154-5.739-1.744
		c0.452,1.973,0.888,3.876,1.341,5.853C34.584,36.453,36.012,35.12,37.497,33.733z"/>
	
		<circle display="inline" fill="none" stroke="#EF4023" stroke-width="5.4593" stroke-miterlimit="10" cx="121.454" cy="34.544" r="10.279"/>
	
		<circle display="inline" fill="none" stroke="#EF4023" stroke-width="5.4593" stroke-miterlimit="10" cx="32.248" cy="114.961" r="10.279"/>
	<g display="inline">
		<path fill="#EF4023" d="M76.125,91.687c-9.337,0-16.934-7.597-16.934-16.934s7.596-16.934,16.934-16.934
			c9.339,0,16.937,7.596,16.937,16.934S85.464,91.687,76.125,91.687z"/>
		<path fill="#FFFFFF" d="M76.125,61.094c7.546,0,13.661,6.115,13.661,13.658c0,7.545-6.115,13.659-13.661,13.659
			c-7.543,0-13.658-6.114-13.658-13.659C62.467,67.209,68.583,61.094,76.125,61.094 M76.125,54.543
			c-11.144,0-20.209,9.066-20.209,20.209s9.066,20.21,20.209,20.21c11.145,0,20.212-9.066,20.212-20.21S87.271,54.543,76.125,54.543
			L76.125,54.543z"/>
	</g>
	
		<rect x="126.615" y="59.153" display="inline" fill="none" stroke="#EF4023" stroke-width="5.4593" stroke-miterlimit="10" width="29.743" height="29.48"/>
	
		<rect x="4" y="63.354" display="inline" fill="none" stroke="#EF4023" stroke-width="5.4593" stroke-miterlimit="10" width="22.847" height="22.929"/>
</g>
<g id="Growth" display="none">
	
		<rect x="1.833" y="128.699" display="inline" fill-rule="evenodd" clip-rule="evenodd" fill="#EF4023" width="151.524" height="5.051"/>
	
		<rect x="1.833" y="10.248" display="inline" fill-rule="evenodd" clip-rule="evenodd" fill="#EF4023" width="4.928" height="119.715"/>
	<path display="inline" fill-rule="evenodd" clip-rule="evenodd" fill="#EF4023" d="M16.524,104.934
		c0.327-0.298,0.669-0.581,0.981-0.894C34.733,86.724,51.96,69.405,69.179,52.081c0.344-0.345,0.609-0.77,0.901-1.147
		c5.333,5.336,10.474,10.479,15.629,15.639c12.925-13.16,25.793-26.262,38.803-39.51c-5.315-5.318-10.914-10.92-16.721-16.732
		c0.625-0.044,0.917-0.082,1.208-0.082c14.608-0.002,29.217-0.002,43.825,0c0.177,0,0.354,0.025,0.532,0.039
		c0,15.28,0,30.559,0,45.839c-4.078-4.074-8.16-8.145-12.235-12.224c-1.51-1.512-3.006-3.039-4.728-4.779
		c-16.839,17.159-33.592,34.229-50.273,51.228c-5.418-5.403-10.566-10.537-15.896-15.854
		c-13.962,14.247-27.821,28.388-41.767,42.618c-2.4-2.43-4.484-4.563-6.596-6.671c-1.764-1.763-3.558-3.495-5.339-5.241
		C16.524,105.114,16.524,105.022,16.524,104.934z"/>
</g>
<g id="Flexibility">
	<circle fill="none" stroke="#EF4023" stroke-width="6" stroke-miterlimit="10" cx="113.266" cy="111.581" r="19.166"/>
	<circle fill="none" stroke="#EF4023" stroke-width="5" stroke-miterlimit="10" cx="23.537" cy="38.666" r="16.137"/>
	<circle fill="none" stroke="#EF4023" stroke-width="6" stroke-miterlimit="10" cx="21.801" cy="89.509" r="17.874"/>
	<circle fill="none" stroke="#EF4023" stroke-width="5" stroke-miterlimit="10" cx="59.852" cy="122.207" r="14.823"/>
	<circle fill="none" stroke="#EF4023" stroke-width="5" stroke-miterlimit="10" cx="128.513" cy="57.876" r="15.247"/>
	<circle fill="none" stroke="#EF4023" stroke-width="6" stroke-miterlimit="10" cx="80.145" cy="24.63" r="21.51"/>
	<line fill="none" stroke="#EF4023" stroke-width="4" stroke-miterlimit="10" x1="35.689" y1="49.278" x2="98.468" y2="99.401"/>
	<line fill="none" stroke="#EF4023" stroke-width="4" stroke-miterlimit="10" x1="114.149" y1="62.995" x2="40.096" y2="84.065"/>
	<line fill="none" stroke="#EF4023" stroke-width="4" stroke-miterlimit="10" x1="21.8" y1="54.803" x2="21.8" y2="71.636"/>
	<line fill="none" stroke="#EF4023" stroke-width="4" stroke-miterlimit="10" x1="33.173" y1="104.05" x2="47.019" y2="114.791"/>
	<line fill="none" stroke="#EF4023" stroke-width="4" stroke-miterlimit="10" x1="74.675" y1="119.937" x2="94.1" y2="117.333"/>
	<line fill="none" stroke="#EF4023" stroke-width="4" stroke-miterlimit="10" x1="118.98" y1="94.293" x2="124.11" y2="73.837"/>
	<line fill="none" stroke="#EF4023" stroke-width="4" stroke-miterlimit="10" x1="117.331" y1="47.741" x2="100.89" y2="35.518"/>
	<line fill="none" stroke="#EF4023" stroke-width="4" stroke-miterlimit="10" x1="58.634" y1="29.04" x2="40.096" y2="34.348"/>
	<line fill="none" stroke="#EF4023" stroke-width="4" stroke-miterlimit="10" x1="86.306" y1="42.63" x2="103.81" y2="92.416"/>
	<circle fill="#EF4023" cx="113.266" cy="111.582" r="9.457"/>
	<circle fill="#EF4023" cx="80.145" cy="24.631" r="10.759"/>
	<circle fill="#EF4023" cx="21.801" cy="89.51" r="7.877"/>
</g>
<g id="Flexibilty" display="none">
	<g display="inline">
		<circle fill="none" stroke="#EF4023" stroke-width="4.7119" stroke-miterlimit="10" cx="83.501" cy="69.261" r="20.647"/>
		<circle fill="none" stroke="#EF4023" stroke-width="4.7119" stroke-miterlimit="10" cx="17.24" cy="41.076" r="13.24"/>
		<circle fill="#EF4023" stroke="#EF4023" stroke-width="0.7559" stroke-miterlimit="10" cx="71.695" cy="12.334" r="10.335"/>
		<circle fill="none" stroke="#EF4023" stroke-width="4.7119" stroke-miterlimit="10" cx="82.016" cy="125.633" r="10.532"/>
		<circle fill="none" stroke="#EF4023" stroke-width="4.7119" stroke-miterlimit="10" cx="149.762" cy="19.814" r="14.229"/>
		<circle fill="#EF4023" stroke="#EF4023" stroke-width="0.7559" stroke-miterlimit="10" cx="32.569" cy="106.842" r="9.533"/>
		<circle fill="#EF4023" stroke="#EF4023" stroke-width="1.0135" stroke-miterlimit="10" cx="83.501" cy="69.261" r="12.51"/>
		
			<line fill="#050E2F" stroke="#EF4023" stroke-width="6.47" stroke-miterlimit="10" x1="100.436" y1="55.06" x2="138.011" y2="27.836"/>
		
			<line fill="#050E2F" stroke="#EF4023" stroke-width="4.5877" stroke-miterlimit="10" x1="134.039" y1="109.947" x2="100.436" y2="84.233"/>
		
			<line fill="#050E2F" stroke="#EF4023" stroke-width="2.9418" stroke-miterlimit="10" x1="65.317" y1="59.479" x2="29.052" y2="43.932"/>
		
			<line fill="#050E2F" stroke="#EF4023" stroke-width="2.9418" stroke-miterlimit="10" x1="69.271" y1="86.358" x2="38.884" y2="103.023"/>
		
			<line fill="#050E2F" stroke="#EF4023" stroke-width="2.9033" stroke-miterlimit="10" x1="83.5" y1="89.909" x2="82.018" y2="116.374"/>
		
			<line fill="#050E2F" stroke="#EF4023" stroke-width="3.1616" stroke-miterlimit="10" x1="73.61" y1="19.702" x2="82.018" y2="48.615"/>
		<circle fill="#EF4023" stroke="#EF4023" stroke-width="1.0135" stroke-miterlimit="10" cx="141.849" cy="116.237" r="12.51"/>
	</g>
</g>
<g id="Store_of_value" display="none">
	<path display="inline" fill="none" stroke="#EF4023" stroke-width="6" stroke-miterlimit="10" d="M3.774,4v126.406h123.632V4H3.774
		z"/>
	
		<line display="inline" fill="none" stroke="#EF4023" stroke-width="5" stroke-miterlimit="10" x1="3.774" y1="36.097" x2="127.803" y2="36.097"/>
	<g display="inline">
		<polyline fill="none" stroke="#EF4023" stroke-width="5" stroke-linecap="round" stroke-miterlimit="10" points="100.59,92.175 
			91.671,110.341 109.837,101.421 		"/>
		
			<rect x="100.007" y="71.978" transform="matrix(0.7071 -0.7071 0.7071 0.7071 -20.1145 110.0579)" fill="#EF4023" stroke="#EF4023" stroke-width="4" stroke-miterlimit="10" width="45.57" height="14.662"/>
		
			<polyline fill="none" stroke="#EF4023" stroke-width="4" stroke-linecap="round" stroke-linejoin="round" stroke-miterlimit="10" points="
			150.25,44.845 143.806,38.4 129.796,52.41 		"/>
		<path fill="#EF4023" d="M146.692,41.679l-23.144,23.144c-2.74,2.739-2.98,6.938-0.243,9.676l4.296,4.297
			c2.738,2.738,7.218,2.776,9.957,0.038l23.144-23.145c2.739-2.739,2.701-7.218-0.037-9.957l-4.297-4.296
			C153.63,38.697,149.431,38.939,146.692,41.679z M156.416,57.173l-1.681,1.681l-10.928-10.928l1.681-1.681L156.416,57.173z"/>
	</g>
	<g display="inline">
		<path fill="#EF4023" d="M51.882,109.102v8.119h-5.463v-7.896c-5.064-0.023-9.777-1.172-14.142-3.441V95.521
			c1.446,1.173,3.604,2.257,6.471,3.255c2.87,0.998,5.426,1.57,7.67,1.722V86.878c-5.836-2.168-9.821-4.52-11.953-7.052
			c-2.133-2.532-3.199-5.619-3.199-9.26c0-3.915,1.383-7.251,4.153-10.008c2.768-2.755,6.434-4.358,10.999-4.808v-6.959h5.463v6.811
			c5.262,0.25,9.19,1.097,11.786,2.543v10.102c-3.493-2.119-7.42-3.417-11.786-3.891v14.18c5.462,1.969,9.378,4.222,11.747,6.754
			c2.371,2.531,3.555,5.592,3.555,9.184c0,4.14-1.322,7.477-3.965,10.007C60.575,107.013,56.795,108.553,51.882,109.102z
			 M46.419,76.365V64.506c-3.466,0.623-5.199,2.431-5.199,5.424C41.22,72.499,42.953,74.645,46.419,76.365z M51.882,89.011v11.335
			c3.567-0.546,5.35-2.33,5.35-5.349C57.232,92.552,55.449,90.557,51.882,89.011z"/>
	</g>
</g>
<g id="Store_of_value_1_" display="none">
	<path display="inline" fill-rule="evenodd" clip-rule="evenodd" fill="#EF4023" stroke="#EF4023" stroke-miterlimit="10" d="
		M76.402,149.405C52.026,115.876,27.792,82.543,3.473,49.092C14.486,33.557,25.461,18.075,36.48,2.531c26.472,0,52.936,0,79.566,0
		c11.029,15.42,22.113,30.916,33.295,46.55C125.08,82.452,100.817,115.824,76.402,149.405z M53.097,51.407
		c7.787,28.618,15.506,56.988,23.225,85.357c0.106-0.008,0.212-0.017,0.319-0.025c8.198-28.396,16.396-56.792,24.635-85.332
		C85.075,51.407,69.202,51.407,53.097,51.407z M10.685,51.406C30.747,79,50.593,106.298,70.439,133.595
		c0.111-0.059,0.222-0.117,0.333-0.175c-7.437-27.332-14.874-54.662-22.316-82.014C35.887,51.406,23.502,51.406,10.685,51.406z
		 M105.921,51.45c-7.854,27.199-15.706,54.39-23.558,81.58c0.104,0.047,0.208,0.096,0.312,0.143
		c19.75-27.165,39.499-54.331,59.414-81.723C129.91,51.45,118.05,51.45,105.921,51.45z M54.197,46.732c15.465,0,30.605,0,46.034,0
		c-7.72-12.653-15.303-25.082-23.02-37.73C69.479,21.678,61.907,34.092,54.197,46.732z M36.798,9.821
		C27.928,22.335,19.333,34.46,10.614,46.762c12.399,0,24.394,0,36.552,0C43.736,34.54,40.344,22.455,36.798,9.821z M115.889,9.998
		c-2.993,12.574-5.86,24.625-8.741,36.729c11.763,0,23.233,0,35.008,0C133.385,34.463,124.782,22.434,115.889,9.998z M40.658,7.018
		c3.415,12.159,6.768,24.101,10.249,36.499c7.544-12.361,14.84-24.318,22.273-36.499C62.226,7.018,51.608,7.018,40.658,7.018z
		 M103.364,43.273c2.966-12.456,5.79-24.314,8.624-36.213c-10.369,0-20.409,0-30.717,0C88.627,19.119,95.847,30.952,103.364,43.273z
		"/>
</g>
<g id="Ownership" display="none">
	<g display="inline">
		<path fill="#EF4023" stroke="#F2F2F2" stroke-width="0.4757" stroke-miterlimit="10" d="M115.164,74.95"/>
		<g>
			<path fill="#EF4023" d="M56.119,114.716c-0.224,5.493-4.747,9.879-10.294,9.879c-5.548,0-10.07-4.386-10.294-9.879H56.119z"/>
			<path fill="#EF4023" d="M51.607,55.387c-15.019,0-27.191-12.177-27.191-27.196C24.416,13.175,36.588,1,51.607,1
				c15.02,0,27.194,12.175,27.194,27.19C78.801,43.21,66.626,55.387,51.607,55.387z"/>
			<path fill="#EF4023" d="M53.848,85.633c-15.471,0-28.012,12.799-28.012,28.269c0,0.292,0.013,0.524,0.022,0.814H2
				c0.114-27.88,21.609-55.316,48.115-55.316c23.998,0,43.889,22.489,47.519,47.672H81.108
				C78.198,94.48,67.102,85.633,53.848,85.633z"/>
			<path fill="#EF4023" d="M35.52,114.29c0-5.692,4.614-10.307,10.305-10.307s10.305,4.614,10.305,10.307
				c0,0.143-0.005,0.284-0.011,0.426H35.531C35.525,114.574,35.52,114.433,35.52,114.29z"/>
			<path fill="none" stroke="#EF4023" stroke-width="5" stroke-miterlimit="10" d="M25.858,114.828
				c0.461,15.061,12.811,27.074,27.99,27.074c12.961,0,23.86-8.075,27.058-20.666h31.521v3.076v10.414h8.544v-10.343h9.893v10.343
				h8.993v-10.414v-3.076h7.479c2.995,0,5.421-3.188,5.421-6.971c0-3.782-2.426-6.97-5.421-6.97H97.634H81.108
				c-2.91-12.591-14.006-21.551-27.26-21.551c-15.471,0-28.012,12.631-28.012,28.1C25.836,114.137,25.849,114.538,25.858,114.828z
				 M35.531,114.716c-0.006-0.142-0.011-0.283-0.011-0.426c0-5.692,4.614-10.307,10.305-10.307s10.305,4.614,10.305,10.307
				c0,0.143-0.005,0.284-0.011,0.426c-0.224,5.493-4.747,9.879-10.294,9.879C40.276,124.595,35.754,120.209,35.531,114.716z"/>
		</g>
	</g>
</g>
<g id="Transparancy" display="none">
	
		<circle display="inline" fill="none" stroke="#EF4023" stroke-width="6" stroke-miterlimit="10" cx="54.104" cy="53.679" r="49.834"/>
	<circle display="inline" fill="none" cx="54.105" cy="52.679" r="38.839"/>
	
		<rect x="93.172" y="86.483" transform="matrix(0.7071 -0.7071 0.7071 0.7071 -39.5924 99.1903)" display="inline" fill="#EF4023" stroke="#EF4023" stroke-width="3.2739" stroke-miterlimit="10" width="13.538" height="21.812"/>
	<path display="inline" fill="none" d="M82.806,142.987c2.505,2.505,2.776,6.534,0.458,8.852l-6.145,6.145
		c-2.317,2.318-6.346,2.047-8.851-0.459L45.904,135.16c-2.506-2.505-2.659-6.416-0.342-8.732l6.146-6.146
		c2.316-2.318,6.227-2.166,8.731,0.341L82.806,142.987z"/>
	<path display="inline" fill="#EF4023" d="M49.207,76.827c-1.153,0-2.253-0.658-3.023-1.523L31.336,58.576
		c-1.487-1.667-1.342-4.272,0.327-5.76c1.67-1.488,4.229-1.36,5.718,0.306l11.625,13.023l24.157-30.836
		c1.379-1.763,3.924-2.075,5.685-0.695c1.76,1.382,2.069,3.925,0.69,5.685L52.393,75.107c-0.739,0.946-1.86,1.72-3.058,1.72
		C49.292,76.827,49.248,76.827,49.207,76.827z"/>
	<g display="inline">
		<polygon fill="none" points="75.355,64.583 54.231,76.727 33.106,64.583 33.106,40.292 54.231,29.988 75.355,40.292 		"/>
		<polyline fill="none" points="33.315,40.292 54.33,50.43 75.549,40.292 		"/>
	</g>
	
		<rect x="113.716" y="99.56" transform="matrix(0.7071 -0.7071 0.7071 0.7071 -48.8683 121.546)" display="inline" fill="none" stroke="#EF4023" stroke-width="6" stroke-miterlimit="10" width="17.138" height="40.405"/>
</g>
<g id="Spread" display="none">
	<g display="inline">
		<circle fill="none" stroke="#EF4023" stroke-width="6.7754" stroke-miterlimit="10" cx="78.646" cy="24.727" r="19.728"/>
		<circle fill="#EF4023" cx="78.646" cy="24.726" r="10.095"/>
		<circle fill="none" stroke="#EF4023" stroke-width="6.7754" stroke-miterlimit="10" cx="22.098" cy="113.367" r="17.098"/>
		<circle fill="none" stroke="#EF4023" stroke-width="6.7754" stroke-miterlimit="10" cx="79.522" cy="113.367" r="17.098"/>
		<circle fill="none" stroke="#EF4023" stroke-width="6.7754" stroke-miterlimit="10" cx="138.701" cy="113.367" r="17.098"/>
		
			<line fill="none" stroke="#EF4023" stroke-width="5.8074" stroke-miterlimit="10" x1="138.701" y1="96.269" x2="78.647" y2="44.546"/>
		
			<line fill="none" stroke="#EF4023" stroke-width="5.8074" stroke-miterlimit="10" x1="79.232" y1="96.269" x2="78.209" y2="44.228"/>
		
			<line fill="none" stroke="#EF4023" stroke-width="5.8074" stroke-miterlimit="10" x1="22.098" y1="96.269" x2="78.209" y2="44.228"/>
	</g>
</g>
<g id="Security" display="none">
	<path display="inline" fill-rule="evenodd" clip-rule="evenodd" fill="#EF4023" d="M58.856,116.521c-3.281,0-6.185,0-9.421,0
		c0-2.431-0.1-4.76,0.031-7.074c0.111-1.969-0.409-3.048-2.416-3.964c-7.63-3.485-11.187-12.129-8.526-19.98
		c2.589-7.642,10.6-12.481,18.288-11.048c8.445,1.574,14.316,8.767,13.763,17.188c-0.427,6.5-3.703,11.292-9.645,14.016
		c-1.604,0.735-2.209,1.538-2.11,3.261C58.962,111.351,58.856,113.796,58.856,116.521z M54.16,97.791
		c3.865-0.006,7.087-3.275,7.04-7.141c-0.047-3.871-3.328-7.037-7.214-6.963c-3.741,0.071-6.86,3.235-6.892,6.99
		C47.062,94.548,50.29,97.797,54.16,97.791z"/>
	<path display="inline" fill="#EF4023" stroke="#FFFFFF" stroke-width="3.819" stroke-miterlimit="10" d="M54.129,0
		C33.847,0,17.208,16.531,17.208,36.683v15.721H6.659H1.385v5.24v73.366v5.24h5.274H101.6h5.275v-5.24V57.644v-5.24H101.6H91.051
		V36.683C91.051,16.531,74.412,0,54.129,0z M54.129,10.481c14.529,0,26.373,11.767,26.373,26.202v15.721H27.757V36.683
		C27.757,22.248,39.601,10.481,54.129,10.481z M11.934,62.884h84.392v62.885H11.934V62.884z"/>
</g>
<g id="Guides">
</g>
</svg>
