<?xml version="1.0" encoding="utf-8"?>
<!-- Generator: Adobe Illustrator 16.0.0, SVG Export Plug-In . SVG Version: 6.00 Build 0)  -->
<!DOCTYPE svg PUBLIC "-//W3C//DTD SVG 1.1//EN" "http://www.w3.org/Graphics/SVG/1.1/DTD/svg11.dtd">
<svg version="1.1" xmlns="http://www.w3.org/2000/svg" xmlns:xlink="http://www.w3.org/1999/xlink" x="0px" y="0px" width="200px"
	 height="200px" viewBox="0 0 200 200" enable-background="new 0 0 200 200" xml:space="preserve">
<g id="Fast" display="none">
	<path display="inline" fill-rule="evenodd" clip-rule="evenodd" fill="#EF4023" d="M3.25,67.213c0.24-2.193,0.393-4.4,0.732-6.579
		c3.31-21.277,14.49-37.158,33.363-47.336c24.987-13.475,55.82-8.235,75.526,12.513c2.135,2.247,3.996,4.758,5.925,7.194
		c0.291,0.368,0.428,1.028,0.342,1.497c-0.358,1.915-0.83,3.808-1.292,5.847c-2.049-2.947-3.983-5.728-5.822-8.371
		c-4.568,2.005-8.919,3.914-13.402,5.881c0.318,1.065,0.693,2.269,1.035,3.482c2.114,7.493,3.312,15.131,3.645,22.909
		c0.04,0.917,0.226,1.827,0.324,2.743c0.02,0.185,0.012,0.425-0.089,0.561c-1.603,2.178-3.225,4.344-5.085,6.406
		c0-0.652,0-1.303,0-2.022c-9.718,0-19.337,0-29.071,0c0,8.106,0,16.21,0,24.371c2.37,0.166,4.723,0.328,7.467,0.518
		c-1.948,1.604-3.53,3.024-5.251,4.248c-0.532,0.377-1.446,0.218-2.347,0.323c0.548,1.625-0.751,2.19-1.76,2.932
		c-0.948,0.695-1.91,1.37-3.086,2.211c0-1.894,0-3.525,0-5.277c-7.823,0.209-15.387,1.143-22.954,3.125
		c1.635,4.261,3.798,8.135,6.438,11.948c-1.479,0.646-2.868,1.252-4.6,2.01c-2.235-4.153-4.443-8.254-6.812-12.657
		c-3.588,1.502-7.369,3.084-11.396,4.771c3.863,4.028,8.096,7.047,12.907,9.927c-2.332,0.531-4.332,1.017-6.349,1.415
		c-0.343,0.068-0.817-0.165-1.136-0.392C16.192,111.201,7.362,97.492,4.281,80.158c-0.504-2.838-0.695-5.73-1.03-8.598
		C3.25,70.111,3.25,68.661,3.25,67.213z M64.327,71.934c-9.761,0-19.375,0-29.145,0c0.198,9.532,1.599,18.768,4.57,27.902
		c8.089-2.174,16.249-3.234,24.575-3.485C64.327,88.176,64.327,80.098,64.327,71.934z M69.36,42.684c0,8.069,0,16.143,0,24.207
		c9.748,0,19.403,0,29.138,0c-0.206-9.545-1.604-18.787-4.511-27.665c-4.167,0.78-8.158,1.677-12.195,2.242
		C77.712,42.041,73.584,42.284,69.36,42.684z M39.822,39.058c-2.579,6.545-5.328,23.901-4.444,27.831c9.647,0,19.292,0,28.914,0
		c0-8.168,0-16.239,0-24.393C55.96,42.309,47.846,41.2,39.822,39.058z M8.337,71.93c0.723,13.295,5.194,24.937,13.441,34.926
		c4.53-1.986,8.881-3.894,13.318-5.839c-3.099-9.372-4.559-19.133-4.833-29.086C22.889,71.93,15.7,71.93,8.337,71.93z
		 M21.874,32.065C14.958,38.577,7.048,59.12,8.537,66.889c7.221,0,14.44,0,21.748,0c0.244-10.003,1.753-19.718,4.809-29.027
		C30.631,35.905,26.282,33.999,21.874,32.065z M92.265,34.502c-1.891-4.64-4.128-8.917-7.085-12.794
		c-3.04-3.985-6.591-7.376-11.291-9.336c-1.419-0.592-2.945-0.936-4.52-1.422c0,9.069,0,17.817,0,26.649
		C77.159,37.46,84.718,36.458,92.265,34.502z M64.338,10.996c-1.357,0.382-2.64,0.644-3.848,1.1
		c-4.511,1.703-8.019,4.751-11.035,8.423c-3.426,4.171-5.952,8.857-8.021,13.981c7.592,1.958,15.162,2.97,22.904,3.09
		C64.338,28.685,64.338,19.967,64.338,10.996z M84.794,13.65c2.226,2.97,4.71,5.902,6.752,9.116
		c2.062,3.248,3.684,6.776,5.644,10.453c3.647-1.536,7.447-3.134,11.442-4.814C101.596,21.362,93.674,16.514,84.794,13.65z
		 M36.742,33.315c3.025-7.377,6.844-13.935,12.482-19.565c-6.125,0.871-20.645,9.812-23.975,14.756
		C29.085,30.111,32.869,31.694,36.742,33.315z"/>
	<path display="inline" fill-rule="evenodd" clip-rule="evenodd" fill="#EF4023" d="M62.846,132.947
		c-2.35-0.343-4.704-0.651-7.045-1.039c-1.448-0.24-2.874-0.601-4.548-0.958c2.942-1.476,5.592-2.826,8.269-4.121
		c0.319-0.155,0.806-0.085,1.181,0.016c1.184,0.312,2.352,0.687,3.502,1.031c0.082-0.169,0.122-0.211,0.116-0.245
		c-0.675-3.19,1.175-4.791,3.735-5.957c0.34-0.156,0.646-0.39,1.14-0.694c0,2.32,0,4.5,0,7.034c1.816-0.586,3.445-0.994,4.978-1.63
		c3.28-1.362,5.992-3.558,8.403-6.132c4.284-4.572,7.241-9.956,9.654-15.786c-0.43-0.158-0.808-0.299-0.987-0.366
		c3.016-3.044,6.077-6.135,9.128-9.217c-0.561,1.978-1.151,4.062-1.786,6.306c0.401,0.167,0.817,0.327,1.225,0.507
		c3.657,1.608,7.328,3.186,10.956,4.858c0.761,0.351,1.155,0.334,1.682-0.33c7.134-9.011,11.394-19.194,12.584-30.64
		c0.123-1.178,0.195-2.359,0.301-3.672c-2.347,0-4.546,0-7.03,0c1.076-1.704,1.995-3.208,2.982-4.668
		c0.137-0.203,0.604-0.242,0.923-0.252c0.971-0.032,1.945-0.012,3.148-0.012c-0.166-1.742-0.336-3.372-0.466-5.005
		c-0.035-0.446-0.065-0.959,0.114-1.344c1.028-2.192,2.119-4.354,3.37-6.896c0.357,1.645,0.689,2.963,0.929,4.3
		c6.082,33.965-15.552,66.236-49.331,73.528c-2.655,0.573-5.388,0.781-8.083,1.166c-0.374,0.053-0.742,0.145-1.114,0.219
		C68.132,132.947,65.489,132.947,62.846,132.947z M108.655,110.46c-4.093-1.707-7.873-3.282-11.714-4.883
		c-3.088,7.446-6.897,14.063-12.41,19.618C93.703,122.36,101.603,117.505,108.655,110.46z"/>
	
		<path display="inline" fill-rule="evenodd" clip-rule="evenodd" fill="#EF4023" stroke="#EF4023" stroke-width="2" stroke-miterlimit="10" d="
		M5.628,99.991c1.164,2.01,2.332,3.977,3.432,5.981c0.182,0.331,0.063,0.827,0.081,1.249c0.114,2.756-0.105,5.578,0.406,8.259
		c1.3,6.833,5.989,10.82,12.957,11.6c6.745,0.758,13.137-0.732,19.391-2.98c11.129-4.004,21.09-10.116,30.404-17.304
		c16.104-12.431,29.833-27.055,40.502-44.439c4.763-7.761,8.691-15.914,10.778-24.841c1.164-4.979,1.726-10.003,0.377-15.044
		c-0.364-1.364-0.978-2.662-1.479-3.992c-0.116,0.018-0.232,0.035-0.347,0.051c-0.663,2.445-1.324,4.888-2.066,7.628
		c-3.405-8.105-6.693-15.929-10.149-24.16c8.197,3.438,16.042,6.729,24.184,10.143c-2.998,0.803-5.695,1.527-8.471,2.27
		c0.053,0.185,0.059,0.354,0.139,0.471c3.427,5.052,4.196,10.708,3.698,16.617c-0.84,9.956-4.546,18.989-9.217,27.661
		c-8.579,15.928-20.071,29.565-33.339,41.752c-10.53,9.674-21.982,18.052-34.925,24.258c-6.511,3.123-13.25,5.603-20.442,6.624
		c-5.074,0.721-10.122,0.719-14.999-1.136c-6.829-2.594-10.628-7.71-11.95-14.754c-0.984-5.241-0.38-10.437,0.794-15.584
		C5.409,100.212,5.528,100.123,5.628,99.991z"/>
</g>
<g id="Protection" display="none">
	<path display="inline" fill-rule="evenodd" clip-rule="evenodd" fill="#EF4023" d="M136.778,88.853
		c-0.296-0.502-0.592-1.005-0.889-1.508c-4.472-7.578-11.122-11.7-19.901-11.584c-9.026,0.118-15.781,4.417-20.008,12.494
		c-0.051,0.099-0.106,0.193-0.152,0.293c-0.676,1.465-1.562,2.852-3.338,2.816c-1.749-0.035-2.604-1.427-3.328-2.87
		c-3.305-6.58-8.516-10.796-15.751-12.294c-9.614-1.989-19.5,2.91-23.963,11.77c-0.812,1.61-1.573,3.409-3.66,3.382
		c-1.99-0.025-2.708-1.781-3.537-3.319c-4.279-7.941-11.006-12.201-19.98-12.278c-8.643-0.073-15.222,3.963-19.705,11.368
		c-0.313,0.517-0.599,1.051-0.916,1.566C1.605,88.76,1.456,88.767,1,88.932c0.314-9.376,2.481-18.115,6.381-26.454
		c3.943-8.428,9.436-15.703,16.313-21.961c21.792-19.833,53.947-23.123,79.945-8.006c12.619,7.337,21.863,17.845,27.861,31.142
		c3.587,7.95,5.579,16.302,5.818,25.02C137.139,88.733,136.958,88.792,136.778,88.853z"/>
	<path display="inline" fill-rule="evenodd" clip-rule="evenodd" fill="#EF4023" stroke="#FFFFFF" stroke-miterlimit="10" d="
		M71.855,17.88c-1.959,0-3.717,0.055-5.464-0.047c-0.337-0.02-0.912-0.647-0.916-1.001c-0.06-4.531-0.091-9.065-0.008-13.595
		c0.034-1.86,1.486-3.206,3.148-3.236c1.688-0.03,3.198,1.325,3.22,3.132C71.895,7.935,71.855,12.737,71.855,17.88z"/>
	
		<rect x="65.993" y="3.179" display="inline" fill-rule="evenodd" clip-rule="evenodd" fill="#EF4023" width="5.3" height="14.829"/>
	<g display="inline">
		<path fill-rule="evenodd" clip-rule="evenodd" fill="#EF4023" stroke="#FFFFFF" stroke-miterlimit="10" d="M65.43,80.071
			c2.233,0,4.209,0,6.319,0c0.041,0.529,0.108,1.005,0.108,1.483c0.007,16.984,0.033,33.97-0.003,50.954
			c-0.018,8.732-6.791,15.285-15.485,15.107c-8.442-0.173-15.391-8.288-14.238-16.628c0.209-1.511,1.57-2.71,3.094-2.727
			c1.537-0.016,2.903,1.135,3.101,2.676c0.125,0.985,0.105,1.989,0.252,2.97c0.703,4.67,4.476,7.584,9.325,7.237
			c4.169-0.298,7.501-3.986,7.507-8.452c0.027-16.82,0.016-33.639,0.019-50.458C65.43,81.579,65.43,80.924,65.43,80.071z"/>
		<rect x="61.32" y="77.974" fill-rule="evenodd" clip-rule="evenodd" fill="#FFFFFF" width="14.43" height="2.51"/>
	</g>
</g>
<g id="Blockchain" display="none">
	<g display="inline">
		<g>
			<polygon fill="none" stroke="#EF4023" stroke-width="4" stroke-miterlimit="10" points="36.871,56.693 68.731,74.989 
				68.77,111.73 36.946,130.176 5.084,111.879 5.045,75.138 			"/>
			<line fill="none" stroke="#EF4023" stroke-width="4" stroke-miterlimit="10" x1="68.978" y1="74.846" x2="35.956" y2="93.986"/>
			<line fill="none" stroke="#EF4023" stroke-width="4" stroke-miterlimit="10" x1="36.112" y1="93.883" x2="4.879" y2="74.849"/>
			<line fill="none" stroke="#EF4023" stroke-width="4" stroke-miterlimit="10" x1="36.112" y1="93.883" x2="36.951" y2="130.181"/>
		</g>
		<g>
			<polyline fill="none" stroke="#EF4023" stroke-width="4" stroke-miterlimit="10" points="48.92,63.611 48.907,49.717 
				80.731,31.271 112.593,49.566 112.631,86.308 80.807,104.754 69.511,98.278 			"/>
			<line fill="none" stroke="#EF4023" stroke-width="4" stroke-miterlimit="10" x1="112.652" y1="49.532" x2="79.63" y2="68.672"/>
			<line fill="none" stroke="#EF4023" stroke-width="4" stroke-miterlimit="10" x1="79.973" y1="68.46" x2="48.739" y2="49.426"/>
			<line fill="none" stroke="#EF4023" stroke-width="4" stroke-miterlimit="10" x1="79.973" y1="68.46" x2="80.812" y2="104.759"/>
		</g>
		<g>
			<polyline fill="none" stroke="#EF4023" stroke-width="4" stroke-miterlimit="10" points="92.532,38.776 92.533,24.905 
				124.357,6.459 156.219,24.754 156.257,61.496 124.434,79.941 113.131,73.455 			"/>
			
				<line fill="none" stroke="#EF4023" stroke-width="4" stroke-miterlimit="10" x1="156.178" y1="24.779" x2="123.511" y2="43.713"/>
			<line fill="none" stroke="#EF4023" stroke-width="4" stroke-miterlimit="10" x1="123.572" y1="43.601" x2="92.338" y2="24.566"/>
			<line fill="none" stroke="#EF4023" stroke-width="4" stroke-miterlimit="10" x1="123.572" y1="43.601" x2="124.41" y2="79.9"/>
		</g>
	</g>
</g>
<g id="Cryptocurrencies2" display="none">
	<g display="inline">
		<path fill-rule="evenodd" clip-rule="evenodd" fill="#EF4023" stroke="#EF4023" stroke-miterlimit="10" d="M72.101,114.5
			c3.002-1.756,4.849-1.505,7.184,0.899c0.508,0.523,1.036,1.03,1.52,1.575c1.884,2.126,1.804,4.969-0.356,6.814
			c-9.309,7.954-18.646,15.874-28.003,23.77c-2.182,1.841-4.966,1.509-6.791-0.675c-0.567-0.679-1.088-1.396-1.627-2.1
			c-1.902-2.483-1.955-4.229-0.129-6.936c-2.308-2.819-4.653-5.664-6.977-8.526c-3.152-3.882-6.347-7.732-9.413-11.681
			c-3.049-3.926-5.137-8.32-5.769-13.308c-0.129-1.013-0.596-1.25-1.538-1.235c-3.126,0.048-6.253,0.042-9.379,0.01
			c-5.115-0.052-8.769-3.686-8.771-8.786C2.035,66.342,2.033,38.36,2.044,10.378C2.046,4.79,5.648,1.18,11.24,1.168
			c11.932-0.024,23.865-0.011,35.797,0c5.592,0.005,9.23,3.572,9.247,9.153c0.034,11.463,0.014,22.928,0.015,34.391
			c0,5.367-0.039,10.735,0.033,16.101c0.012,0.867,0.322,1.857,0.814,2.57c3.608,5.229,7.274,10.421,10.972,15.587
			c2.14,2.99,3.191,6.259,3.061,9.947c-0.246,6.978-0.381,13.959-0.676,20.934C70.426,111.649,70.979,113.079,72.101,114.5z
			 M20.382,82.668c0-2.328,0.044-4.56-0.009-6.789c-0.121-5.002,2.751-8.649,7.595-9.568c4.435-0.842,8.499,1.609,10.13,6.138
			c1.11,3.082,2.165,6.184,3.298,9.258c0.148,0.403,0.605,0.979,0.932,0.988c3.003,0.077,6.008,0.045,9.062,0.045
			c0-20.457,0-40.746,0-61.057c-14.892,0-29.694,0-44.496,0c0,20.4,0,40.648,0,60.985C11.438,82.668,15.897,82.668,20.382,82.668z
			 M56.683,71.037c-0.129,0.034-0.259,0.068-0.388,0.103c0,0.543,0,1.086,0,1.629c0.002,7.087,0.017,14.173,0.002,21.26
			c-0.005,2.757-0.959,3.553-3.648,3.156c-2.936-0.433-5.86-0.98-8.811-1.251c-2.001-0.185-3.03-1.066-3.662-2.955
			c-2.11-6.313-4.35-12.584-6.564-18.863c-0.89-2.524-2.773-3.562-5.234-2.962c-2.091,0.51-3.273,2.102-3.188,4.553
			c0.263,7.602,0.762,15.201,0.824,22.804c0.057,7.073,2.462,13.075,6.953,18.424c4.689,5.585,9.261,11.27,13.875,16.918
			c0.256,0.314,0.425,0.698,0.658,1.089c7.137-5.897,13.95-11.528,20.793-17.184c-0.455-0.812-0.78-1.525-1.223-2.155
			c-1.16-1.651-1.465-3.42-1.371-5.446c0.331-7.129,0.572-14.267,0.651-21.403c0.02-1.756-0.272-3.784-1.163-5.231
			C62.55,79.238,59.544,75.182,56.683,71.037z M51.474,16.677c0-2.039-0.002-4.002,0.001-5.965c0.005-3.385-1.3-4.697-4.721-4.698
			C35.567,6.011,24.379,6.015,13.192,6.018c-0.937,0.001-1.876-0.035-2.809,0.031C8.638,6.171,7.15,7.246,7.009,8.958
			c-0.21,2.557-0.055,5.144-0.055,7.72C21.807,16.677,36.566,16.677,51.474,16.677z M20.943,87.648c-4.852,0-9.414,0-14.088,0
			c0,2.55-0.105,4.941,0.034,7.316c0.104,1.775,1.5,3.246,3.224,3.306c3.628,0.127,7.263,0.039,10.83,0.039
			C20.943,94.657,20.943,91.137,20.943,87.648z M75.289,118.215c-9.399,7.764-18.659,15.415-27.978,23.112
			c0.745,0.91,1.4,1.708,2.144,2.617c9.319-7.95,18.57-15.841,27.897-23.798C76.612,119.455,76.009,118.89,75.289,118.215z
			 M43.348,87.867c0.623,1.176,0.959,2.89,1.818,3.214c1.917,0.722,4.095,0.751,6.192,1.065c0-1.634,0-3.054,0-4.548
			c-2.451,0-4.782-0.004-7.114,0.007C44.056,87.606,43.867,87.711,43.348,87.867z"/>
		<path fill-rule="evenodd" clip-rule="evenodd" fill="#EF4023" d="M31.324,31.928c5.998,1.012,10.015,6.833,5.586,12.642
			c6.185,5.93,1.822,13.39-5.496,14.239c-0.653,2.538-1.359,3.358-2.785,3.234c-1.367-0.119-2.066-1.038-2.327-3.275
			c-1.862,0-3.773,0.127-5.654-0.057c-0.868-0.084-1.942-0.574-2.452-1.24c-0.93-1.215-0.04-3.036,1.482-3.43
			c0.437-0.113,0.905-0.108,1.48-0.17c0-5.247,0-10.444,0-15.641c0-0.46,0-0.92,0-1.42c-0.486-0.051-0.847-0.057-1.194-0.13
			c-1.348-0.284-2.144-1.105-2.079-2.505c0.064-1.408,0.947-2.194,2.318-2.265c1.609-0.083,3.226-0.025,4.839-0.041
			c0.407-0.004,0.814-0.051,1.197-0.077c0.44-2.312,1.168-3.175,2.607-3.153C30.303,28.661,30.993,29.551,31.324,31.928z
			 M26.126,47.398c0,2.285,0,4.376,0,6.568c0.497,0,0.854,0.001,1.21,0c1.196-0.002,2.408,0.117,3.581-0.047
			c0.945-0.132,1.947-0.446,2.741-0.96c1.853-1.201,1.834-3.405-0.015-4.617c-0.712-0.467-1.602-0.83-2.44-0.902
			C29.561,47.299,27.898,47.398,26.126,47.398z M26.09,36.777c0,1.98,0,3.777,0,5.645c1.693,0,3.298,0.127,4.873-0.033
			c1.812-0.184,3.03-1.47,2.999-2.832c-0.03-1.325-1.364-2.611-3.112-2.754C29.313,36.678,27.757,36.777,26.09,36.777z"/>
		<path fill-rule="evenodd" clip-rule="evenodd" fill="#EF4023" d="M29.105,8.962c1.349-0.001,2.7-0.04,4.047,0.009
			c1.514,0.055,2.511,1.058,2.503,2.417c-0.008,1.321-0.918,2.31-2.387,2.344c-2.748,0.063-5.5,0.064-8.248-0.004
			c-1.454-0.036-2.352-1.048-2.34-2.379c0.013-1.316,0.945-2.302,2.378-2.371C26.405,8.914,27.756,8.964,29.105,8.962z"/>
		
			<rect x="37.162" y="119.25" transform="matrix(-0.7766 0.63 -0.63 -0.7766 210.7479 195.5222)" fill-rule="evenodd" clip-rule="evenodd" fill="#FFFFFF" width="67.095" height="31.75"/>
		<polygon fill-rule="evenodd" clip-rule="evenodd" fill="#EF4023" points="45.812,141.102 75.47,117.822 71.702,113.049 
			42.044,136.329 		"/>
	</g>
</g>
<g id="Cryptocurrencies" display="none">
	<g display="inline">
		<g>
			<path fill="#FFFFFF" d="M33.388,61.625c-16.201,0-29.382-13.181-29.382-29.381c0-16.201,13.181-29.382,29.382-29.382
				c16.201,0,29.381,13.181,29.381,29.382C62.769,48.444,49.588,61.625,33.388,61.625z"/>
			<path fill="#EF4023" d="M33.388,4.724c15.174,0,27.519,12.346,27.519,27.52s-12.345,27.52-27.519,27.52
				c-15.175,0-27.52-12.345-27.52-27.52S18.213,4.724,33.388,4.724 M33.388,1C16.132,1,2.144,14.988,2.144,32.244
				c0,17.254,13.988,31.243,31.244,31.243c17.254,0,31.243-13.989,31.243-31.243C64.63,14.988,50.642,1,33.388,1L33.388,1z"/>
		</g>
		<g>
			<path fill="#EF4023" d="M47.285,35.822c-0.736-1.373-2.013-2.446-3.833-3.22c2.623-0.825,4.036-2.736,4.241-5.736
				c0.083-1.086-0.057-2.063-0.419-2.932c-0.363-0.869-0.924-1.614-1.687-2.234c-0.762-0.62-1.618-1.138-2.563-1.556
				s-2.05-0.792-3.312-1.121l1.031-6.125L37,12.268l-1.002,5.956c-0.648-0.109-1.64-0.26-2.974-0.451l1.011-6.004l-3.744-0.63
				l-1.032,6.126c-0.537-0.073-1.324-0.198-2.362-0.373L21.748,16l-0.671,3.986l2.698,0.454c1.232,0.208,1.86,0.88,1.886,2.018
				l-1.175,6.977c0.162,0.027,0.29,0.058,0.385,0.089l-0.389-0.065l-1.645,9.772c-0.269,0.804-0.808,1.139-1.618,1.002l-2.699-0.454
				l-1.502,4.322l4.863,0.818c0.308,0.052,0.752,0.132,1.334,0.237c0.583,0.106,1.019,0.183,1.312,0.232l-1.044,6.2l3.744,0.63
				l1.032-6.126c0.677,0.13,1.664,0.305,2.96,0.523l-1.026,6.102l3.743,0.629l1.043-6.198c1.34,0.159,2.539,0.236,3.599,0.229
				c1.059-0.005,2.091-0.119,3.094-0.341c1.005-0.223,1.871-0.565,2.598-1.026c0.729-0.46,1.372-1.094,1.933-1.899
				c0.56-0.806,0.994-1.775,1.302-2.906C48.092,38.992,48.02,37.196,47.285,35.822z M32.359,22.16
				c0.115,0.019,0.435,0.069,0.963,0.149c0.529,0.08,0.968,0.146,1.316,0.197c0.351,0.051,0.817,0.151,1.4,0.298
				c0.583,0.148,1.07,0.297,1.462,0.446c0.392,0.15,0.815,0.358,1.27,0.626c0.455,0.268,0.807,0.561,1.052,0.877
				c0.247,0.315,0.438,0.698,0.57,1.146c0.133,0.447,0.155,0.939,0.064,1.473c-0.075,0.454-0.218,0.856-0.427,1.204
				c-0.208,0.349-0.48,0.624-0.813,0.825c-0.333,0.203-0.671,0.371-1.011,0.505c-0.338,0.134-0.757,0.219-1.254,0.251
				c-0.497,0.033-0.929,0.052-1.297,0.057c-0.368,0.004-0.821-0.026-1.359-0.091c-0.54-0.066-0.948-0.119-1.225-0.156
				c-0.277-0.039-0.654-0.102-1.13-0.19c-0.478-0.09-0.756-0.14-0.837-0.154L32.359,22.16L32.359,22.16L32.359,22.16z
				 M39.795,40.437c-0.217,0.346-0.469,0.637-0.759,0.872c-0.29,0.234-0.65,0.423-1.083,0.568c-0.432,0.144-0.845,0.249-1.241,0.315
				c-0.395,0.068-0.864,0.105-1.406,0.112c-0.544,0.01-1.016,0-1.421-0.025c-0.403-0.027-0.882-0.075-1.438-0.143
				c-0.555-0.069-0.987-0.129-1.294-0.182c-0.308-0.051-0.696-0.121-1.165-0.208c-0.469-0.087-0.768-0.142-0.898-0.164l1.385-8.217
				c0.128,0.021,0.515,0.079,1.158,0.169c0.643,0.092,1.167,0.173,1.572,0.241c0.404,0.068,0.96,0.186,1.666,0.356
				c0.704,0.167,1.292,0.341,1.762,0.52c0.47,0.179,0.975,0.419,1.517,0.718c0.541,0.301,0.965,0.625,1.272,0.977
				c0.308,0.351,0.545,0.775,0.711,1.27c0.167,0.495,0.202,1.034,0.103,1.617C40.159,39.688,40.012,40.089,39.795,40.437z"/>
		</g>
	</g>
	<g display="inline">
		<g>
			<path fill="#FFFFFF" d="M106.052,61.625c-16.201,0-29.382-13.181-29.382-29.381c0-16.201,13.181-29.382,29.382-29.382
				c16.201,0,29.381,13.181,29.381,29.382C135.433,48.444,122.253,61.625,106.052,61.625z"/>
			<path fill="#EF4023" d="M106.052,4.724c15.174,0,27.519,12.346,27.519,27.52s-12.345,27.52-27.519,27.52
				c-15.175,0-27.52-12.345-27.52-27.52S90.877,4.724,106.052,4.724 M106.052,1C88.797,1,74.809,14.988,74.809,32.244
				c0,17.254,13.989,31.243,31.244,31.243s31.243-13.989,31.243-31.243C137.295,14.988,123.307,1,106.052,1L106.052,1z"/>
		</g>
		<g>
			<path fill-rule="evenodd" clip-rule="evenodd" fill="#EF4023" d="M93.699,26.694c0.07-0.224,0.13-0.416,0.192-0.608
				c0.509-1.576,1.022-3.15,1.525-4.728c0.055-0.173,0.125-0.24,0.317-0.24c8.367,0.005,16.735-0.002,25.102,0.012
				c1.378,0.002,2.485,0.59,3.23,1.777c0.326,0.518,0.455,1.107,0.539,1.708c0.141,1-0.126,1.932-0.431,2.868
				c-1.063,3.268-2.121,6.538-3.151,9.815c-0.525,1.671-1.515,3.006-2.831,4.118c-0.871,0.739-1.855,1.293-2.939,1.66
				c-0.578,0.194-1.174,0.292-1.787,0.292c-8.29-0.002-16.58-0.001-24.869-0.001c-0.086,0-0.173,0-0.289,0
				c0.051-0.171,0.089-0.313,0.135-0.453c0.531-1.644,1.065-3.287,1.59-4.933c0.055-0.173,0.137-0.214,0.306-0.213
				c7.406,0.004,14.811,0.004,22.217,0.004c0.049,0,0.1-0.006,0.148,0c0.122,0.017,0.174-0.036,0.21-0.151
				c1.046-3.251,2.095-6.502,3.145-9.753c0.106-0.331,0.216-0.661,0.323-0.992c0.017-0.051,0.03-0.103,0.052-0.182
				C108.851,26.694,101.291,26.694,93.699,26.694z"/>
			<path fill-rule="evenodd" clip-rule="evenodd" fill="#EF4023" d="M102.74,29.646c-0.025,0.102-0.041,0.176-0.064,0.247
				c-0.527,1.576-1.057,3.15-1.579,4.727c-0.055,0.166-0.125,0.23-0.312,0.23c-4.366-0.005-8.731-0.004-13.097-0.004
				c-0.027,0-0.055-0.002-0.083,0c-0.146,0.013-0.17-0.048-0.123-0.177c0.18-0.51,0.354-1.021,0.531-1.533
				c0.369-1.08,0.737-2.159,1.107-3.239c0.086-0.25,0.086-0.25,0.342-0.25c4.343,0,8.687,0,13.03,0
				C102.568,29.646,102.643,29.646,102.74,29.646z"/>
		</g>
	</g>
	<g display="inline">
		<path fill="#EF4023" d="M103.357,70.859c1.794,0,3.593,0,5.388,0c0.274,0.074,0.542,0.185,0.818,0.217
			c12.688,1.481,23.072,10.574,26.152,22.944c0.392,1.57,0.643,3.176,0.957,4.767c0,1.794,0,3.593,0,5.388
			c-0.078,0.312-0.187,0.619-0.224,0.934c-1.503,12.306-10.091,22.412-21.99,25.781c-1.867,0.527-3.808,0.816-5.714,1.213
			c-1.795,0-3.594,0-5.388,0c-0.272-0.075-0.541-0.185-0.817-0.216c-12.699-1.49-23.06-10.561-26.155-22.943
			c-0.392-1.571-0.64-3.178-0.955-4.769c0-1.795,0-3.594,0-5.388c0.077-0.312,0.188-0.618,0.226-0.933
			c1.513-12.355,10.113-22.428,22.105-25.81C99.594,71.526,101.491,71.249,103.357,70.859z M124.423,110.517
			c2.396,0,4.597-0.042,6.793,0.023c0.867,0.026,1.203-0.291,1.436-1.089c1.316-4.604,1.608-9.27,0.475-13.917
			c-2.654-10.914-9.409-18.166-20.293-20.875c-11.056-2.752-20.69,0.375-28.081,9.115c-6.363,7.524-7.845,16.289-5.226,25.75
			c0.105,0.38,0.546,0.936,0.845,0.945c2.396,0.078,4.795,0.043,7.335,0.043c0-7.82,0-15.503,0-23.188
			c0.128-0.082,0.259-0.165,0.386-0.247c5.998,5.862,11.872,11.853,17.912,17.86c0.515-0.469,1.004-0.884,1.459-1.34
			c5.186-5.202,10.366-10.413,15.558-15.61c0.332-0.331,0.756-0.567,1.401-1.044C124.423,95.014,124.423,102.675,124.423,110.517z
			 M82.637,116.155c4.556,7.872,14.469,14.075,26.056,12.934c8.61-0.847,19.561-7.779,20.586-12.919c-3.636,0-7.255,0-11.032,0
			c0-4.905,0-9.716,0-14.53c-0.132-0.079-0.267-0.159-0.4-0.239c-3.964,4.017-7.928,8.033-12.079,12.235
			c-4.024-4.056-8.058-8.122-12.215-12.311c0,4.982,0,9.854,0,14.83C89.884,116.155,86.347,116.155,82.637,116.155z"/>
		<g>
			<path fill="#EF4023" d="M106.052,73.961c15.174,0,27.519,12.346,27.519,27.521c0,15.174-12.345,27.52-27.519,27.52
				c-15.175,0-27.52-12.345-27.52-27.52C78.532,86.307,90.877,73.961,106.052,73.961 M106.052,70.237
				c-17.255,0-31.244,13.988-31.244,31.244c0,17.255,13.989,31.243,31.244,31.243c17.254,0,31.243-13.988,31.243-31.243
				C137.295,84.226,123.307,70.237,106.052,70.237L106.052,70.237z"/>
		</g>
	</g>
	<g display="inline">
		<g>
			<path fill="#FFFFFF" d="M33.388,130.863c-16.201,0-29.382-13.181-29.382-29.381c0-16.202,13.181-29.382,29.382-29.382
				c16.201,0,29.381,13.181,29.381,29.382C62.769,117.682,49.588,130.863,33.388,130.863z"/>
			<path fill="#EF4023" d="M33.388,73.961c15.174,0,27.519,12.346,27.519,27.521c0,15.174-12.345,27.52-27.519,27.52
				c-15.175,0-27.52-12.345-27.52-27.52C5.868,86.307,18.213,73.961,33.388,73.961 M33.388,70.237
				c-17.255,0-31.244,13.988-31.244,31.244c0,17.255,13.988,31.243,31.244,31.243c17.254,0,31.243-13.988,31.243-31.243
				C64.63,84.226,50.642,70.237,33.388,70.237L33.388,70.237z"/>
		</g>
		<g>
			<path fill-rule="evenodd" clip-rule="evenodd" fill="#EF4023" d="M33.339,79.029c4.426,7.292,8.805,14.507,13.206,21.76
				c-0.188,0.121-0.335,0.225-0.491,0.314c-4.188,2.408-8.376,4.813-12.562,7.225c-0.257,0.147-0.457,0.229-0.758,0.047
				c-4.127-2.476-8.262-4.936-12.395-7.4c-0.064-0.038-0.119-0.087-0.218-0.163C24.513,93.576,28.9,86.346,33.339,79.029z"/>
			<path fill-rule="evenodd" clip-rule="evenodd" fill="#EF4023" d="M47.102,103.891c-4.572,6.349-9.145,12.699-13.762,19.111
				c-4.584-6.367-9.125-12.673-13.666-18.98c0.024-0.037,0.048-0.074,0.072-0.111c0.21,0.119,0.421,0.236,0.628,0.36
				c4.053,2.417,8.107,4.829,12.151,7.259c0.379,0.228,0.66,0.245,1.053,0.017c4.308-2.497,8.626-4.974,12.942-7.455
				c0.171-0.098,0.347-0.183,0.52-0.274C47.061,103.841,47.081,103.865,47.102,103.891z"/>
		</g>
	</g>
</g>
<g id="Expertise_1_" display="none">
	<g display="inline">
		<path fill-rule="evenodd" clip-rule="evenodd" fill="#EF4023" d="M102.253,134.007c-31.035,0-61.94,0-93.174,0
			c0.369-17.167,5.922-31.513,17.701-41.885c16.104-14.177,33.665-15.797,51.59-4.903C95.515,97.64,102.752,118.246,102.253,134.007
			z"/>
		<g>
			<path fill="#EF4023" stroke="#F2F2F2" stroke-width="0.4635" stroke-miterlimit="10" d="M-8,94.262"/>
			<path fill="#EF4023" d="M53.925,75.2c14.634,0,26.495-11.865,26.495-26.5c0-14.63-11.861-26.492-26.495-26.492
				c-14.633,0-26.497,11.862-26.497,26.492C27.429,63.335,39.292,75.2,53.925,75.2z"/>
		</g>
	</g>
	
		<rect x="23.943" y="14.079" display="inline" fill-rule="evenodd" clip-rule="evenodd" fill="#FFFFFF" width="68.024" height="30.112"/>
	<path display="inline" fill-rule="evenodd" clip-rule="evenodd" fill="#EF4023" d="M25.176,25.531
		c3.861-1.332,7.501-2.591,11.144-3.842c5.908-2.032,11.806-4.091,17.731-6.065c1.962-0.652,2.608-2.281,1.134-4.233
		c-0.662-0.876-1.576-0.678-2.462-0.359c-4.353,1.561-8.709,3.119-13.062,4.683c-6.788,2.44-13.572,4.892-20.365,7.316
		c-0.394,0.141-0.897,0.242-1.274,0.122c-5.654-1.803-11.298-3.644-17.185-5.555c0.583-0.217,0.951-0.369,1.327-0.494
		C19.118,11.44,36.072,5.776,53.034,0.139c0.48-0.161,1.104-0.193,1.577-0.037c17.093,5.68,34.178,11.389,51.262,17.094
		c0.287,0.096,0.562,0.221,1.023,0.404c-3.906,1.308-7.623,2.556-11.344,3.799C82.1,25.891,68.643,30.373,55.199,34.885
		c-0.901,0.301-1.691,0.31-2.594,0c-8.684-2.975-17.383-5.911-26.078-8.86C26.145,25.894,25.766,25.748,25.176,25.531z"/>
	
		<path display="inline" fill-rule="evenodd" clip-rule="evenodd" fill="#EF4023" stroke="#EF4023" stroke-width="0.1992" stroke-miterlimit="10" d="
		M80.37,33.95c0,0.437,0,0.81,0,1.179c0,4.479-0.053,8.959,0.023,13.438c0.034,2.13-0.746,3.808-2.251,5.217
		c-1.92,1.798-4.229,2.937-6.67,3.814c-6.241,2.243-12.712,2.889-19.292,2.725c-5.78-0.144-11.437-0.966-16.84-3.127
		c-2.086-0.834-4.05-1.891-5.694-3.463c-1.466-1.401-2.223-3.052-2.189-5.141c0.073-4.48,0.021-8.959,0.021-13.438
		c0-0.375,0-0.75,0-1.254c1.864,0.616,3.617,1.194,5.368,1.778c6.713,2.24,13.418,4.492,20.142,6.696
		c0.562,0.185,1.29,0.189,1.853,0.005c8.253-2.715,16.493-5.476,24.737-8.224C79.801,34.081,80.034,34.035,80.37,33.95z"/>
	<path display="inline" fill-rule="evenodd" clip-rule="evenodd" fill="#EF4023" d="M22.841,70.681c-4.469,0-8.778,0-13.195,0
		c1.177-4.729,2.332-9.376,3.479-13.988c-3.102-2.224-4.141-4.75-3.209-7.749c0.546-1.764,1.614-3.16,3.284-3.951
		c0.74-0.349,0.869-0.765,0.865-1.495c-0.03-4.881-0.019-9.76-0.01-14.642c0.004-1.429,0.686-2.268,1.906-2.407
		c1.493-0.169,2.48,0.719,2.492,2.323c0.022,3.426,0.009,6.854,0.01,10.28c0.001,1.557,0.02,3.116-0.014,4.672
		c-0.013,0.587,0.138,0.921,0.723,1.18c2.426,1.072,3.636,3.042,3.72,5.639c0.078,2.431-0.75,4.502-2.988,5.751
		c-0.563,0.315-0.447,0.65-0.333,1.111c1.028,4.087,2.041,8.18,3.054,12.272C22.699,69.975,22.755,70.277,22.841,70.681z"/>
</g>
<g id="Diversification">
	<circle fill="none" stroke="#EF4023" stroke-width="6" stroke-miterlimit="10" cx="74.641" cy="15.171" r="11.171"/>
	<path fill="#EF4023" stroke="#EF4023" stroke-width="0.9387" stroke-miterlimit="10" d="M86.478,134.76
		c0,6.538-5.299,11.835-11.839,11.835c-6.535,0-11.835-5.298-11.835-11.835s5.301-11.836,11.835-11.836
		C81.179,122.924,86.478,128.223,86.478,134.76z"/>
	<path fill-rule="evenodd" clip-rule="evenodd" fill="#EF4023" stroke="#EF4023" stroke-width="3" stroke-miterlimit="10" d="
		M123.546,96.354c3.258,12.191,6.483,24.27,9.767,36.567c-12.261-3.283-24.341-6.518-36.535-9.784
		C105.718,114.193,114.571,105.336,123.546,96.354z M104.208,121.065c7.937,2.116,15.571,4.153,23.521,6.275
		c-2.108-7.94-4.141-15.597-6.253-23.553C115.641,109.627,110.037,115.232,104.208,121.065z"/>
	<path fill-rule="evenodd" clip-rule="evenodd" fill="#EF4023" stroke="#EF4023" stroke-width="0.8064" stroke-miterlimit="10" d="
		M25.493,48.239c-2.14-9.273-4.258-18.458-6.417-27.812c9.156,2.792,18.177,5.541,27.281,8.316
		C39.39,35.254,32.489,41.7,25.493,48.239z M40.706,30.114c-5.927-1.801-11.628-3.533-17.564-5.337
		c1.384,6.04,2.717,11.86,4.104,17.912C31.794,38.439,36.161,34.359,40.706,30.114z"/>
	<path fill-rule="evenodd" clip-rule="evenodd" fill="#EF4023" stroke="#EF4023" stroke-width="8.5569" stroke-miterlimit="10" d="
		M27.938,37.899c-0.685-2.967-1.362-5.906-2.053-8.899c2.929,0.893,5.816,1.772,8.73,2.66
		C32.385,33.745,30.177,35.806,27.938,37.899z M32.806,32.1c-1.897-0.577-3.722-1.13-5.621-1.708
		c0.443,1.932,0.87,3.796,1.313,5.732C29.954,34.764,31.352,33.458,32.806,32.1z"/>
	<circle fill="none" stroke="#EF4023" stroke-width="5" stroke-miterlimit="10" cx="119.034" cy="34.894" r="10.067"/>
	<circle fill="none" stroke="#EF4023" stroke-width="5.8764" stroke-miterlimit="10" cx="31.666" cy="113.654" r="10.067"/>
	<rect x="4" y="62.204" fill="none" stroke="#EF4023" stroke-width="6" stroke-miterlimit="10" width="22.376" height="22.456"/>
	
		<line fill="#EF4023" stroke="#EF4023" stroke-width="4" stroke-miterlimit="10" x1="74.641" y1="26.342" x2="74.641" y2="132.056"/>
	<line fill="none" stroke="#EF4023" stroke-width="4" stroke-miterlimit="10" x1="110.754" y1="42.559" x2="38.615" y2="106.382"/>
	<line fill="none" stroke="#EF4023" stroke-width="4" stroke-miterlimit="10" x1="122.67" y1="73.432" x2="26.376" y2="73.432"/>
	<line fill="none" stroke="#EF4023" stroke-width="4" stroke-miterlimit="10" x1="32.416" y1="35.333" x2="109.733" y2="109.204"/>
	<circle fill="none" stroke="#EF4023" stroke-width="5.8764" stroke-miterlimit="10" cx="74.641" cy="74.274" r="22.079"/>
	<g>
		<path fill="#EF4023" d="M74.639,90.859c-9.145,0-16.584-7.44-16.584-16.585c0-9.145,7.44-16.585,16.584-16.585
			c9.146,0,16.588,7.44,16.588,16.585C91.227,83.419,83.786,90.859,74.639,90.859z"/>
		<path fill="#FFFFFF" d="M74.639,60.897c7.391,0,13.38,5.989,13.38,13.377c0,7.39-5.989,13.377-13.38,13.377
			c-7.387,0-13.376-5.988-13.376-13.377C61.263,66.886,67.252,60.897,74.639,60.897 M74.639,54.481
			c-10.914,0-19.792,8.879-19.792,19.793s8.879,19.793,19.792,19.793c10.916,0,19.796-8.879,19.796-19.793
			S85.555,54.481,74.639,54.481L74.639,54.481z"/>
	</g>
	
		<rect x="122.67" y="59.984" fill="none" stroke="#EF4023" stroke-width="6" stroke-miterlimit="10" width="26.33" height="26.896"/>
</g>
<g id="Growth" display="none">
	
		<rect x="1.833" y="127.37" display="inline" fill-rule="evenodd" clip-rule="evenodd" fill="#EF4023" width="140.87" height="4.696"/>
	
		<rect x="1.833" y="17.248" display="inline" fill-rule="evenodd" clip-rule="evenodd" fill="#EF4023" width="4.581" height="111.297"/>
	<path display="inline" fill-rule="evenodd" clip-rule="evenodd" fill="#EF4023" d="M15.491,105.276
		c0.304-0.277,0.622-0.541,0.912-0.831C32.419,88.347,48.436,72.246,64.444,56.14c0.32-0.321,0.566-0.716,0.837-1.066
		c4.958,4.961,9.737,9.743,14.531,14.54c12.016-12.234,23.979-24.416,36.075-36.731c-4.941-4.945-10.146-10.152-15.545-15.556
		c0.581-0.041,0.852-0.076,1.123-0.076c13.582-0.002,27.163-0.002,40.744,0c0.165,0,0.33,0.023,0.495,0.036
		c0,14.205,0,28.41,0,42.615c-3.792-3.787-7.586-7.572-11.375-11.364c-1.404-1.405-2.795-2.825-4.395-4.443
		c-15.656,15.953-31.23,31.822-46.739,47.625c-5.037-5.023-9.824-9.796-14.778-14.74c-12.98,13.246-25.865,26.392-38.83,39.622
		c-2.231-2.259-4.169-4.242-6.132-6.202c-1.64-1.639-3.308-3.25-4.964-4.873C15.491,105.444,15.491,105.358,15.491,105.276z"/>
</g>
<g id="Flexibility" display="none">
	
		<circle display="inline" fill="none" stroke="#EF4023" stroke-width="6" stroke-miterlimit="10" cx="113.266" cy="111.581" r="19.166"/>
	
		<circle display="inline" fill="none" stroke="#EF4023" stroke-width="5" stroke-miterlimit="10" cx="23.537" cy="38.666" r="16.137"/>
	
		<circle display="inline" fill="none" stroke="#EF4023" stroke-width="6" stroke-miterlimit="10" cx="21.801" cy="89.509" r="17.874"/>
	
		<circle display="inline" fill="none" stroke="#EF4023" stroke-width="5" stroke-miterlimit="10" cx="59.852" cy="122.207" r="14.823"/>
	
		<circle display="inline" fill="none" stroke="#EF4023" stroke-width="5" stroke-miterlimit="10" cx="128.513" cy="57.876" r="15.247"/>
	
		<circle display="inline" fill="none" stroke="#EF4023" stroke-width="6" stroke-miterlimit="10" cx="80.145" cy="24.63" r="21.51"/>
	
		<line display="inline" fill="none" stroke="#EF4023" stroke-width="4" stroke-miterlimit="10" x1="35.689" y1="49.278" x2="98.468" y2="99.401"/>
	
		<line display="inline" fill="none" stroke="#EF4023" stroke-width="4" stroke-miterlimit="10" x1="114.149" y1="62.995" x2="40.096" y2="84.065"/>
	
		<line display="inline" fill="none" stroke="#EF4023" stroke-width="4" stroke-miterlimit="10" x1="21.8" y1="54.803" x2="21.8" y2="71.636"/>
	
		<line display="inline" fill="none" stroke="#EF4023" stroke-width="4" stroke-miterlimit="10" x1="33.173" y1="104.05" x2="47.019" y2="114.791"/>
	
		<line display="inline" fill="none" stroke="#EF4023" stroke-width="4" stroke-miterlimit="10" x1="74.675" y1="119.937" x2="94.1" y2="117.333"/>
	
		<line display="inline" fill="none" stroke="#EF4023" stroke-width="4" stroke-miterlimit="10" x1="118.98" y1="94.293" x2="124.11" y2="73.837"/>
	
		<line display="inline" fill="none" stroke="#EF4023" stroke-width="4" stroke-miterlimit="10" x1="117.331" y1="47.741" x2="100.89" y2="35.518"/>
	
		<line display="inline" fill="none" stroke="#EF4023" stroke-width="4" stroke-miterlimit="10" x1="58.634" y1="29.04" x2="40.096" y2="34.348"/>
	
		<line display="inline" fill="none" stroke="#EF4023" stroke-width="4" stroke-miterlimit="10" x1="86.306" y1="42.63" x2="103.81" y2="92.416"/>
	<circle display="inline" fill="#EF4023" cx="113.266" cy="111.582" r="9.457"/>
	<circle display="inline" fill="#EF4023" cx="80.145" cy="24.631" r="10.759"/>
	<circle display="inline" fill="#EF4023" cx="21.801" cy="89.51" r="7.877"/>
</g>
<g id="Flexibilty" display="none">
	<g display="inline">
		<circle fill="none" stroke="#EF4023" stroke-width="4.7119" stroke-miterlimit="10" cx="83.501" cy="69.261" r="20.647"/>
		<circle fill="none" stroke="#EF4023" stroke-width="4.7119" stroke-miterlimit="10" cx="17.24" cy="41.076" r="13.24"/>
		<circle fill="#EF4023" stroke="#EF4023" stroke-width="0.7559" stroke-miterlimit="10" cx="71.695" cy="12.334" r="10.335"/>
		<circle fill="none" stroke="#EF4023" stroke-width="4.7119" stroke-miterlimit="10" cx="82.016" cy="125.633" r="10.532"/>
		<circle fill="none" stroke="#EF4023" stroke-width="4.7119" stroke-miterlimit="10" cx="149.762" cy="19.814" r="14.229"/>
		<circle fill="#EF4023" stroke="#EF4023" stroke-width="0.7559" stroke-miterlimit="10" cx="32.569" cy="106.842" r="9.533"/>
		<circle fill="#EF4023" stroke="#EF4023" stroke-width="1.0135" stroke-miterlimit="10" cx="83.501" cy="69.261" r="12.51"/>
		
			<line fill="#050E2F" stroke="#EF4023" stroke-width="6.47" stroke-miterlimit="10" x1="100.436" y1="55.06" x2="138.011" y2="27.836"/>
		
			<line fill="#050E2F" stroke="#EF4023" stroke-width="4.5877" stroke-miterlimit="10" x1="134.039" y1="109.947" x2="100.436" y2="84.233"/>
		
			<line fill="#050E2F" stroke="#EF4023" stroke-width="2.9418" stroke-miterlimit="10" x1="65.317" y1="59.479" x2="29.052" y2="43.932"/>
		
			<line fill="#050E2F" stroke="#EF4023" stroke-width="2.9418" stroke-miterlimit="10" x1="69.271" y1="86.358" x2="38.884" y2="103.023"/>
		
			<line fill="#050E2F" stroke="#EF4023" stroke-width="2.9033" stroke-miterlimit="10" x1="83.5" y1="89.909" x2="82.018" y2="116.374"/>
		
			<line fill="#050E2F" stroke="#EF4023" stroke-width="3.1616" stroke-miterlimit="10" x1="73.61" y1="19.702" x2="82.018" y2="48.615"/>
		<circle fill="#EF4023" stroke="#EF4023" stroke-width="1.0135" stroke-miterlimit="10" cx="141.849" cy="116.237" r="12.51"/>
	</g>
</g>
<g id="Store_of_value" display="none">
	<path display="inline" fill="none" stroke="#EF4023" stroke-width="6" stroke-miterlimit="10" d="M3.774,4v126.406h123.632V4H3.774
		z"/>
	
		<line display="inline" fill="none" stroke="#EF4023" stroke-width="5" stroke-miterlimit="10" x1="3.774" y1="36.097" x2="127.803" y2="36.097"/>
	<g display="inline">
		<polyline fill="none" stroke="#EF4023" stroke-width="5" stroke-linecap="round" stroke-miterlimit="10" points="100.59,92.175 
			91.671,110.341 109.837,101.421 		"/>
		
			<rect x="100.007" y="71.978" transform="matrix(0.7071 -0.7071 0.7071 0.7071 -20.1145 110.0579)" fill="#EF4023" stroke="#EF4023" stroke-width="4" stroke-miterlimit="10" width="45.57" height="14.662"/>
		
			<polyline fill="none" stroke="#EF4023" stroke-width="4" stroke-linecap="round" stroke-linejoin="round" stroke-miterlimit="10" points="
			150.25,44.845 143.806,38.4 129.796,52.41 		"/>
		<path fill="#EF4023" d="M146.692,41.679l-23.144,23.144c-2.74,2.739-2.98,6.938-0.243,9.676l4.296,4.297
			c2.738,2.738,7.218,2.776,9.957,0.038l23.144-23.145c2.739-2.739,2.701-7.218-0.037-9.957l-4.297-4.296
			C153.63,38.697,149.431,38.939,146.692,41.679z M156.416,57.173l-1.681,1.681l-10.928-10.928l1.681-1.681L156.416,57.173z"/>
	</g>
	<g display="inline">
		<path fill="#EF4023" d="M51.882,109.102v8.119h-5.463v-7.896c-5.064-0.023-9.777-1.172-14.142-3.441V95.521
			c1.446,1.173,3.604,2.257,6.471,3.255c2.87,0.998,5.426,1.57,7.67,1.722V86.878c-5.836-2.168-9.821-4.52-11.953-7.052
			c-2.133-2.532-3.199-5.619-3.199-9.26c0-3.915,1.383-7.251,4.153-10.008c2.768-2.755,6.434-4.358,10.999-4.808v-6.959h5.463v6.811
			c5.262,0.25,9.19,1.097,11.786,2.543v10.102c-3.493-2.119-7.42-3.417-11.786-3.891v14.18c5.462,1.969,9.378,4.222,11.747,6.754
			c2.371,2.531,3.555,5.592,3.555,9.184c0,4.14-1.322,7.477-3.965,10.007C60.575,107.013,56.795,108.553,51.882,109.102z
			 M46.419,76.365V64.506c-3.466,0.623-5.199,2.431-5.199,5.424C41.22,72.499,42.953,74.645,46.419,76.365z M51.882,89.011v11.335
			c3.567-0.546,5.35-2.33,5.35-5.349C57.232,92.552,55.449,90.557,51.882,89.011z"/>
	</g>
</g>
<g id="Value" display="none">
	
		<path display="inline" fill-rule="evenodd" clip-rule="evenodd" fill="#EF4023" stroke="#EF4023" stroke-width="0.966" stroke-miterlimit="10" d="
		M73.919,144.405C50.373,112.018,26.964,79.819,3.473,47.507C14.111,32.5,24.713,17.546,35.357,2.531c25.571,0,51.133,0,76.857,0
		c10.654,14.895,21.36,29.863,32.162,44.965C120.94,79.731,97.503,111.967,73.919,144.405z M51.407,49.743
		c7.521,27.644,14.978,55.048,22.434,82.451c0.103-0.008,0.205-0.016,0.308-0.024c7.919-27.429,15.838-54.858,23.796-82.427
		C82.297,49.743,66.964,49.743,51.407,49.743z M10.439,49.742c19.379,26.655,38.55,53.023,57.72,79.391
		c0.107-0.057,0.214-0.113,0.321-0.169c-7.184-26.401-14.367-52.801-21.557-79.222C34.784,49.742,22.82,49.742,10.439,49.742z
		 M102.433,49.784c-7.587,26.273-15.171,52.538-22.755,78.803c0.101,0.045,0.201,0.092,0.301,0.138
		c19.077-26.24,38.154-52.481,57.392-78.941C125.606,49.784,114.15,49.784,102.433,49.784z M52.47,45.227
		c14.938,0,29.563,0,44.466,0C89.479,33.005,82.154,20.999,74.7,8.782C67.232,21.026,59.918,33.018,52.47,45.227z M35.664,9.573
		c-8.569,12.088-16.871,23.8-25.293,35.683c11.978,0,23.563,0,35.308,0C42.365,33.45,39.088,21.777,35.664,9.573z M112.062,9.744
		c-2.891,12.146-5.661,23.787-8.443,35.479c11.362,0,22.442,0,33.816,0C128.963,33.376,120.652,21.756,112.062,9.744z M39.392,6.865
		c3.298,11.745,6.538,23.28,9.9,35.256c7.287-11.94,14.334-23.49,21.515-35.256C60.226,6.865,49.969,6.865,39.392,6.865z
		 M99.963,41.887c2.865-12.032,5.593-23.487,8.33-34.98c-10.016,0-19.714,0-29.671,0C85.729,18.554,92.702,29.984,99.963,41.887z"/>
</g>
<g id="Ownership" display="none">
	<g display="inline">
		<path fill="#EF4023" stroke="#F2F2F2" stroke-width="0.4757" stroke-miterlimit="10" d="M115.164,74.95"/>
		<g>
			<path fill="#EF4023" d="M56.119,114.716c-0.224,5.493-4.747,9.879-10.294,9.879c-5.548,0-10.07-4.386-10.294-9.879H56.119z"/>
			<path fill="#EF4023" d="M51.607,55.387c-15.019,0-27.191-12.177-27.191-27.196C24.416,13.175,36.588,1,51.607,1
				c15.02,0,27.194,12.175,27.194,27.19C78.801,43.21,66.626,55.387,51.607,55.387z"/>
			<path fill="#EF4023" d="M53.848,85.633c-15.471,0-28.012,12.799-28.012,28.269c0,0.292,0.013,0.524,0.022,0.814H2
				c0.114-27.88,21.609-55.316,48.115-55.316c23.998,0,43.889,22.489,47.519,47.672H81.108
				C78.198,94.48,67.102,85.633,53.848,85.633z"/>
			<path fill="#EF4023" d="M35.52,114.29c0-5.692,4.614-10.307,10.305-10.307s10.305,4.614,10.305,10.307
				c0,0.143-0.005,0.284-0.011,0.426H35.531C35.525,114.574,35.52,114.433,35.52,114.29z"/>
			<path fill="none" stroke="#EF4023" stroke-width="5" stroke-miterlimit="10" d="M25.858,114.828
				c0.461,15.061,12.811,27.074,27.99,27.074c12.961,0,23.86-8.075,27.058-20.666h31.521v3.076v10.414h8.544v-10.343h9.893v10.343
				h8.993v-10.414v-3.076h7.479c2.995,0,5.421-3.188,5.421-6.971c0-3.782-2.426-6.97-5.421-6.97H97.634H81.108
				c-2.91-12.591-14.006-21.551-27.26-21.551c-15.471,0-28.012,12.631-28.012,28.1C25.836,114.137,25.849,114.538,25.858,114.828z
				 M35.531,114.716c-0.006-0.142-0.011-0.283-0.011-0.426c0-5.692,4.614-10.307,10.305-10.307s10.305,4.614,10.305,10.307
				c0,0.143-0.005,0.284-0.011,0.426c-0.224,5.493-4.747,9.879-10.294,9.879C40.276,124.595,35.754,120.209,35.531,114.716z"/>
		</g>
	</g>
</g>
<g id="Transparancy" display="none">
	
		<circle display="inline" fill="none" stroke="#EF4023" stroke-width="6" stroke-miterlimit="10" cx="54.104" cy="53.679" r="49.834"/>
	<circle display="inline" fill="none" cx="54.105" cy="52.679" r="38.839"/>
	
		<rect x="93.172" y="86.483" transform="matrix(0.7071 -0.7071 0.7071 0.7071 -39.5924 99.1903)" display="inline" fill="#EF4023" stroke="#EF4023" stroke-width="3.2739" stroke-miterlimit="10" width="13.538" height="21.812"/>
	<path display="inline" fill="none" d="M82.806,142.987c2.505,2.505,2.776,6.534,0.458,8.852l-6.145,6.145
		c-2.317,2.318-6.346,2.047-8.851-0.459L45.904,135.16c-2.506-2.505-2.659-6.416-0.342-8.732l6.146-6.146
		c2.316-2.318,6.227-2.166,8.731,0.341L82.806,142.987z"/>
	<path display="inline" fill="#EF4023" d="M49.207,76.827c-1.153,0-2.253-0.658-3.023-1.523L31.336,58.576
		c-1.487-1.667-1.342-4.272,0.327-5.76c1.67-1.488,4.229-1.36,5.718,0.306l11.625,13.023l24.157-30.836
		c1.379-1.763,3.924-2.075,5.685-0.695c1.76,1.382,2.069,3.925,0.69,5.685L52.393,75.107c-0.739,0.946-1.86,1.72-3.058,1.72
		C49.292,76.827,49.248,76.827,49.207,76.827z"/>
	<g display="inline">
		<polygon fill="none" points="75.355,64.583 54.231,76.727 33.106,64.583 33.106,40.292 54.231,29.988 75.355,40.292 		"/>
		<polyline fill="none" points="33.315,40.292 54.33,50.43 75.549,40.292 		"/>
	</g>
	
		<rect x="113.716" y="99.56" transform="matrix(0.7071 -0.7071 0.7071 0.7071 -48.8683 121.546)" display="inline" fill="none" stroke="#EF4023" stroke-width="7" stroke-miterlimit="10" width="17.138" height="40.405"/>
</g>
<g id="Spread" display="none">
	
		<circle display="inline" fill="none" stroke="#EF4023" stroke-width="7" stroke-miterlimit="10" cx="78.646" cy="24.727" r="19.728"/>
	<circle display="inline" fill="#EF4023" cx="78.646" cy="24.726" r="10.095"/>
	
		<circle display="inline" fill="none" stroke="#EF4023" stroke-width="7" stroke-miterlimit="10" cx="22.098" cy="113.367" r="17.098"/>
	
		<circle display="inline" fill="none" stroke="#EF4023" stroke-width="7" stroke-miterlimit="10" cx="79.522" cy="113.367" r="17.098"/>
	
		<circle display="inline" fill="none" stroke="#EF4023" stroke-width="7" stroke-miterlimit="10" cx="138.701" cy="113.367" r="17.098"/>
	
		<line display="inline" fill="none" stroke="#EF4023" stroke-width="6" stroke-miterlimit="10" x1="138.701" y1="96.269" x2="78.647" y2="44.546"/>
	
		<line display="inline" fill="none" stroke="#EF4023" stroke-width="6" stroke-miterlimit="10" x1="79.232" y1="96.269" x2="78.209" y2="44.228"/>
	
		<line display="inline" fill="none" stroke="#EF4023" stroke-width="6" stroke-miterlimit="10" x1="22.098" y1="96.269" x2="78.209" y2="44.228"/>
</g>
<g id="Security" display="none">
	<path display="inline" fill-rule="evenodd" clip-rule="evenodd" fill="#EF4023" d="M58.856,116.521c-3.281,0-6.185,0-9.421,0
		c0-2.431-0.1-4.76,0.031-7.074c0.111-1.969-0.409-3.048-2.416-3.964c-7.63-3.485-11.187-12.129-8.526-19.98
		c2.589-7.642,10.6-12.481,18.288-11.048c8.445,1.574,14.316,8.767,13.763,17.188c-0.427,6.5-3.703,11.292-9.645,14.016
		c-1.604,0.735-2.209,1.538-2.11,3.261C58.962,111.351,58.856,113.796,58.856,116.521z M54.16,97.791
		c3.865-0.006,7.087-3.275,7.04-7.141c-0.047-3.871-3.328-7.037-7.214-6.963c-3.741,0.071-6.86,3.235-6.892,6.99
		C47.062,94.548,50.29,97.797,54.16,97.791z"/>
	<path display="inline" fill="#EF4023" stroke="#FFFFFF" stroke-width="3.819" stroke-miterlimit="10" d="M54.129,0
		C33.847,0,17.208,16.531,17.208,36.683v15.721H6.659H1.385v5.24v73.366v5.24h5.274H101.6h5.275v-5.24V57.644v-5.24H101.6H91.051
		V36.683C91.051,16.531,74.412,0,54.129,0z M54.129,10.481c14.529,0,26.373,11.767,26.373,26.202v15.721H27.757V36.683
		C27.757,22.248,39.601,10.481,54.129,10.481z M11.934,62.884h84.392v62.885H11.934V62.884z"/>
</g>
<g id="Guides">
</g>
</svg>
