<?xml version="1.0" encoding="utf-8"?>
<!-- Generator: Adobe Illustrator 16.0.0, SVG Export Plug-In . SVG Version: 6.00 Build 0)  -->
<!DOCTYPE svg PUBLIC "-//W3C//DTD SVG 1.1//EN" "http://www.w3.org/Graphics/SVG/1.1/DTD/svg11.dtd">
<svg version="1.1" xmlns="http://www.w3.org/2000/svg" xmlns:xlink="http://www.w3.org/1999/xlink" x="0px" y="0px" width="200px"
	 height="200px" viewBox="0 0 200 200" enable-background="new 0 0 200 200" xml:space="preserve">
<g id="Fast" display="none">
	<g display="inline">
		<path fill-rule="evenodd" clip-rule="evenodd" fill="#EF4023" stroke="#EF4023" stroke-width="0.9694" stroke-miterlimit="10" d="
			M3.25,74.04c0.261-2.389,0.428-4.793,0.797-7.166c3.605-23.179,15.785-40.479,36.345-51.566
			c27.22-14.68,60.809-8.971,82.275,13.631c2.326,2.448,4.353,5.183,6.454,7.836c0.317,0.401,0.466,1.12,0.372,1.631
			c-0.389,2.085-0.904,4.148-1.406,6.37c-2.232-3.21-4.339-6.239-6.342-9.118c-4.977,2.185-9.716,4.263-14.6,6.406
			c0.346,1.16,0.754,2.472,1.127,3.794c2.303,8.162,3.607,16.483,3.97,24.956c0.044,0.999,0.246,1.99,0.353,2.988
			c0.021,0.201,0.013,0.462-0.098,0.611c-1.746,2.373-3.513,4.732-5.54,6.979c0-0.71,0-1.419,0-2.203c-10.586,0-21.065,0-31.669,0
			c0,8.831,0,17.659,0,26.549c2.582,0.18,5.145,0.357,8.134,0.564c-2.123,1.747-3.845,3.295-5.72,4.628
			c-0.579,0.411-1.576,0.237-2.557,0.351c0.597,1.771-0.818,2.386-1.918,3.194c-1.032,0.758-2.08,1.492-3.361,2.409
			c0-2.064,0-3.84,0-5.748c-8.522,0.228-16.763,1.244-25.005,3.403c1.781,4.642,4.137,8.863,7.012,13.016
			c-1.61,0.704-3.124,1.364-5.011,2.189c-2.434-4.524-4.84-8.992-7.421-13.788c-3.908,1.636-8.027,3.359-12.414,5.197
			c4.209,4.388,8.82,7.676,14.061,10.814c-2.541,0.578-4.719,1.107-6.917,1.542c-0.374,0.074-0.89-0.18-1.237-0.427
			C17.349,121.959,7.729,107.024,4.373,88.142C3.823,85.051,3.616,81.9,3.25,78.776C3.25,77.197,3.25,75.618,3.25,74.04z
			 M69.784,79.184c-10.633,0-21.107,0-31.749,0c0.215,10.383,1.742,20.444,4.979,30.395c8.811-2.369,17.701-3.524,26.771-3.797
			C69.784,96.876,69.784,88.077,69.784,79.184z M75.268,47.319c0,8.79,0,17.586,0,26.371c10.619,0,21.138,0,31.742,0
			c-0.224-10.398-1.746-20.465-4.914-30.138c-4.54,0.851-8.887,1.828-13.284,2.443C84.365,46.619,79.87,46.884,75.268,47.319z
			 M43.09,43.37c-2.809,7.13-5.804,26.037-4.841,30.317c10.509,0,21.017,0,31.498,0c0-8.898,0-17.69,0-26.573
			C60.67,46.911,51.831,45.703,43.09,43.37z M8.792,79.179c0.788,14.482,5.659,27.165,14.643,38.046
			c4.935-2.163,9.674-4.242,14.508-6.361c-3.376-10.209-4.967-20.843-5.266-31.686C24.645,79.179,16.812,79.179,8.792,79.179z
			 M23.538,35.753C16.005,42.846,7.387,65.224,9.01,73.687c7.867,0,15.73,0,23.69,0c0.267-10.896,1.911-21.479,5.239-31.621
			C33.079,39.935,28.34,37.858,23.538,35.753z M100.219,38.406c-2.06-5.055-4.497-9.714-7.718-13.938
			c-3.311-4.341-7.18-8.036-12.299-10.17c-1.547-0.645-3.209-1.019-4.924-1.549c0,9.879,0,19.41,0,29.03
			C83.764,41.628,91.998,40.538,100.219,38.406z M69.797,12.8c-1.479,0.416-2.877,0.701-4.193,1.198
			c-4.913,1.854-8.735,5.175-12.02,9.175c-3.732,4.544-6.483,9.648-8.738,15.23c8.271,2.133,16.517,3.236,24.951,3.367
			C69.797,32.069,69.797,22.572,69.797,12.8z M92.081,15.691c2.425,3.235,5.131,6.43,7.355,9.931
			c2.247,3.538,4.014,7.382,6.148,11.387c3.973-1.672,8.113-3.414,12.464-5.245C110.384,24.092,101.754,18.811,92.081,15.691z
			 M39.735,37.113c3.296-8.037,7.456-15.18,13.598-21.314c-6.673,0.949-22.49,10.69-26.117,16.076
			C31.393,33.623,35.515,35.348,39.735,37.113z"/>
		<path fill-rule="evenodd" clip-rule="evenodd" fill="#EF4023" stroke="#EF4023" stroke-width="0.9694" stroke-miterlimit="10" d="
			M68.171,145.648c-2.56-0.374-5.125-0.709-7.674-1.132c-1.578-0.261-3.131-0.655-4.955-1.043c3.206-1.607,6.092-3.078,9.008-4.488
			c0.348-0.168,0.878-0.093,1.286,0.017c1.291,0.34,2.562,0.749,3.815,1.123c0.09-0.185,0.133-0.23,0.126-0.267
			c-0.735-3.475,1.281-5.219,4.069-6.49c0.371-0.17,0.703-0.424,1.241-0.756c0,2.528,0,4.901,0,7.663
			c1.979-0.639,3.753-1.083,5.423-1.776c3.573-1.484,6.527-3.875,9.154-6.68c4.667-4.98,7.889-10.846,10.517-17.196
			c-0.469-0.172-0.88-0.326-1.076-0.398c3.286-3.316,6.62-6.684,9.944-10.041c-0.61,2.154-1.253,4.426-1.945,6.869
			c0.437,0.182,0.89,0.356,1.334,0.553c3.984,1.752,7.983,3.47,11.935,5.292c0.83,0.383,1.259,0.365,1.832-0.359
			c7.772-9.816,12.412-20.909,13.708-33.378c0.133-1.283,0.212-2.57,0.328-4c-2.556,0-4.952,0-7.658,0
			c1.172-1.856,2.173-3.494,3.249-5.085c0.149-0.221,0.659-0.264,1.005-0.275c1.058-0.035,2.119-0.013,3.43-0.013
			c-0.181-1.898-0.367-3.674-0.507-5.453c-0.038-0.485-0.071-1.045,0.124-1.463c1.12-2.388,2.308-4.744,3.67-7.512
			c0.39,1.791,0.751,3.228,1.012,4.683c6.625,37.001-16.943,72.156-53.739,80.099c-2.892,0.624-5.869,0.851-8.805,1.27
			c-0.407,0.058-0.808,0.157-1.213,0.238C73.93,145.648,71.05,145.648,68.171,145.648z M118.074,121.153
			c-4.459-1.859-8.576-3.575-12.762-5.32c-3.363,8.111-7.513,15.32-13.519,21.371C101.787,134.116,110.391,128.826,118.074,121.153z
			"/>
		<path fill-rule="evenodd" clip-rule="evenodd" fill="#EF4023" d="M5.841,109.748c1.267,2.189,2.54,4.332,3.738,6.516
			c0.199,0.36,0.069,0.901,0.088,1.36c0.124,3.003-0.114,6.076,0.442,8.997c1.417,7.444,6.523,11.787,14.115,12.637
			c7.347,0.825,14.31-0.797,21.123-3.247c12.124-4.362,22.975-11.019,33.121-18.85c17.542-13.542,32.499-29.472,44.121-48.411
			c5.189-8.455,9.468-17.335,11.741-27.061c1.268-5.423,1.879-10.896,0.411-16.388c-0.397-1.486-1.066-2.9-1.61-4.349
			c-0.126,0.019-0.252,0.039-0.378,0.056c-0.722,2.664-1.442,5.325-2.251,8.311c-3.71-8.83-7.291-17.354-11.057-26.319
			c8.931,3.745,17.476,7.33,26.345,11.049c-3.266,0.875-6.204,1.663-9.228,2.473c0.058,0.202,0.064,0.385,0.151,0.514
			c3.733,5.503,4.572,11.665,4.028,18.101c-0.915,10.846-4.952,20.687-10.04,30.133c-9.346,17.352-21.865,32.207-36.319,45.484
			c-11.471,10.538-23.947,19.664-38.046,26.426c-7.093,3.402-14.434,6.103-22.269,7.215c-5.527,0.786-11.026,0.783-16.339-1.237
			c-7.439-2.826-11.578-8.4-13.018-16.072c-1.072-5.71-0.415-11.37,0.865-16.978C5.602,109.988,5.731,109.891,5.841,109.748z"/>
	</g>
</g>
<g id="Protection">
	<path fill-rule="evenodd" clip-rule="evenodd" fill="#EF4023" d="M136.778,88.853c-0.296-0.502-0.592-1.005-0.889-1.508
		c-4.472-7.578-11.122-11.7-19.901-11.584c-9.026,0.118-15.781,4.417-20.008,12.494c-0.051,0.099-0.106,0.193-0.152,0.293
		c-0.676,1.465-1.562,2.852-3.338,2.816c-1.749-0.035-2.604-1.427-3.328-2.87c-3.305-6.58-8.516-10.796-15.751-12.294
		c-9.614-1.989-19.5,2.91-23.963,11.77c-0.812,1.61-1.573,3.409-3.66,3.382c-1.99-0.025-2.708-1.781-3.537-3.319
		c-4.279-7.941-11.006-12.201-19.98-12.278c-8.643-0.073-15.222,3.963-19.705,11.368c-0.313,0.517-0.599,1.051-0.916,1.566
		C1.605,88.76,1.456,88.767,1,88.932c0.314-9.376,2.481-18.115,6.381-26.454c3.943-8.428,9.436-15.703,16.313-21.961
		c21.792-19.833,53.947-23.123,79.945-8.006c12.619,7.337,21.863,17.845,27.861,31.142c3.587,7.95,5.579,16.302,5.818,25.02
		C137.139,88.733,136.958,88.792,136.778,88.853z"/>
	<path fill-rule="evenodd" clip-rule="evenodd" fill="#EF4023" stroke="#FFFFFF" stroke-miterlimit="10" d="M71.855,17.88
		c-1.959,0-3.717,0.055-5.464-0.047c-0.337-0.02-0.912-0.647-0.916-1.001c-0.06-4.531-0.091-9.065-0.008-13.595
		c0.034-1.86,1.486-3.206,3.148-3.236c1.688-0.03,3.198,1.325,3.22,3.132C71.895,7.935,71.855,12.737,71.855,17.88z"/>
	<rect x="65.993" y="3.179" fill-rule="evenodd" clip-rule="evenodd" fill="#EF4023" width="5.3" height="14.829"/>
	<g>
		<path fill-rule="evenodd" clip-rule="evenodd" fill="#EF4023" stroke="#FFFFFF" stroke-miterlimit="10" d="M65.43,80.071
			c2.233,0,4.209,0,6.319,0c0.041,0.529,0.108,1.005,0.108,1.483c0.007,16.984,0.033,33.97-0.003,50.954
			c-0.018,8.732-6.791,15.285-15.485,15.107c-8.442-0.173-15.391-8.288-14.238-16.628c0.209-1.511,1.57-2.71,3.094-2.727
			c1.537-0.016,2.903,1.135,3.101,2.676c0.125,0.985,0.105,1.989,0.252,2.97c0.703,4.67,4.476,7.584,9.325,7.237
			c4.169-0.298,7.501-3.986,7.507-8.452c0.027-16.82,0.016-33.639,0.019-50.458C65.43,81.579,65.43,80.924,65.43,80.071z"/>
		<rect x="61.32" y="77.974" fill-rule="evenodd" clip-rule="evenodd" fill="#FFFFFF" width="14.43" height="2.51"/>
	</g>
</g>
<g id="Blockchain" display="none">
	<g display="inline">
		<g>
			<polygon fill="none" stroke="#EF4023" stroke-width="3.8387" stroke-miterlimit="10" points="33.922,49.986 63.723,67.099 
				63.759,101.465 33.994,118.717 4.191,101.604 4.155,67.238 			"/>
			
				<line fill="none" stroke="#EF4023" stroke-width="3.4548" stroke-miterlimit="10" x1="63.954" y1="66.965" x2="33.067" y2="84.868"/>
			<line fill="none" stroke="#EF4023" stroke-width="3.3819" stroke-miterlimit="10" x1="33.213" y1="84.771" x2="4" y2="66.968"/>
			
				<line fill="none" stroke="#EF4023" stroke-width="3.3819" stroke-miterlimit="10" x1="33.213" y1="84.771" x2="33.998" y2="118.722"/>
		</g>
		<g>
			<polyline fill="none" stroke="#EF4023" stroke-width="3.8387" stroke-miterlimit="10" points="45.193,56.457 45.181,43.461 
				74.947,26.207 104.749,43.32 104.784,77.686 75.018,94.938 64.453,88.882 			"/>
			
				<line fill="none" stroke="#EF4023" stroke-width="3.4548" stroke-miterlimit="10" x1="104.804" y1="43.288" x2="73.917" y2="61.19"/>
			
				<line fill="none" stroke="#EF4023" stroke-width="3.3819" stroke-miterlimit="10" x1="74.238" y1="60.992" x2="45.024" y2="43.189"/>
			
				<line fill="none" stroke="#EF4023" stroke-width="3.3819" stroke-miterlimit="10" x1="74.238" y1="60.992" x2="75.022" y2="94.944"/>
		</g>
		<g>
			<polyline fill="none" stroke="#EF4023" stroke-width="3.8387" stroke-miterlimit="10" points="85.985,33.227 85.986,20.253 
				115.752,3 145.554,20.112 145.589,54.479 115.824,71.731 105.251,65.664 			"/>
			
				<line fill="none" stroke="#EF4023" stroke-width="3.4548" stroke-miterlimit="10" x1="145.515" y1="20.135" x2="114.96" y2="37.846"/>
			
				<line fill="none" stroke="#EF4023" stroke-width="3.3819" stroke-miterlimit="10" x1="115.018" y1="37.74" x2="85.803" y2="19.937"/>
			
				<line fill="none" stroke="#EF4023" stroke-width="3.3819" stroke-miterlimit="10" x1="115.018" y1="37.74" x2="115.802" y2="71.692"/>
		</g>
	</g>
</g>
<g id="Expertise_1_" display="none">
	<g display="inline">
		<path fill-rule="evenodd" clip-rule="evenodd" fill="#EF4023" d="M102.253,132.007c-31.035,0-61.94,0-93.174,0
			c0.369-17.167,5.922-31.513,17.701-41.885c16.104-14.177,33.665-15.797,51.59-4.903C95.515,95.64,102.752,116.246,102.253,132.007
			z"/>
		<g>
			<path fill="#EF4023" stroke="#F2F2F2" stroke-width="0.4635" stroke-miterlimit="10" d="M-8,93.262"/>
			<path fill="#EF4023" d="M53.925,74.2c14.634,0,26.495-11.865,26.495-26.5c0-14.63-11.861-26.492-26.495-26.492
				c-14.633,0-26.497,11.862-26.497,26.492C27.429,62.335,39.292,74.2,53.925,74.2z"/>
		</g>
	</g>
	
		<rect x="23.943" y="14.079" display="inline" fill-rule="evenodd" clip-rule="evenodd" fill="#FFFFFF" width="68.024" height="30.112"/>
	<path display="inline" fill-rule="evenodd" clip-rule="evenodd" fill="#EF4023" d="M25.176,25.531
		c3.861-1.332,7.501-2.591,11.144-3.842c5.908-2.032,11.806-4.091,17.731-6.065c1.962-0.652,2.608-2.281,1.134-4.233
		c-0.662-0.876-1.576-0.678-2.462-0.359c-4.353,1.561-8.709,3.119-13.062,4.683c-6.788,2.44-13.572,4.892-20.365,7.316
		c-0.394,0.141-0.897,0.242-1.274,0.122c-5.654-1.803-11.298-3.644-17.185-5.555c0.583-0.217,0.951-0.369,1.327-0.494
		C19.118,11.44,36.072,5.776,53.034,0.139c0.48-0.161,1.104-0.193,1.577-0.037c17.093,5.68,34.178,11.389,51.262,17.094
		c0.287,0.096,0.562,0.221,1.023,0.404c-3.906,1.308-7.623,2.556-11.344,3.799C82.1,25.891,68.643,30.373,55.199,34.885
		c-0.901,0.301-1.691,0.31-2.594,0c-8.684-2.975-17.383-5.911-26.078-8.86C26.145,25.894,25.766,25.748,25.176,25.531z"/>
	
		<path display="inline" fill-rule="evenodd" clip-rule="evenodd" fill="#EF4023" stroke="#EF4023" stroke-width="0.2" stroke-miterlimit="10" d="
		M80.445,31.895c0,0.439,0,0.813,0,1.184c0,4.498-0.053,8.997,0.023,13.494c0.034,2.139-0.749,3.824-2.26,5.24
		c-1.929,1.806-4.248,2.949-6.698,3.83c-6.267,2.252-12.766,2.901-19.374,2.737c-5.804-0.145-11.485-0.97-16.911-3.141
		c-2.095-0.838-4.067-1.899-5.718-3.478c-1.472-1.407-2.232-3.065-2.198-5.163c0.073-4.499,0.021-8.997,0.021-13.495
		c0-0.376,0-0.752,0-1.259c1.872,0.619,3.632,1.199,5.391,1.786c6.741,2.25,13.474,4.512,20.227,6.724
		c0.565,0.186,1.295,0.19,1.861,0.005c8.288-2.726,16.562-5.499,24.84-8.258C79.875,32.026,80.108,31.98,80.445,31.895z"/>
	<path display="inline" fill-rule="evenodd" clip-rule="evenodd" fill="#EF4023" d="M22.841,70.681c-4.469,0-8.778,0-13.195,0
		c1.177-4.729,2.332-9.376,3.479-13.988c-3.102-2.224-4.141-4.75-3.209-7.749c0.546-1.764,1.614-3.16,3.284-3.951
		c0.74-0.349,0.869-0.765,0.865-1.495c-0.03-4.881-0.019-9.76-0.01-14.642c0.004-1.429,0.686-2.268,1.906-2.407
		c1.493-0.169,2.48,0.719,2.492,2.323c0.022,3.426,0.009,6.854,0.01,10.28c0.001,1.557,0.02,3.116-0.014,4.672
		c-0.013,0.587,0.138,0.921,0.723,1.18c2.426,1.072,3.636,3.042,3.72,5.639c0.078,2.431-0.75,4.502-2.988,5.751
		c-0.563,0.315-0.447,0.65-0.333,1.111c1.028,4.087,2.041,8.18,3.054,12.272C22.699,69.975,22.755,70.277,22.841,70.681z"/>
</g>
<g id="Diversification" display="none">
	
		<rect x="25.64" y="72.023" display="inline" fill="#EF4023" stroke="#FFFFFF" stroke-miterlimit="10" width="100.975" height="5.459"/>
	
		<rect x="73.397" y="24.265" display="inline" fill="#EF4023" stroke="#FFFFFF" stroke-miterlimit="10" width="5.459" height="100.976"/>
	
		<rect x="25.639" y="72.024" transform="matrix(-0.75 0.6614 -0.6614 -0.75 182.6671 80.4685)" display="inline" fill="#EF4023" stroke="#FFFFFF" stroke-miterlimit="10" width="100.976" height="5.459"/>
	
		<rect x="25.639" y="73.139" transform="matrix(0.7092 0.705 -0.705 0.7092 75.6186 -31.6075)" display="inline" fill="#EF4023" stroke="#FFFFFF" stroke-miterlimit="10" width="100.976" height="5.459"/>
	
		<circle display="inline" fill="none" stroke="#EF4023" stroke-width="5.4593" stroke-miterlimit="10" cx="76.127" cy="74.752" r="22.544"/>
	
		<circle display="inline" fill="none" stroke="#EF4023" stroke-width="5.4593" stroke-miterlimit="10" cx="76.127" cy="14.406" r="11.406"/>
	
		<circle display="inline" fill="#EF4023" stroke="#EF4023" stroke-width="0.9584" stroke-miterlimit="10" cx="76.127" cy="136.511" r="12.086"/>
	
		<path display="inline" fill-rule="evenodd" clip-rule="evenodd" fill="#EF4023" stroke="#EF4023" stroke-width="2.1837" stroke-miterlimit="10" d="
		M126.062,97.297c3.326,12.448,6.62,24.78,9.973,37.336c-12.52-3.352-24.853-6.655-37.304-9.99
		C107.858,115.512,116.897,106.468,126.062,97.297z M106.316,122.528c8.104,2.161,15.898,4.241,24.016,6.407
		c-2.152-8.107-4.228-15.925-6.385-24.048C117.99,110.849,112.268,116.572,106.316,122.528z"/>
	
		<path display="inline" fill-rule="evenodd" clip-rule="evenodd" fill="#EF4023" stroke="#EF4023" stroke-width="0.8233" stroke-miterlimit="10" d="
		M30.029,50.211c-2.185-9.468-4.348-18.847-6.551-28.396c9.349,2.851,18.559,5.657,27.855,8.491
		C44.218,36.954,37.172,43.536,30.029,50.211z M45.562,31.706c-6.052-1.838-11.873-3.607-17.934-5.449
		c1.413,6.167,2.774,12.11,4.191,18.289C36.463,40.206,40.922,36.04,45.562,31.706z"/>
	
		<path display="inline" fill-rule="evenodd" clip-rule="evenodd" fill="#EF4023" stroke="#EF4023" stroke-width="8.737" stroke-miterlimit="10" d="
		M32.525,39.654c-0.699-3.029-1.391-6.031-2.096-9.086c2.991,0.912,5.938,1.81,8.914,2.716
		C37.066,35.413,34.812,37.518,32.525,39.654z M37.497,33.733c-1.937-0.589-3.8-1.154-5.739-1.744
		c0.452,1.973,0.888,3.876,1.341,5.853C34.584,36.453,36.012,35.12,37.497,33.733z"/>
	
		<circle display="inline" fill="none" stroke="#EF4023" stroke-width="5.4593" stroke-miterlimit="10" cx="121.454" cy="34.544" r="10.279"/>
	
		<circle display="inline" fill="none" stroke="#EF4023" stroke-width="5.4593" stroke-miterlimit="10" cx="32.248" cy="114.961" r="10.279"/>
	<g display="inline">
		<path fill="#EF4023" d="M76.125,91.687c-9.337,0-16.934-7.597-16.934-16.934s7.596-16.934,16.934-16.934
			c9.339,0,16.937,7.596,16.937,16.934S85.464,91.687,76.125,91.687z"/>
		<path fill="#FFFFFF" d="M76.125,61.094c7.546,0,13.661,6.115,13.661,13.658c0,7.545-6.115,13.659-13.661,13.659
			c-7.543,0-13.658-6.114-13.658-13.659C62.467,67.209,68.583,61.094,76.125,61.094 M76.125,54.543
			c-11.144,0-20.209,9.066-20.209,20.209s9.066,20.21,20.209,20.21c11.145,0,20.212-9.066,20.212-20.21S87.271,54.543,76.125,54.543
			L76.125,54.543z"/>
	</g>
	
		<rect x="126.615" y="59.153" display="inline" fill="none" stroke="#EF4023" stroke-width="5.4593" stroke-miterlimit="10" width="29.743" height="29.48"/>
	
		<rect x="4" y="63.354" display="inline" fill="none" stroke="#EF4023" stroke-width="5.4593" stroke-miterlimit="10" width="22.847" height="22.929"/>
</g>
<g id="Growth" display="none">
	
		<rect x="1.833" y="119.67" display="inline" fill-rule="evenodd" clip-rule="evenodd" fill="#EF4023" width="143.917" height="4.797"/>
	
		<rect x="1.833" y="7.167" display="inline" fill-rule="evenodd" clip-rule="evenodd" fill="#EF4023" width="4.681" height="113.705"/>
	<path display="inline" fill-rule="evenodd" clip-rule="evenodd" fill="#EF4023" d="M15.787,97.098
		c0.311-0.283,0.635-0.552,0.932-0.849c16.363-16.447,32.725-32.896,49.08-49.35c0.327-0.328,0.578-0.732,0.856-1.089
		c5.065,5.068,9.948,9.953,14.845,14.854c12.275-12.499,24.498-24.944,36.854-37.526c-5.048-5.051-10.365-10.372-15.881-15.892
		c0.594-0.042,0.871-0.078,1.147-0.078c13.875-0.002,27.75-0.002,41.625,0c0.168,0,0.337,0.023,0.505,0.036
		c0,14.513,0,29.025,0,43.538c-3.874-3.87-7.75-7.737-11.621-11.611c-1.435-1.436-2.855-2.886-4.49-4.539
		c-15.994,16.298-31.905,32.511-47.75,48.656C76.744,78.116,71.854,73.24,66.792,68.19c-13.261,13.532-26.424,26.962-39.67,40.478
		c-2.279-2.307-4.259-4.334-6.264-6.336c-1.676-1.674-3.379-3.319-5.071-4.978C15.787,97.269,15.787,97.183,15.787,97.098z"/>
</g>
<g id="Flexibilty" display="none">
	<g display="inline">
		<circle fill="none" stroke="#EF4023" stroke-width="4.7119" stroke-miterlimit="10" cx="83.501" cy="69.261" r="20.647"/>
		<circle fill="none" stroke="#EF4023" stroke-width="4.7119" stroke-miterlimit="10" cx="17.24" cy="41.076" r="13.24"/>
		<circle fill="#EF4023" stroke="#EF4023" stroke-width="0.7559" stroke-miterlimit="10" cx="71.695" cy="12.334" r="10.335"/>
		<circle fill="none" stroke="#EF4023" stroke-width="4.7119" stroke-miterlimit="10" cx="82.016" cy="125.633" r="10.532"/>
		<circle fill="none" stroke="#EF4023" stroke-width="4.7119" stroke-miterlimit="10" cx="149.762" cy="19.814" r="14.229"/>
		<circle fill="#EF4023" stroke="#EF4023" stroke-width="0.7559" stroke-miterlimit="10" cx="32.569" cy="106.842" r="9.533"/>
		<circle fill="#EF4023" stroke="#EF4023" stroke-width="1.0135" stroke-miterlimit="10" cx="83.501" cy="69.261" r="12.51"/>
		
			<line fill="#050E2F" stroke="#EF4023" stroke-width="6.47" stroke-miterlimit="10" x1="100.436" y1="55.06" x2="138.011" y2="27.836"/>
		
			<line fill="#050E2F" stroke="#EF4023" stroke-width="4.5877" stroke-miterlimit="10" x1="134.039" y1="109.947" x2="100.436" y2="84.233"/>
		
			<line fill="#050E2F" stroke="#EF4023" stroke-width="2.9418" stroke-miterlimit="10" x1="65.317" y1="59.479" x2="29.052" y2="43.932"/>
		
			<line fill="#050E2F" stroke="#EF4023" stroke-width="2.9418" stroke-miterlimit="10" x1="69.271" y1="86.358" x2="38.884" y2="103.023"/>
		
			<line fill="#050E2F" stroke="#EF4023" stroke-width="2.9033" stroke-miterlimit="10" x1="83.5" y1="89.909" x2="82.018" y2="116.374"/>
		
			<line fill="#050E2F" stroke="#EF4023" stroke-width="3.1616" stroke-miterlimit="10" x1="73.61" y1="19.702" x2="82.018" y2="48.615"/>
		<circle fill="#EF4023" stroke="#EF4023" stroke-width="1.0135" stroke-miterlimit="10" cx="141.849" cy="116.237" r="12.51"/>
	</g>
</g>
<g id="Store_of_value" display="none">
	<g display="inline">
		<path fill="none" stroke="#EF4023" stroke-width="6.3401" stroke-miterlimit="10" d="M3.774,4v126.406h123.632V4H3.774z"/>
		<line fill="none" stroke="#EF4023" stroke-width="6.3401" stroke-miterlimit="10" x1="1" y1="36.097" x2="127.803" y2="36.097"/>
		
			<line fill="none" stroke="#EF4023" stroke-width="4.7551" stroke-miterlimit="10" x1="4.17" y1="56.702" x2="127.803" y2="56.702"/>
		
			<line fill="none" stroke="#EF4023" stroke-width="4.7551" stroke-miterlimit="10" x1="26.36" y1="38.475" x2="26.36" y2="130.406"/>
		
			<line fill="none" stroke="#EF4023" stroke-width="4.7551" stroke-miterlimit="10" x1="112.745" y1="38.475" x2="112.745" y2="130.406"/>
		
			<line fill="none" stroke="#EF4023" stroke-width="4.7551" stroke-miterlimit="10" x1="77.874" y1="38.475" x2="77.874" y2="130.406"/>
		<g>
			<polyline fill="none" stroke="#EF4023" stroke-width="2.6748" stroke-linecap="round" stroke-miterlimit="10" points="
				102.337,90.517 93.418,108.683 111.584,99.763 			"/>
			
				<rect x="100.007" y="71.978" transform="matrix(0.7071 -0.7071 0.7071 0.7071 -20.1145 110.0579)" fill="#EF4023" stroke="#EF4023" stroke-width="0.9656" stroke-miterlimit="10" width="45.57" height="14.662"/>
			
				<polyline fill="none" stroke="#EF4023" stroke-width="3.9626" stroke-linecap="round" stroke-linejoin="round" stroke-miterlimit="10" points="
				150.25,44.845 143.806,38.4 129.796,52.41 			"/>
			<path fill="#EF4023" d="M146.692,41.679l-23.144,23.144c-2.74,2.739-2.98,6.938-0.243,9.676l4.296,4.297
				c2.738,2.738,7.218,2.776,9.957,0.038l23.144-23.145c2.739-2.739,2.701-7.218-0.037-9.957l-4.297-4.296
				C153.63,38.697,149.431,38.939,146.692,41.679z M156.416,57.173l-1.681,1.681l-10.928-10.928l1.681-1.681L156.416,57.173z"/>
		</g>
		<g>
			<path fill="#EF4023" d="M54.709,109.737v5.983h-4.026v-5.819c-3.732-0.017-7.206-0.863-10.422-2.536v-7.638
				c1.066,0.864,2.656,1.664,4.769,2.399c2.115,0.735,3.999,1.157,5.653,1.269V93.359c-4.301-1.598-7.238-3.331-8.809-5.197
				c-1.572-1.866-2.357-4.141-2.357-6.824c0-2.885,1.019-5.344,3.061-7.375c2.04-2.031,4.741-3.212,8.105-3.543v-5.128h4.026v5.019
				c3.877,0.184,6.773,0.809,8.686,1.875v7.444c-2.574-1.562-5.469-2.518-8.686-2.867v10.45c4.025,1.451,6.911,3.111,8.657,4.978
				c1.747,1.865,2.62,4.121,2.62,6.768c0,3.051-0.974,5.51-2.922,7.375C61.116,108.198,58.33,109.333,54.709,109.737z
				 M50.684,85.612v-8.74c-2.555,0.459-3.832,1.792-3.832,3.998C46.852,82.763,48.129,84.344,50.684,85.612z M54.709,94.931v8.354
				c2.629-0.403,3.943-1.717,3.943-3.942C58.652,97.541,57.338,96.07,54.709,94.931z"/>
		</g>
	</g>
</g>
<g id="Ownership" display="none">
	<g display="inline">
		<path fill="#EF4023" stroke="#F2F2F2" stroke-width="0.4757" stroke-miterlimit="10" d="M115.164,74.95"/>
		<g>
			<path fill="#EF4023" d="M56.119,114.716c-0.224,5.493-4.747,9.879-10.294,9.879c-5.548,0-10.07-4.386-10.294-9.879H56.119z"/>
			<path fill="#EF4023" d="M51.607,55.387c-15.019,0-27.191-12.177-27.191-27.196C24.416,13.175,36.588,1,51.607,1
				c15.02,0,27.194,12.175,27.194,27.19C78.801,43.21,66.626,55.387,51.607,55.387z"/>
			<path fill="#EF4023" d="M53.848,85.633c-15.471,0-28.012,12.799-28.012,28.269c0,0.292,0.013,0.524,0.022,0.814H2
				c0.114-27.88,21.609-55.316,48.115-55.316c23.998,0,43.889,22.489,47.519,47.672H81.108
				C78.198,94.48,67.102,85.633,53.848,85.633z"/>
			<path fill="#EF4023" d="M35.52,114.29c0-5.692,4.614-10.307,10.305-10.307s10.305,4.614,10.305,10.307
				c0,0.143-0.005,0.284-0.011,0.426H35.531C35.525,114.574,35.52,114.433,35.52,114.29z"/>
			<path fill="none" stroke="#EF4023" stroke-width="5" stroke-miterlimit="10" d="M25.858,114.828
				c0.461,15.061,12.811,27.074,27.99,27.074c12.961,0,23.86-8.075,27.058-20.666h31.521v3.076v10.414h8.544v-10.343h9.893v10.343
				h8.993v-10.414v-3.076h7.479c2.995,0,5.421-3.188,5.421-6.971c0-3.782-2.426-6.97-5.421-6.97H97.634H81.108
				c-2.91-12.591-14.006-21.551-27.26-21.551c-15.471,0-28.012,12.631-28.012,28.1C25.836,114.137,25.849,114.538,25.858,114.828z
				 M35.531,114.716c-0.006-0.142-0.011-0.283-0.011-0.426c0-5.692,4.614-10.307,10.305-10.307s10.305,4.614,10.305,10.307
				c0,0.143-0.005,0.284-0.011,0.426c-0.224,5.493-4.747,9.879-10.294,9.879C40.276,124.595,35.754,120.209,35.531,114.716z"/>
		</g>
	</g>
</g>
<g id="Transparancy" display="none">
	<g display="inline">
		<g>
			<circle fill="none" stroke="#EF4023" stroke-width="7" stroke-miterlimit="10" cx="58.461" cy="57.461" r="53.462"/>
			<circle fill="none" cx="58.462" cy="57.462" r="41.666"/>
			
				<rect x="101.609" y="92.141" transform="matrix(0.7071 -0.7071 0.7071 0.7071 -42.7754 107.9063)" fill="#EF4023" stroke="#EF4023" stroke-width="3.7655" stroke-miterlimit="10" width="14.524" height="26.897"/>
			<path fill="#EF4023" stroke="#EF4023" stroke-width="5.3792" stroke-miterlimit="10" d="M152.375,133.877
				c2.688,2.688,2.979,7.01,0.492,9.496l-6.593,6.592c-2.486,2.487-6.808,2.196-9.495-0.493l-23.992-23.993
				c-2.689-2.687-2.853-6.882-0.367-9.367l6.594-6.593c2.485-2.486,6.68-2.323,9.367,0.366L152.375,133.877z"/>
		</g>
		<path fill="#EF4023" d="M53.208,82.294c-1.237,0-2.417-0.706-3.243-1.633L34.037,62.715c-1.595-1.789-1.439-4.583,0.351-6.179
			c1.791-1.597,4.536-1.459,6.134,0.328l12.471,13.971l25.916-33.081c1.479-1.891,4.209-2.226,6.098-0.746
			c1.888,1.483,2.219,4.21,0.74,6.098L56.625,80.449c-0.793,1.015-1.995,1.845-3.28,1.845C53.3,82.294,53.252,82.294,53.208,82.294z
			"/>
		<g>
			<polygon fill="none" points="81.259,70.231 58.597,83.26 35.936,70.231 35.936,44.173 58.597,33.119 81.259,44.173 			"/>
			<polyline fill="none" points="36.159,44.173 58.704,55.049 81.467,44.173 			"/>
		</g>
	</g>
</g>
<g id="Spread" display="none">
	<g display="inline">
		<circle fill="none" stroke="#EF4023" stroke-width="7" stroke-miterlimit="10" cx="81.087" cy="25.381" r="20.381"/>
		<circle fill="#EF4023" cx="81.087" cy="25.38" r="10.429"/>
		<circle fill="none" stroke="#EF4023" stroke-width="7" stroke-miterlimit="10" cx="22.665" cy="116.959" r="17.665"/>
		<circle fill="none" stroke="#EF4023" stroke-width="7" stroke-miterlimit="10" cx="81.994" cy="116.959" r="17.665"/>
		<circle fill="none" stroke="#EF4023" stroke-width="7" stroke-miterlimit="10" cx="143.134" cy="116.959" r="17.665"/>
		<line fill="none" stroke="#EF4023" stroke-width="6" stroke-miterlimit="10" x1="143.133" y1="99.295" x2="81.088" y2="45.858"/>
		<line fill="none" stroke="#EF4023" stroke-width="6" stroke-miterlimit="10" x1="81.693" y1="99.295" x2="80.637" y2="45.528"/>
		<line fill="none" stroke="#EF4023" stroke-width="6" stroke-miterlimit="10" x1="22.666" y1="99.295" x2="80.637" y2="45.528"/>
	</g>
</g>
<g id="Security" display="none">
	<g display="inline">
		<path fill="#EF4023" d="M87.77,47.487V31.161C87.77,14.542,78.659,1,67.717,1h-32.68C24.098,1,14.193,14.542,14.193,31.161v16.327
			h12.686V34.225c0-12.415,5.441-22.109,13.055-22.109h22.748c7.614,0,12.911,9.694,12.911,22.109v13.262H87.77z"/>
		<path fill="#EF4023" d="M86.26,52.541H19.663C9.585,52.541,1,58.74,1,66.458v54.162c0,7.72,8.585,13.778,18.663,13.778H86.26
			c10.076,0,17.24-6.058,17.24-13.778V66.458C103.5,58.74,96.336,52.541,86.26,52.541z M56.817,93.498v25.236H43.624V93.02
			c-3.044-1.911-4.62-5.08-4.62-8.675c0-5.842,5.286-10.58,11.623-10.58c6.336,0,11.7,4.737,11.7,10.58
			C62.328,88.26,59.354,91.667,56.817,93.498z"/>
	</g>
</g>
<g id="Expertise" display="none">
</g>
</svg>
