<?xml version="1.0" encoding="utf-8"?>
<!-- Generator: Adobe Illustrator 16.0.0, SVG Export Plug-In . SVG Version: 6.00 Build 0)  -->
<!DOCTYPE svg PUBLIC "-//W3C//DTD SVG 1.1//EN" "http://www.w3.org/Graphics/SVG/1.1/DTD/svg11.dtd">
<svg version="1.1" xmlns="http://www.w3.org/2000/svg" xmlns:xlink="http://www.w3.org/1999/xlink" x="0px" y="0px" width="200px"
	 height="200px" viewBox="0 0 200 200" enable-background="new 0 0 200 200" xml:space="preserve">
<g id="Fast" display="none">
	<path display="inline" fill-rule="evenodd" clip-rule="evenodd" fill="#EF4023" d="M3.25,67.213c0.24-2.193,0.393-4.4,0.732-6.579
		c3.31-21.277,14.49-37.158,33.363-47.336c24.987-13.475,55.82-8.235,75.526,12.513c2.135,2.247,3.996,4.758,5.925,7.194
		c0.291,0.368,0.428,1.028,0.342,1.497c-0.358,1.915-0.83,3.808-1.292,5.847c-2.049-2.947-3.983-5.728-5.822-8.371
		c-4.568,2.005-8.919,3.914-13.402,5.881c0.318,1.065,0.693,2.269,1.035,3.482c2.114,7.493,3.312,15.131,3.645,22.909
		c0.04,0.917,0.226,1.827,0.324,2.743c0.02,0.185,0.012,0.425-0.089,0.561c-1.603,2.178-3.225,4.344-5.085,6.406
		c0-0.652,0-1.303,0-2.022c-9.718,0-19.337,0-29.071,0c0,8.106,0,16.21,0,24.371c2.37,0.166,4.723,0.328,7.467,0.518
		c-1.948,1.604-3.53,3.024-5.251,4.248c-0.532,0.377-1.446,0.218-2.347,0.323c0.548,1.625-0.751,2.19-1.76,2.932
		c-0.948,0.695-1.91,1.37-3.086,2.211c0-1.894,0-3.525,0-5.277c-7.823,0.209-15.387,1.143-22.954,3.125
		c1.635,4.261,3.798,8.135,6.438,11.948c-1.479,0.646-2.868,1.252-4.6,2.01c-2.235-4.153-4.443-8.254-6.812-12.657
		c-3.588,1.502-7.369,3.084-11.396,4.771c3.863,4.028,8.096,7.047,12.907,9.927c-2.332,0.531-4.332,1.017-6.349,1.415
		c-0.343,0.068-0.817-0.165-1.136-0.392C16.192,111.201,7.362,97.492,4.281,80.158c-0.504-2.838-0.695-5.73-1.03-8.598
		C3.25,70.111,3.25,68.661,3.25,67.213z M64.327,71.934c-9.761,0-19.375,0-29.145,0c0.198,9.532,1.599,18.768,4.57,27.902
		c8.089-2.174,16.249-3.234,24.575-3.485C64.327,88.176,64.327,80.098,64.327,71.934z M69.36,42.684c0,8.069,0,16.143,0,24.207
		c9.748,0,19.403,0,29.138,0c-0.206-9.545-1.604-18.787-4.511-27.665c-4.167,0.78-8.158,1.677-12.195,2.242
		C77.712,42.041,73.584,42.284,69.36,42.684z M39.822,39.058c-2.579,6.545-5.328,23.901-4.444,27.831c9.647,0,19.292,0,28.914,0
		c0-8.168,0-16.239,0-24.393C55.96,42.309,47.846,41.2,39.822,39.058z M8.337,71.93c0.723,13.295,5.194,24.937,13.441,34.926
		c4.53-1.986,8.881-3.894,13.318-5.839c-3.099-9.372-4.559-19.133-4.833-29.086C22.889,71.93,15.7,71.93,8.337,71.93z
		 M21.874,32.065C14.958,38.577,7.048,59.12,8.537,66.889c7.221,0,14.44,0,21.748,0c0.244-10.003,1.753-19.718,4.809-29.027
		C30.631,35.905,26.282,33.999,21.874,32.065z M92.265,34.502c-1.891-4.64-4.128-8.917-7.085-12.794
		c-3.04-3.985-6.591-7.376-11.291-9.336c-1.419-0.592-2.945-0.936-4.52-1.422c0,9.069,0,17.817,0,26.649
		C77.159,37.46,84.718,36.458,92.265,34.502z M64.338,10.996c-1.357,0.382-2.64,0.644-3.848,1.1
		c-4.511,1.703-8.019,4.751-11.035,8.423c-3.426,4.171-5.952,8.857-8.021,13.981c7.592,1.958,15.162,2.97,22.904,3.09
		C64.338,28.685,64.338,19.967,64.338,10.996z M84.794,13.65c2.226,2.97,4.71,5.902,6.752,9.116
		c2.062,3.248,3.684,6.776,5.644,10.453c3.647-1.536,7.447-3.134,11.442-4.814C101.596,21.362,93.674,16.514,84.794,13.65z
		 M36.742,33.315c3.025-7.377,6.844-13.935,12.482-19.565c-6.125,0.871-20.645,9.812-23.975,14.756
		C29.085,30.111,32.869,31.694,36.742,33.315z"/>
	<path display="inline" fill-rule="evenodd" clip-rule="evenodd" fill="#EF4023" d="M62.846,132.947
		c-2.35-0.343-4.704-0.651-7.045-1.039c-1.448-0.24-2.874-0.601-4.548-0.958c2.942-1.476,5.592-2.826,8.269-4.121
		c0.319-0.155,0.806-0.085,1.181,0.016c1.184,0.312,2.352,0.687,3.502,1.031c0.082-0.169,0.122-0.211,0.116-0.245
		c-0.675-3.19,1.175-4.791,3.735-5.957c0.34-0.156,0.646-0.39,1.14-0.694c0,2.32,0,4.5,0,7.034c1.816-0.586,3.445-0.994,4.978-1.63
		c3.28-1.362,5.992-3.558,8.403-6.132c4.284-4.572,7.241-9.956,9.654-15.786c-0.43-0.158-0.808-0.299-0.987-0.366
		c3.016-3.044,6.077-6.135,9.128-9.217c-0.561,1.978-1.151,4.062-1.786,6.306c0.401,0.167,0.817,0.327,1.225,0.507
		c3.657,1.608,7.328,3.186,10.956,4.858c0.761,0.351,1.155,0.334,1.682-0.33c7.134-9.011,11.394-19.194,12.584-30.64
		c0.123-1.178,0.195-2.359,0.301-3.672c-2.347,0-4.546,0-7.03,0c1.076-1.704,1.995-3.208,2.982-4.668
		c0.137-0.203,0.604-0.242,0.923-0.252c0.971-0.032,1.945-0.012,3.148-0.012c-0.166-1.742-0.336-3.372-0.466-5.005
		c-0.035-0.446-0.065-0.959,0.114-1.344c1.028-2.192,2.119-4.354,3.37-6.896c0.357,1.645,0.689,2.963,0.929,4.3
		c6.082,33.965-15.552,66.236-49.331,73.528c-2.655,0.573-5.388,0.781-8.083,1.166c-0.374,0.053-0.742,0.145-1.114,0.219
		C68.132,132.947,65.489,132.947,62.846,132.947z M108.655,110.46c-4.093-1.707-7.873-3.282-11.714-4.883
		c-3.088,7.446-6.897,14.063-12.41,19.618C93.703,122.36,101.603,117.505,108.655,110.46z"/>
	
		<path display="inline" fill-rule="evenodd" clip-rule="evenodd" fill="#EF4023" stroke="#EF4023" stroke-width="2" stroke-miterlimit="10" d="
		M5.628,99.991c1.164,2.01,2.332,3.977,3.432,5.981c0.182,0.331,0.063,0.827,0.081,1.249c0.114,2.756-0.105,5.578,0.406,8.259
		c1.3,6.833,5.989,10.82,12.957,11.6c6.745,0.758,13.137-0.732,19.391-2.98c11.129-4.004,21.09-10.116,30.404-17.304
		c16.104-12.431,29.833-27.055,40.502-44.439c4.763-7.761,8.691-15.914,10.778-24.841c1.164-4.979,1.726-10.003,0.377-15.044
		c-0.364-1.364-0.978-2.662-1.479-3.992c-0.116,0.018-0.232,0.035-0.347,0.051c-0.663,2.445-1.324,4.888-2.066,7.628
		c-3.405-8.105-6.693-15.929-10.149-24.16c8.197,3.438,16.042,6.729,24.184,10.143c-2.998,0.803-5.695,1.527-8.471,2.27
		c0.053,0.185,0.059,0.354,0.139,0.471c3.427,5.052,4.196,10.708,3.698,16.617c-0.84,9.956-4.546,18.989-9.217,27.661
		c-8.579,15.928-20.071,29.565-33.339,41.752c-10.53,9.674-21.982,18.052-34.925,24.258c-6.511,3.123-13.25,5.603-20.442,6.624
		c-5.074,0.721-10.122,0.719-14.999-1.136c-6.829-2.594-10.628-7.71-11.95-14.754c-0.984-5.241-0.38-10.437,0.794-15.584
		C5.409,100.212,5.528,100.123,5.628,99.991z"/>
</g>
<g id="Protection" display="none">
	<path display="inline" fill-rule="evenodd" clip-rule="evenodd" fill="#EF4023" d="M136.778,88.853
		c-0.296-0.502-0.592-1.005-0.889-1.508c-4.472-7.578-11.122-11.7-19.901-11.584c-9.026,0.118-15.781,4.417-20.008,12.494
		c-0.051,0.099-0.106,0.193-0.152,0.293c-0.676,1.465-1.562,2.852-3.338,2.816c-1.749-0.035-2.604-1.427-3.328-2.87
		c-3.305-6.58-8.516-10.796-15.751-12.294c-9.614-1.989-19.5,2.91-23.963,11.77c-0.812,1.61-1.573,3.409-3.66,3.382
		c-1.99-0.025-2.708-1.781-3.537-3.319c-4.279-7.941-11.006-12.201-19.98-12.278c-8.643-0.073-15.222,3.963-19.705,11.368
		c-0.313,0.517-0.599,1.051-0.916,1.566C1.605,88.76,1.456,88.767,1,88.932c0.314-9.376,2.481-18.115,6.381-26.454
		c3.943-8.428,9.436-15.703,16.313-21.961c21.792-19.833,53.947-23.123,79.945-8.006c12.619,7.337,21.863,17.845,27.861,31.142
		c3.587,7.95,5.579,16.302,5.818,25.02C137.139,88.733,136.958,88.792,136.778,88.853z"/>
	<path display="inline" fill-rule="evenodd" clip-rule="evenodd" fill="#EF4023" stroke="#FFFFFF" stroke-miterlimit="10" d="
		M71.855,17.88c-1.959,0-3.717,0.055-5.464-0.047c-0.337-0.02-0.912-0.647-0.916-1.001c-0.06-4.531-0.091-9.065-0.008-13.595
		c0.034-1.86,1.486-3.206,3.148-3.236c1.688-0.03,3.198,1.325,3.22,3.132C71.895,7.935,71.855,12.737,71.855,17.88z"/>
	
		<rect x="65.993" y="3.179" display="inline" fill-rule="evenodd" clip-rule="evenodd" fill="#EF4023" width="5.3" height="14.829"/>
	<g display="inline">
		<path fill-rule="evenodd" clip-rule="evenodd" fill="#EF4023" stroke="#FFFFFF" stroke-miterlimit="10" d="M65.43,80.071
			c2.233,0,4.209,0,6.319,0c0.041,0.529,0.108,1.005,0.108,1.483c0.007,16.984,0.033,33.97-0.003,50.954
			c-0.018,8.732-6.791,15.285-15.485,15.107c-8.442-0.173-15.391-8.288-14.238-16.628c0.209-1.511,1.57-2.71,3.094-2.727
			c1.537-0.016,2.903,1.135,3.101,2.676c0.125,0.985,0.105,1.989,0.252,2.97c0.703,4.67,4.476,7.584,9.325,7.237
			c4.169-0.298,7.501-3.986,7.507-8.452c0.027-16.82,0.016-33.639,0.019-50.458C65.43,81.579,65.43,80.924,65.43,80.071z"/>
		<rect x="61.32" y="77.974" fill-rule="evenodd" clip-rule="evenodd" fill="#FFFFFF" width="14.43" height="2.51"/>
	</g>
</g>
<g id="Blockchain" display="none">
	<g display="inline">
		<g>
			<polygon fill="none" stroke="#EF4023" stroke-width="4" stroke-miterlimit="10" points="36.871,56.693 68.731,74.989 
				68.77,111.73 36.946,130.176 5.084,111.879 5.045,75.138 			"/>
			<line fill="none" stroke="#EF4023" stroke-width="4" stroke-miterlimit="10" x1="68.978" y1="74.846" x2="35.956" y2="93.986"/>
			<line fill="none" stroke="#EF4023" stroke-width="4" stroke-miterlimit="10" x1="36.112" y1="93.883" x2="4.879" y2="74.849"/>
			<line fill="none" stroke="#EF4023" stroke-width="4" stroke-miterlimit="10" x1="36.112" y1="93.883" x2="36.951" y2="130.181"/>
		</g>
		<g>
			<polyline fill="none" stroke="#EF4023" stroke-width="4" stroke-miterlimit="10" points="48.92,63.611 48.907,49.717 
				80.731,31.271 112.593,49.566 112.631,86.308 80.807,104.754 69.511,98.278 			"/>
			<line fill="none" stroke="#EF4023" stroke-width="4" stroke-miterlimit="10" x1="112.652" y1="49.532" x2="79.63" y2="68.672"/>
			<line fill="none" stroke="#EF4023" stroke-width="4" stroke-miterlimit="10" x1="79.973" y1="68.46" x2="48.739" y2="49.426"/>
			<line fill="none" stroke="#EF4023" stroke-width="4" stroke-miterlimit="10" x1="79.973" y1="68.46" x2="80.812" y2="104.759"/>
		</g>
		<g>
			<polyline fill="none" stroke="#EF4023" stroke-width="4" stroke-miterlimit="10" points="92.532,38.776 92.533,24.905 
				124.357,6.459 156.219,24.754 156.257,61.496 124.434,79.941 113.131,73.455 			"/>
			
				<line fill="none" stroke="#EF4023" stroke-width="4" stroke-miterlimit="10" x1="156.178" y1="24.779" x2="123.511" y2="43.713"/>
			<line fill="none" stroke="#EF4023" stroke-width="4" stroke-miterlimit="10" x1="123.572" y1="43.601" x2="92.338" y2="24.566"/>
			<line fill="none" stroke="#EF4023" stroke-width="4" stroke-miterlimit="10" x1="123.572" y1="43.601" x2="124.41" y2="79.9"/>
		</g>
	</g>
</g>
<g id="Cryptocurrencies2" display="none">
	<g display="inline">
		<path fill-rule="evenodd" clip-rule="evenodd" fill="#EF4023" stroke="#EF4023" stroke-miterlimit="10" d="M72.101,114.5
			c3.002-1.756,4.849-1.505,7.184,0.899c0.508,0.523,1.036,1.03,1.52,1.575c1.884,2.126,1.804,4.969-0.356,6.814
			c-9.309,7.954-18.646,15.874-28.003,23.77c-2.182,1.841-4.966,1.509-6.791-0.675c-0.567-0.679-1.088-1.396-1.627-2.1
			c-1.902-2.483-1.955-4.229-0.129-6.936c-2.308-2.819-4.653-5.664-6.977-8.526c-3.152-3.882-6.347-7.732-9.413-11.681
			c-3.049-3.926-5.137-8.32-5.769-13.308c-0.129-1.013-0.596-1.25-1.538-1.235c-3.126,0.048-6.253,0.042-9.379,0.01
			c-5.115-0.052-8.769-3.686-8.771-8.786C2.035,66.342,2.033,38.36,2.044,10.378C2.046,4.79,5.648,1.18,11.24,1.168
			c11.932-0.024,23.865-0.011,35.797,0c5.592,0.005,9.23,3.572,9.247,9.153c0.034,11.463,0.014,22.928,0.015,34.391
			c0,5.367-0.039,10.735,0.033,16.101c0.012,0.867,0.322,1.857,0.814,2.57c3.608,5.229,7.274,10.421,10.972,15.587
			c2.14,2.99,3.191,6.259,3.061,9.947c-0.246,6.978-0.381,13.959-0.676,20.934C70.426,111.649,70.979,113.079,72.101,114.5z
			 M20.382,82.668c0-2.328,0.044-4.56-0.009-6.789c-0.121-5.002,2.751-8.649,7.595-9.568c4.435-0.842,8.499,1.609,10.13,6.138
			c1.11,3.082,2.165,6.184,3.298,9.258c0.148,0.403,0.605,0.979,0.932,0.988c3.003,0.077,6.008,0.045,9.062,0.045
			c0-20.457,0-40.746,0-61.057c-14.892,0-29.694,0-44.496,0c0,20.4,0,40.648,0,60.985C11.438,82.668,15.897,82.668,20.382,82.668z
			 M56.683,71.037c-0.129,0.034-0.259,0.068-0.388,0.103c0,0.543,0,1.086,0,1.629c0.002,7.087,0.017,14.173,0.002,21.26
			c-0.005,2.757-0.959,3.553-3.648,3.156c-2.936-0.433-5.86-0.98-8.811-1.251c-2.001-0.185-3.03-1.066-3.662-2.955
			c-2.11-6.313-4.35-12.584-6.564-18.863c-0.89-2.524-2.773-3.562-5.234-2.962c-2.091,0.51-3.273,2.102-3.188,4.553
			c0.263,7.602,0.762,15.201,0.824,22.804c0.057,7.073,2.462,13.075,6.953,18.424c4.689,5.585,9.261,11.27,13.875,16.918
			c0.256,0.314,0.425,0.698,0.658,1.089c7.137-5.897,13.95-11.528,20.793-17.184c-0.455-0.812-0.78-1.525-1.223-2.155
			c-1.16-1.651-1.465-3.42-1.371-5.446c0.331-7.129,0.572-14.267,0.651-21.403c0.02-1.756-0.272-3.784-1.163-5.231
			C62.55,79.238,59.544,75.182,56.683,71.037z M51.474,16.677c0-2.039-0.002-4.002,0.001-5.965c0.005-3.385-1.3-4.697-4.721-4.698
			C35.567,6.011,24.379,6.015,13.192,6.018c-0.937,0.001-1.876-0.035-2.809,0.031C8.638,6.171,7.15,7.246,7.009,8.958
			c-0.21,2.557-0.055,5.144-0.055,7.72C21.807,16.677,36.566,16.677,51.474,16.677z M20.943,87.648c-4.852,0-9.414,0-14.088,0
			c0,2.55-0.105,4.941,0.034,7.316c0.104,1.775,1.5,3.246,3.224,3.306c3.628,0.127,7.263,0.039,10.83,0.039
			C20.943,94.657,20.943,91.137,20.943,87.648z M75.289,118.215c-9.399,7.764-18.659,15.415-27.978,23.112
			c0.745,0.91,1.4,1.708,2.144,2.617c9.319-7.95,18.57-15.841,27.897-23.798C76.612,119.455,76.009,118.89,75.289,118.215z
			 M43.348,87.867c0.623,1.176,0.959,2.89,1.818,3.214c1.917,0.722,4.095,0.751,6.192,1.065c0-1.634,0-3.054,0-4.548
			c-2.451,0-4.782-0.004-7.114,0.007C44.056,87.606,43.867,87.711,43.348,87.867z"/>
		<path fill-rule="evenodd" clip-rule="evenodd" fill="#EF4023" d="M31.324,31.928c5.998,1.012,10.015,6.833,5.586,12.642
			c6.185,5.93,1.822,13.39-5.496,14.239c-0.653,2.538-1.359,3.358-2.785,3.234c-1.367-0.119-2.066-1.038-2.327-3.275
			c-1.862,0-3.773,0.127-5.654-0.057c-0.868-0.084-1.942-0.574-2.452-1.24c-0.93-1.215-0.04-3.036,1.482-3.43
			c0.437-0.113,0.905-0.108,1.48-0.17c0-5.247,0-10.444,0-15.641c0-0.46,0-0.92,0-1.42c-0.486-0.051-0.847-0.057-1.194-0.13
			c-1.348-0.284-2.144-1.105-2.079-2.505c0.064-1.408,0.947-2.194,2.318-2.265c1.609-0.083,3.226-0.025,4.839-0.041
			c0.407-0.004,0.814-0.051,1.197-0.077c0.44-2.312,1.168-3.175,2.607-3.153C30.303,28.661,30.993,29.551,31.324,31.928z
			 M26.126,47.398c0,2.285,0,4.376,0,6.568c0.497,0,0.854,0.001,1.21,0c1.196-0.002,2.408,0.117,3.581-0.047
			c0.945-0.132,1.947-0.446,2.741-0.96c1.853-1.201,1.834-3.405-0.015-4.617c-0.712-0.467-1.602-0.83-2.44-0.902
			C29.561,47.299,27.898,47.398,26.126,47.398z M26.09,36.777c0,1.98,0,3.777,0,5.645c1.693,0,3.298,0.127,4.873-0.033
			c1.812-0.184,3.03-1.47,2.999-2.832c-0.03-1.325-1.364-2.611-3.112-2.754C29.313,36.678,27.757,36.777,26.09,36.777z"/>
		<path fill-rule="evenodd" clip-rule="evenodd" fill="#EF4023" d="M29.105,8.962c1.349-0.001,2.7-0.04,4.047,0.009
			c1.514,0.055,2.511,1.058,2.503,2.417c-0.008,1.321-0.918,2.31-2.387,2.344c-2.748,0.063-5.5,0.064-8.248-0.004
			c-1.454-0.036-2.352-1.048-2.34-2.379c0.013-1.316,0.945-2.302,2.378-2.371C26.405,8.914,27.756,8.964,29.105,8.962z"/>
		
			<rect x="37.162" y="119.25" transform="matrix(-0.7766 0.63 -0.63 -0.7766 210.7479 195.5222)" fill-rule="evenodd" clip-rule="evenodd" fill="#FFFFFF" width="67.095" height="31.75"/>
		<polygon fill-rule="evenodd" clip-rule="evenodd" fill="#EF4023" points="45.812,141.102 75.47,117.822 71.702,113.049 
			42.044,136.329 		"/>
	</g>
</g>
<g id="Cryptocurrencies" display="none">
	<g display="inline">
		<g>
			<path fill="#FFFFFF" d="M33.388,61.625c-16.201,0-29.382-13.181-29.382-29.381c0-16.201,13.181-29.382,29.382-29.382
				c16.201,0,29.381,13.181,29.381,29.382C62.769,48.444,49.588,61.625,33.388,61.625z"/>
			<path fill="#EF4023" d="M33.388,4.724c15.174,0,27.519,12.346,27.519,27.52s-12.345,27.52-27.519,27.52
				c-15.175,0-27.52-12.345-27.52-27.52S18.213,4.724,33.388,4.724 M33.388,1C16.132,1,2.144,14.988,2.144,32.244
				c0,17.254,13.988,31.243,31.244,31.243c17.254,0,31.243-13.989,31.243-31.243C64.63,14.988,50.642,1,33.388,1L33.388,1z"/>
		</g>
		<g>
			<path fill="#EF4023" d="M47.285,35.822c-0.736-1.373-2.013-2.446-3.833-3.22c2.623-0.825,4.036-2.736,4.241-5.736
				c0.083-1.086-0.057-2.063-0.419-2.932c-0.363-0.869-0.924-1.614-1.687-2.234c-0.762-0.62-1.618-1.138-2.563-1.556
				s-2.05-0.792-3.312-1.121l1.031-6.125L37,12.268l-1.002,5.956c-0.648-0.109-1.64-0.26-2.974-0.451l1.011-6.004l-3.744-0.63
				l-1.032,6.126c-0.537-0.073-1.324-0.198-2.362-0.373L21.748,16l-0.671,3.986l2.698,0.454c1.232,0.208,1.86,0.88,1.886,2.018
				l-1.175,6.977c0.162,0.027,0.29,0.058,0.385,0.089l-0.389-0.065l-1.645,9.772c-0.269,0.804-0.808,1.139-1.618,1.002l-2.699-0.454
				l-1.502,4.322l4.863,0.818c0.308,0.052,0.752,0.132,1.334,0.237c0.583,0.106,1.019,0.183,1.312,0.232l-1.044,6.2l3.744,0.63
				l1.032-6.126c0.677,0.13,1.664,0.305,2.96,0.523l-1.026,6.102l3.743,0.629l1.043-6.198c1.34,0.159,2.539,0.236,3.599,0.229
				c1.059-0.005,2.091-0.119,3.094-0.341c1.005-0.223,1.871-0.565,2.598-1.026c0.729-0.46,1.372-1.094,1.933-1.899
				c0.56-0.806,0.994-1.775,1.302-2.906C48.092,38.992,48.02,37.196,47.285,35.822z M32.359,22.16
				c0.115,0.019,0.435,0.069,0.963,0.149c0.529,0.08,0.968,0.146,1.316,0.197c0.351,0.051,0.817,0.151,1.4,0.298
				c0.583,0.148,1.07,0.297,1.462,0.446c0.392,0.15,0.815,0.358,1.27,0.626c0.455,0.268,0.807,0.561,1.052,0.877
				c0.247,0.315,0.438,0.698,0.57,1.146c0.133,0.447,0.155,0.939,0.064,1.473c-0.075,0.454-0.218,0.856-0.427,1.204
				c-0.208,0.349-0.48,0.624-0.813,0.825c-0.333,0.203-0.671,0.371-1.011,0.505c-0.338,0.134-0.757,0.219-1.254,0.251
				c-0.497,0.033-0.929,0.052-1.297,0.057c-0.368,0.004-0.821-0.026-1.359-0.091c-0.54-0.066-0.948-0.119-1.225-0.156
				c-0.277-0.039-0.654-0.102-1.13-0.19c-0.478-0.09-0.756-0.14-0.837-0.154L32.359,22.16L32.359,22.16L32.359,22.16z
				 M39.795,40.437c-0.217,0.346-0.469,0.637-0.759,0.872c-0.29,0.234-0.65,0.423-1.083,0.568c-0.432,0.144-0.845,0.249-1.241,0.315
				c-0.395,0.068-0.864,0.105-1.406,0.112c-0.544,0.01-1.016,0-1.421-0.025c-0.403-0.027-0.882-0.075-1.438-0.143
				c-0.555-0.069-0.987-0.129-1.294-0.182c-0.308-0.051-0.696-0.121-1.165-0.208c-0.469-0.087-0.768-0.142-0.898-0.164l1.385-8.217
				c0.128,0.021,0.515,0.079,1.158,0.169c0.643,0.092,1.167,0.173,1.572,0.241c0.404,0.068,0.96,0.186,1.666,0.356
				c0.704,0.167,1.292,0.341,1.762,0.52c0.47,0.179,0.975,0.419,1.517,0.718c0.541,0.301,0.965,0.625,1.272,0.977
				c0.308,0.351,0.545,0.775,0.711,1.27c0.167,0.495,0.202,1.034,0.103,1.617C40.159,39.688,40.012,40.089,39.795,40.437z"/>
		</g>
	</g>
	<g display="inline">
		<g>
			<path fill="#FFFFFF" d="M106.052,61.625c-16.201,0-29.382-13.181-29.382-29.381c0-16.201,13.181-29.382,29.382-29.382
				c16.201,0,29.381,13.181,29.381,29.382C135.433,48.444,122.253,61.625,106.052,61.625z"/>
			<path fill="#EF4023" d="M106.052,4.724c15.174,0,27.519,12.346,27.519,27.52s-12.345,27.52-27.519,27.52
				c-15.175,0-27.52-12.345-27.52-27.52S90.877,4.724,106.052,4.724 M106.052,1C88.797,1,74.809,14.988,74.809,32.244
				c0,17.254,13.989,31.243,31.244,31.243s31.243-13.989,31.243-31.243C137.295,14.988,123.307,1,106.052,1L106.052,1z"/>
		</g>
		<g>
			<path fill-rule="evenodd" clip-rule="evenodd" fill="#EF4023" d="M93.699,26.694c0.07-0.224,0.13-0.416,0.192-0.608
				c0.509-1.576,1.022-3.15,1.525-4.728c0.055-0.173,0.125-0.24,0.317-0.24c8.367,0.005,16.735-0.002,25.102,0.012
				c1.378,0.002,2.485,0.59,3.23,1.777c0.326,0.518,0.455,1.107,0.539,1.708c0.141,1-0.126,1.932-0.431,2.868
				c-1.063,3.268-2.121,6.538-3.151,9.815c-0.525,1.671-1.515,3.006-2.831,4.118c-0.871,0.739-1.855,1.293-2.939,1.66
				c-0.578,0.194-1.174,0.292-1.787,0.292c-8.29-0.002-16.58-0.001-24.869-0.001c-0.086,0-0.173,0-0.289,0
				c0.051-0.171,0.089-0.313,0.135-0.453c0.531-1.644,1.065-3.287,1.59-4.933c0.055-0.173,0.137-0.214,0.306-0.213
				c7.406,0.004,14.811,0.004,22.217,0.004c0.049,0,0.1-0.006,0.148,0c0.122,0.017,0.174-0.036,0.21-0.151
				c1.046-3.251,2.095-6.502,3.145-9.753c0.106-0.331,0.216-0.661,0.323-0.992c0.017-0.051,0.03-0.103,0.052-0.182
				C108.851,26.694,101.291,26.694,93.699,26.694z"/>
			<path fill-rule="evenodd" clip-rule="evenodd" fill="#EF4023" d="M102.74,29.646c-0.025,0.102-0.041,0.176-0.064,0.247
				c-0.527,1.576-1.057,3.15-1.579,4.727c-0.055,0.166-0.125,0.23-0.312,0.23c-4.366-0.005-8.731-0.004-13.097-0.004
				c-0.027,0-0.055-0.002-0.083,0c-0.146,0.013-0.17-0.048-0.123-0.177c0.18-0.51,0.354-1.021,0.531-1.533
				c0.369-1.08,0.737-2.159,1.107-3.239c0.086-0.25,0.086-0.25,0.342-0.25c4.343,0,8.687,0,13.03,0
				C102.568,29.646,102.643,29.646,102.74,29.646z"/>
		</g>
	</g>
	<g display="inline">
		<path fill="#EF4023" d="M103.357,70.859c1.794,0,3.593,0,5.388,0c0.274,0.074,0.542,0.185,0.818,0.217
			c12.688,1.481,23.072,10.574,26.152,22.944c0.392,1.57,0.643,3.176,0.957,4.767c0,1.794,0,3.593,0,5.388
			c-0.078,0.312-0.187,0.619-0.224,0.934c-1.503,12.306-10.091,22.412-21.99,25.781c-1.867,0.527-3.808,0.816-5.714,1.213
			c-1.795,0-3.594,0-5.388,0c-0.272-0.075-0.541-0.185-0.817-0.216c-12.699-1.49-23.06-10.561-26.155-22.943
			c-0.392-1.571-0.64-3.178-0.955-4.769c0-1.795,0-3.594,0-5.388c0.077-0.312,0.188-0.618,0.226-0.933
			c1.513-12.355,10.113-22.428,22.105-25.81C99.594,71.526,101.491,71.249,103.357,70.859z M124.423,110.517
			c2.396,0,4.597-0.042,6.793,0.023c0.867,0.026,1.203-0.291,1.436-1.089c1.316-4.604,1.608-9.27,0.475-13.917
			c-2.654-10.914-9.409-18.166-20.293-20.875c-11.056-2.752-20.69,0.375-28.081,9.115c-6.363,7.524-7.845,16.289-5.226,25.75
			c0.105,0.38,0.546,0.936,0.845,0.945c2.396,0.078,4.795,0.043,7.335,0.043c0-7.82,0-15.503,0-23.188
			c0.128-0.082,0.259-0.165,0.386-0.247c5.998,5.862,11.872,11.853,17.912,17.86c0.515-0.469,1.004-0.884,1.459-1.34
			c5.186-5.202,10.366-10.413,15.558-15.61c0.332-0.331,0.756-0.567,1.401-1.044C124.423,95.014,124.423,102.675,124.423,110.517z
			 M82.637,116.155c4.556,7.872,14.469,14.075,26.056,12.934c8.61-0.847,19.561-7.779,20.586-12.919c-3.636,0-7.255,0-11.032,0
			c0-4.905,0-9.716,0-14.53c-0.132-0.079-0.267-0.159-0.4-0.239c-3.964,4.017-7.928,8.033-12.079,12.235
			c-4.024-4.056-8.058-8.122-12.215-12.311c0,4.982,0,9.854,0,14.83C89.884,116.155,86.347,116.155,82.637,116.155z"/>
		<g>
			<path fill="#EF4023" d="M106.052,73.961c15.174,0,27.519,12.346,27.519,27.521c0,15.174-12.345,27.52-27.519,27.52
				c-15.175,0-27.52-12.345-27.52-27.52C78.532,86.307,90.877,73.961,106.052,73.961 M106.052,70.237
				c-17.255,0-31.244,13.988-31.244,31.244c0,17.255,13.989,31.243,31.244,31.243c17.254,0,31.243-13.988,31.243-31.243
				C137.295,84.226,123.307,70.237,106.052,70.237L106.052,70.237z"/>
		</g>
	</g>
	<g display="inline">
		<g>
			<path fill="#FFFFFF" d="M33.388,130.863c-16.201,0-29.382-13.181-29.382-29.381c0-16.202,13.181-29.382,29.382-29.382
				c16.201,0,29.381,13.181,29.381,29.382C62.769,117.682,49.588,130.863,33.388,130.863z"/>
			<path fill="#EF4023" d="M33.388,73.961c15.174,0,27.519,12.346,27.519,27.521c0,15.174-12.345,27.52-27.519,27.52
				c-15.175,0-27.52-12.345-27.52-27.52C5.868,86.307,18.213,73.961,33.388,73.961 M33.388,70.237
				c-17.255,0-31.244,13.988-31.244,31.244c0,17.255,13.988,31.243,31.244,31.243c17.254,0,31.243-13.988,31.243-31.243
				C64.63,84.226,50.642,70.237,33.388,70.237L33.388,70.237z"/>
		</g>
		<g>
			<path fill-rule="evenodd" clip-rule="evenodd" fill="#EF4023" d="M33.339,79.029c4.426,7.292,8.805,14.507,13.206,21.76
				c-0.188,0.121-0.335,0.225-0.491,0.314c-4.188,2.408-8.376,4.813-12.562,7.225c-0.257,0.147-0.457,0.229-0.758,0.047
				c-4.127-2.476-8.262-4.936-12.395-7.4c-0.064-0.038-0.119-0.087-0.218-0.163C24.513,93.576,28.9,86.346,33.339,79.029z"/>
			<path fill-rule="evenodd" clip-rule="evenodd" fill="#EF4023" d="M47.102,103.891c-4.572,6.349-9.145,12.699-13.762,19.111
				c-4.584-6.367-9.125-12.673-13.666-18.98c0.024-0.037,0.048-0.074,0.072-0.111c0.21,0.119,0.421,0.236,0.628,0.36
				c4.053,2.417,8.107,4.829,12.151,7.259c0.379,0.228,0.66,0.245,1.053,0.017c4.308-2.497,8.626-4.974,12.942-7.455
				c0.171-0.098,0.347-0.183,0.52-0.274C47.061,103.841,47.081,103.865,47.102,103.891z"/>
		</g>
	</g>
</g>
<g id="Expertise_2_" display="none">
	<g display="inline">
		<path fill-rule="evenodd" clip-rule="evenodd" fill="#EF4023" stroke="#EF4023" stroke-width="1.2226" stroke-miterlimit="10" d="
			M115.299,110.677c-3.281,3.481-6.534,6.989-9.845,10.442c-3.702,3.854-7.926,4.351-12.603,1.143
			c-4.17-2.862-7.947-6.341-12.186-9.076c-11.603-7.491-24.38-12.129-37.312-16.211c-7.968-2.517-15.495-5.666-22.198-11.027
			c-19.795-15.833-24.831-45.83-10.77-65.17C25.615-0.168,53.103-4.533,76.013,10.513c9.434,6.195,15.746,14.881,19.93,25.202
			c3.393,8.37,6.902,16.708,10.702,24.92c4.258,9.196,10.059,17.448,17.208,24.823c5.51,5.68,5.533,10.236,0.463,15.643
			C121.316,104.299,118.306,107.487,115.299,110.677z M71.936,69.832c-1.826-3.62-4.004-7.268-5.513-11.138
			c-1.253-3.222-2.123-6.692-2.431-10.074c-0.37-4.083,2.464-7.311,6.333-8.275c3.602-0.896,6.962,0.491,9.376,4.169
			c1.141,1.738,2.138,3.661,2.756,5.616c2.65,8.387,3.76,16.866,1.92,25.307c-0.535,2.454,0.189,4.054,2.096,5.601
			c2.626,2.132,5.189,4.35,7.703,6.617c5.723,5.159,11.428,10.339,17.077,15.582c1.42,1.316,2.423,1.453,3.668,0.015
			c1.879-2.168,3.916-4.197,5.881-6.288c2.84-3.027,2.73-4.419-0.106-7.749c-3.773-4.43-7.751-8.751-11.02-13.523
			c-7.827-11.42-13.174-23.997-17.867-36.812c-2.3-6.284-5.512-12.05-10.077-17.053c-21.144-23.168-57.6-19.161-70.485,7.72
			C0.021,52.967,13.661,82.08,39.715,90.641c9.209,3.027,18.361,6.326,27.394,9.913c9.728,3.862,18.615,9.34,26.622,16.3
			c3.855,3.351,5.324,3.207,8.65-0.324c1.914-2.03,3.767-4.122,5.757-6.077c1.333-1.309,1.259-2.323-0.23-3.644
			c-8.42-7.472-16.811-14.979-25.164-22.527c-1.38-1.247-2.518-1.366-4.206-0.774c-6.089,2.137-12.354,3.49-18.985,1.081
			c-5.014-1.821-9.076-4.891-11.248-9.91c-2.384-5.512,0.404-10.121,6.271-10.17c2.576-0.021,5.293,0.473,7.794,1.288
			C65.686,66.879,68.854,68.506,71.936,69.832z M79.58,71.802c0.305-1.396,0.542-2.014,0.562-2.651
			c0.225-6.851-0.685-13.587-3.436-20.106c-0.355-0.837-0.844-1.66-1.421-2.371c-1.683-2.078-4.599-1.965-5.669,0.347
			c-0.507,1.092-0.74,2.543-0.507,3.751C70.592,58.44,74.909,64.849,79.58,71.802z M75.485,78.792
			c-1.623-1.22-2.896-2.268-4.256-3.18c-4.605-3.088-9.462-5.59-14.969-6.052c-1.162-0.098-2.947,0.323-3.354,1.112
			c-0.437,0.842,0.211,2.496,0.773,3.622c0.501,1.004,1.463,1.849,2.341,2.626C60.798,81.144,68.784,82.038,75.485,78.792z"/>
		<path fill-rule="evenodd" clip-rule="evenodd" fill="#EF4023" d="M111.755,132.206c-2.396,0.003-4.497-0.428-5.53-2.831
			c-1.001-2.335,0.014-4.228,1.448-5.771c6.661-7.18,13.401-14.284,20.122-21.406c0.271-0.288,0.608-0.512,0.925-0.753
			c1.55-1.178,3.443-2.042,5.165-0.706c1.417,1.1,2.243,2.979,2.827,4.728c1.509,0.562,3.322,0.785,4.437,1.785
			c1.057,0.949,1.378,2.718,2.134,4.369c-0.012-0.002,0.303,0.117,0.612,0.122c2.074,0.042,3.761,0.776,4.576,2.868
			c0.793,2.031,0.1,3.645-1.265,5.086c-2.575,2.714-5.076,5.498-7.643,8.221c-4.315,4.576-8.676,9.107-12.979,13.696
			c-1.382,1.472-2.878,2.579-5.105,1.936c-2.129-0.618-3.023-2.201-3.382-4.262c-0.082-0.47-0.71-1.127-1.192-1.271
			C112.65,136.749,112.458,136.576,111.755,132.206z M125.568,120.004c2.455-2.609,4.907-5.219,7.366-7.825
			c0.999-1.059,1.81-2.288,0.45-3.607c-1.383-1.34-2.567-0.447-3.562,0.611c-5.02,5.331-10.039,10.666-15.061,15.995
			c-0.994,1.055-1.843,2.29-0.472,3.6c1.352,1.29,2.577,0.475,3.586-0.6C120.436,125.451,123.002,122.729,125.568,120.004z
			 M127.345,125.837c-1.855,1.97-3.839,3.834-5.49,5.966c-0.559,0.722-0.767,2.451-0.276,3.124c1.005,1.381,2.407,0.737,3.356-0.257
			c3.738-3.91,7.496-7.807,11.059-11.873c0.552-0.633,0.12-2.136,0.143-3.235c-1.077,0.123-2.496-0.141-3.164,0.44
			C130.941,121.774,129.201,123.871,127.345,125.837z"/>
		<path fill-rule="evenodd" clip-rule="evenodd" fill="#EF4023" d="M129.724,142.07c6.097-6.477,11.721-12.451,17.653-18.753
			c1.501,5.183,0.269,9.376-2.48,12.979C141.396,140.881,136.531,142.89,129.724,142.07z"/>
	</g>
</g>
<g id="Expertise_1_" display="none">
	<path display="inline" fill-rule="evenodd" clip-rule="evenodd" fill="#EF4023" d="M106.289,133.594c-32.17,0-64.208,0-96.584,0
		c0.382-17.795,6.139-32.667,18.349-43.417C44.747,75.48,62.95,73.8,81.531,85.093C99.304,95.896,106.806,117.256,106.289,133.594z"
		/>
	<g display="inline">
		<path fill="#EF4023" stroke="#FCFCFC" stroke-width="6.9129" stroke-miterlimit="10" d="M-8,98.712"/>
		<g>
			<path fill="#EF4023" d="M56.191,82.409c-17.051,0-30.922-13.873-30.922-30.925c0-17.049,13.872-30.919,30.922-30.919
				c17.05,0,30.921,13.87,30.921,30.919C87.113,68.536,73.242,82.409,56.191,82.409z"/>
			<path fill="#FCFCFC" d="M56.191,24.021c15.17,0,27.465,12.296,27.465,27.462c0,15.17-12.295,27.469-27.465,27.469
				c-15.168,0-27.466-12.298-27.466-27.469C28.726,36.317,41.023,24.021,56.191,24.021 M56.191,17.108
				c-18.957,0-34.379,15.421-34.379,34.375c0,18.958,15.422,34.382,34.379,34.382c18.956,0,34.378-15.424,34.378-34.382
				C90.569,32.529,75.147,17.108,56.191,17.108L56.191,17.108z"/>
		</g>
	</g>
	
		<rect x="25.112" y="15.594" display="inline" fill-rule="evenodd" clip-rule="evenodd" fill="#FFFFFF" width="70.514" height="31.213"/>
	<path display="inline" fill-rule="evenodd" clip-rule="evenodd" fill="#EF4023" d="M26.391,27.465
		c4.002-1.38,7.776-2.686,11.552-3.982c6.124-2.106,12.238-4.241,18.38-6.288c2.034-0.676,2.704-2.365,1.176-4.388
		c-0.687-0.909-1.634-0.703-2.553-0.373c-4.512,1.617-9.028,3.233-13.539,4.854c-7.037,2.53-14.068,5.07-21.111,7.584
		c-0.408,0.146-0.93,0.251-1.321,0.126c-5.861-1.869-11.712-3.777-17.813-5.758c0.604-0.226,0.985-0.382,1.375-0.512
		c17.574-5.87,35.149-11.741,52.731-17.585c0.498-0.166,1.144-0.2,1.635-0.038c17.719,5.888,35.429,11.806,53.138,17.72
		c0.297,0.1,0.583,0.229,1.061,0.419c-4.049,1.356-7.902,2.65-11.759,3.938c-13.945,4.655-27.894,9.301-41.83,13.979
		c-0.935,0.312-1.753,0.321-2.689,0c-9.002-3.084-18.02-6.127-27.032-9.185C27.394,27.842,27.002,27.69,26.391,27.465z"/>
	
		<path display="inline" fill-rule="evenodd" clip-rule="evenodd" fill="#EF4023" stroke="#EF4023" stroke-width="0.2065" stroke-miterlimit="10" d="
		M83.604,36.192c0,0.454,0,0.84,0,1.222c0,4.643-0.055,9.287,0.024,13.93c0.035,2.208-0.773,3.947-2.333,5.408
		c-1.991,1.864-4.384,3.044-6.915,3.953c-6.469,2.325-13.178,2.995-19.999,2.825c-5.991-0.149-11.855-1.001-17.457-3.242
		c-2.163-0.865-4.198-1.96-5.902-3.59c-1.52-1.452-2.304-3.164-2.269-5.329c0.075-4.644,0.021-9.288,0.021-13.93
		c0-0.388,0-0.777,0-1.3c1.932,0.639,3.75,1.238,5.565,1.843c6.958,2.322,13.909,4.657,20.879,6.941
		c0.583,0.191,1.337,0.196,1.921,0.006c8.555-2.814,17.097-5.677,25.642-8.525C83.014,36.329,83.256,36.281,83.604,36.192z"/>
	<path display="inline" fill-rule="evenodd" clip-rule="evenodd" fill="#EF4023" d="M23.97,74.268c-4.632,0-9.099,0-13.677,0
		c1.22-4.902,2.417-9.719,3.606-14.5c-3.215-2.305-4.292-4.924-3.327-8.032c0.566-1.828,1.673-3.275,3.404-4.096
		c0.767-0.362,0.901-0.792,0.896-1.549c-0.031-5.06-0.02-10.118-0.01-15.178c0.004-1.481,0.711-2.351,1.976-2.495
		c1.547-0.176,2.571,0.746,2.583,2.408c0.023,3.551,0.009,7.104,0.01,10.656c0.001,1.614,0.021,3.23-0.014,4.844
		c-0.014,0.608,0.143,0.954,0.749,1.223c2.516,1.111,3.769,3.153,3.856,5.845c0.08,2.52-0.778,4.667-3.097,5.962
		c-0.584,0.326-0.464,0.674-0.345,1.151c1.065,4.237,2.115,8.479,3.165,12.721C23.822,73.536,23.881,73.849,23.97,74.268z"/>
</g>
<g id="Expertise" display="none">
	
		<rect x="73.932" y="83.952" transform="matrix(0.5647 -0.8253 0.8253 0.5647 -37.4212 99.8895)" display="inline" fill-rule="evenodd" clip-rule="evenodd" fill="#FFFFFF" width="4.11" height="2.938"/>
	
		<rect x="95.493" y="106.171" transform="matrix(0.7604 -0.6494 0.6494 0.7604 -52.4683 111.4814)" display="inline" fill-rule="evenodd" clip-rule="evenodd" fill="#FCFCFC" width="58.752" height="41.372"/>
	<path display="inline" fill-rule="evenodd" clip-rule="evenodd" fill="#EF4023" d="M104.772,128.223
		c-2.395-0.09-4.478-0.601-5.417-3.042c-0.91-2.372,0.178-4.224,1.67-5.71c6.934-6.917,13.943-13.755,20.935-20.612
		c0.281-0.278,0.627-0.488,0.954-0.717c1.594-1.117,3.519-1.908,5.188-0.506c1.374,1.155,2.126,3.063,2.642,4.833
		c1.486,0.621,3.289,0.913,4.365,1.956c1.02,0.989,1.272,2.77,1.964,4.448c-0.012-0.002,0.298,0.129,0.607,0.146
		c2.07,0.123,3.728,0.921,4.461,3.042c0.714,2.06-0.041,3.646-1.461,5.034c-2.678,2.613-5.285,5.298-7.955,7.92
		c-4.489,4.405-9.022,8.765-13.499,13.184c-1.438,1.418-2.976,2.466-5.176,1.737c-2.104-0.7-2.936-2.317-3.215-4.389
		c-0.063-0.474-0.666-1.155-1.141-1.316C105.49,132.797,105.306,132.617,104.772,128.223z M119.046,116.565
		c2.555-2.513,5.106-5.026,7.664-7.535c1.039-1.019,1.897-2.216,0.589-3.586c-1.33-1.393-2.547-0.547-3.583,0.472
		c-5.223,5.132-10.445,10.271-15.669,15.401c-1.033,1.016-1.93,2.217-0.611,3.58c1.302,1.341,2.556,0.574,3.607-0.462
		C113.707,121.809,116.377,119.188,119.046,116.565z M120.596,122.462c-1.931,1.897-3.984,3.684-5.717,5.75
		c-0.586,0.7-0.86,2.419-0.396,3.11c0.951,1.419,2.376,0.83,3.363-0.126c3.886-3.763,7.793-7.511,11.509-11.436
		c0.577-0.612,0.203-2.129,0.269-3.227c-1.082,0.081-2.489-0.237-3.179,0.317C124.347,118.542,122.527,120.569,120.596,122.462z"/>
	<path display="inline" fill-rule="evenodd" clip-rule="evenodd" fill="#EF4023" d="M122.345,138.775
		c6.342-6.236,12.195-11.988,18.365-18.056c1.3,5.237-0.093,9.379-2.98,12.874C134.056,138.039,129.116,139.857,122.345,138.775z"/>
	<path display="inline" fill="none" d="M59.435,70.921c-1.47-0.75-3.009-1.468-4.6-1.859c-2.582-0.637-4.406,0.78-4.612,3.422
		c-0.229,2.981,0.988,5.487,3.059,7.492c3.932,3.812,11.052,4.706,15.892,2.14c1.422-0.754,2.596-1.782,3.413-3.192
		c-0.065-0.075-0.094-0.13-0.14-0.161C68.218,75.969,63.955,73.227,59.435,70.921z"/>
	<path display="inline" fill="none" d="M77.119,47.006c-0.627-1.032-1.381-1.941-2.677-2.138c-1.367-0.208-1.857,0.188-1.974,1.557
		c-0.02,0.241-0.049,0.487-0.014,0.721c0.207,1.426,0.311,2.883,0.672,4.27c1.083,4.148,2.306,8.259,3.403,12.404
		c1.084,4.101,1.994,8.234,1.537,12.566c0.03-0.086,0.068-0.172,0.089-0.26c1.719-7.505,2.242-15.068,1.073-22.704
		C78.882,51.174,78.317,48.978,77.119,47.006z"/>
	<path display="inline" fill="#EF4023" d="M96.738,92.724c-3.822-4.012-8.108-7.471-12.517-10.793
		c-1.001-0.756-2.013-1.501-2.943-2.191c0.262-0.533,0.579-0.967,0.7-1.45c2.123-8.531,2.751-17.147,1.359-25.854
		c-0.498-3.108-1.357-6.125-3.312-8.68c-1.867-2.44-4.317-3.617-7.423-3.032c-2.099,0.398-3.451,1.695-4.065,3.743
		c-0.428,1.433-0.397,2.896-0.222,4.359c0.416,3.462,1.469,6.775,2.427,10.107c1.124,3.911,2.345,7.803,2.903,11.85
		c0.172,1.242,0.212,2.503,0.325,3.9c-0.451-0.285-0.737-0.462-1.022-0.647c-4.41-2.851-8.858-5.636-13.602-7.915
		c-1.491-0.717-3.03-1.276-4.695-1.42c-4.39-0.375-7.977,2.3-8.558,6.667c-0.698,5.256,1.416,9.503,5.461,12.699
		c4.094,3.231,8.904,4.206,14.032,3.548c3.855-0.493,7.187-2.065,9.693-5.143c0.299-0.367,0.569-0.756,0.81-1.081
		c8.667,5.443,15.96,12.386,22.912,19.702l3.12-2.808C100.315,96.441,98.516,94.592,96.738,92.724z M69.173,82.116
		c-4.84,2.566-11.96,1.672-15.892-2.14c-2.071-2.005-3.289-4.511-3.059-7.492c0.206-2.643,2.03-4.06,4.612-3.422
		c1.591,0.391,3.13,1.108,4.6,1.859c4.521,2.306,8.783,5.048,13.011,7.843c0.046,0.031,0.075,0.086,0.14,0.161
		C71.77,80.334,70.595,81.362,69.173,82.116z M78.155,76.125c-0.021,0.088-0.059,0.174-0.089,0.26
		c0.458-4.332-0.453-8.466-1.537-12.566c-1.097-4.145-2.32-8.255-3.403-12.404c-0.361-1.386-0.465-2.843-0.672-4.27
		c-0.035-0.234-0.005-0.48,0.014-0.721c0.117-1.369,0.607-1.765,1.974-1.557c1.296,0.197,2.05,1.106,2.677,2.138
		c1.199,1.972,1.764,4.168,2.109,6.415C80.397,61.056,79.874,68.619,78.155,76.125z"/>
	
		<rect x="103.234" y="83.077" transform="matrix(-0.6967 -0.7173 0.7173 -0.6967 106.485 253.6549)" display="inline" fill="#EF4023" width="7.256" height="42.482"/>
	<path display="inline" fill="#EF4023" stroke="#EF4023" stroke-width="3" stroke-miterlimit="10" d="M109.721,68.109
		c-2.605-4.207-4.821-8.575-6.288-13.333c-1.464-4.747-3.058-9.458-4.767-14.123c-2.756-7.521-6.277-14.655-11.195-21.04
		c-3.757-4.878-8.228-8.937-13.672-11.847C60.91,0.879,47.646-0.15,34.017,5.42c-5.035,2.059-9.541,5.003-13.701,8.494
		c-3.257,2.73-6.248,5.716-8.776,9.137c-5.923,8.007-8.831,17.031-8.954,26.953C2.493,57.447,3.96,64.598,6.89,71.439
		c1.852,4.326,4.21,8.345,7.508,11.741c4.733,4.876,10.18,8.798,16.214,11.915c6.154,3.176,12.613,5.592,19.295,7.341
		c6.956,1.82,13.681,4.169,20.015,7.596c6.538,3.537,12.746,7.573,18.549,12.224c1.061,0.852,2.135,0.846,3.128-0.119
		c0.634-0.616,1.265-1.234,1.899-1.85l-2.776-3.218c-0.181,0.177-0.363,0.354-0.544,0.531c-0.254,0.245-0.417,0.248-0.702,0.028
		c-4.445-3.437-9.101-6.566-13.971-9.375c-5.852-3.373-11.92-6.254-18.401-8.212c-4.756-1.436-9.571-2.71-14.265-4.33
		c-8.311-2.866-15.991-6.911-22.603-12.812c-2.681-2.391-5.098-4.992-6.88-8.137c-5.268-9.291-7.25-19.267-6.003-29.854
		c0.952-8.099,4.094-15.307,9.37-21.535c3.579-4.227,7.777-7.767,12.488-10.675C37.243,7.74,45.947,5.354,55.389,6.38
		C67.81,7.728,77.83,13.363,85.154,23.595c3.391,4.736,6.026,9.877,8.248,15.243c2.359,5.692,4.178,11.571,6.067,17.426
		c0.943,2.921,1.97,5.803,3.445,8.512c4.274,7.851,9.367,15.171,14.512,22.458c0.428,0.606,0.869,1.202,1.302,1.803l3.136-2.919
		C117.644,80.232,113.536,74.27,109.721,68.109z"/>
	<path display="inline" fill="#EF4023" stroke="#EF4023" stroke-width="3.5829" stroke-linejoin="round" stroke-miterlimit="10" d="
		M123.432,90.83c-0.631,0.499-1.732,0.157-2.458-0.763l-2.406-3.048c-0.726-0.92-0.803-2.069-0.171-2.568l0,0
		c0.631-0.499,1.731-0.157,2.457,0.763l2.407,3.047C123.986,89.183,124.063,90.332,123.432,90.83L123.432,90.83z"/>
</g>
<g id="Diversification" display="none">
	
		<circle display="inline" fill="none" stroke="#EF4023" stroke-width="6" stroke-miterlimit="10" cx="74.641" cy="15.171" r="11.171"/>
	<path display="inline" fill="#EF4023" stroke="#EF4023" stroke-width="0.9387" stroke-miterlimit="10" d="M86.478,134.76
		c0,6.538-5.299,11.835-11.839,11.835c-6.535,0-11.835-5.298-11.835-11.835s5.301-11.836,11.835-11.836
		C81.179,122.924,86.478,128.223,86.478,134.76z"/>
	
		<path display="inline" fill-rule="evenodd" clip-rule="evenodd" fill="#EF4023" stroke="#EF4023" stroke-width="3" stroke-miterlimit="10" d="
		M123.546,96.354c3.258,12.191,6.483,24.27,9.767,36.567c-12.261-3.283-24.341-6.518-36.535-9.784
		C105.718,114.193,114.571,105.336,123.546,96.354z M104.208,121.065c7.937,2.116,15.571,4.153,23.521,6.275
		c-2.108-7.94-4.141-15.597-6.253-23.553C115.641,109.627,110.037,115.232,104.208,121.065z"/>
	
		<path display="inline" fill-rule="evenodd" clip-rule="evenodd" fill="#EF4023" stroke="#EF4023" stroke-width="0.8064" stroke-miterlimit="10" d="
		M25.493,48.239c-2.14-9.273-4.258-18.458-6.417-27.812c9.156,2.792,18.177,5.541,27.281,8.316
		C39.39,35.254,32.489,41.7,25.493,48.239z M40.706,30.114c-5.927-1.801-11.628-3.533-17.564-5.337
		c1.384,6.04,2.717,11.86,4.104,17.912C31.794,38.439,36.161,34.359,40.706,30.114z"/>
	
		<path display="inline" fill-rule="evenodd" clip-rule="evenodd" fill="#EF4023" stroke="#EF4023" stroke-width="8.5569" stroke-miterlimit="10" d="
		M27.938,37.899c-0.685-2.967-1.362-5.906-2.053-8.899c2.929,0.893,5.816,1.772,8.73,2.66
		C32.385,33.745,30.177,35.806,27.938,37.899z M32.806,32.1c-1.897-0.577-3.722-1.13-5.621-1.708
		c0.443,1.932,0.87,3.796,1.313,5.732C29.954,34.764,31.352,33.458,32.806,32.1z"/>
	
		<circle display="inline" fill="none" stroke="#EF4023" stroke-width="5" stroke-miterlimit="10" cx="119.034" cy="34.894" r="10.067"/>
	
		<circle display="inline" fill="none" stroke="#EF4023" stroke-width="5.8764" stroke-miterlimit="10" cx="31.666" cy="113.654" r="10.067"/>
	
		<rect x="124.088" y="58.996" display="inline" fill="none" stroke="#EF4023" stroke-width="5" stroke-miterlimit="10" width="29.13" height="28.873"/>
	
		<rect x="4" y="62.204" display="inline" fill="none" stroke="#EF4023" stroke-width="6" stroke-miterlimit="10" width="22.376" height="22.456"/>
	
		<line display="inline" fill="#EF4023" stroke="#EF4023" stroke-width="4" stroke-miterlimit="10" x1="74.641" y1="26.342" x2="74.641" y2="132.056"/>
	
		<line display="inline" fill="none" stroke="#EF4023" stroke-width="4" stroke-miterlimit="10" x1="110.754" y1="42.559" x2="38.615" y2="106.382"/>
	
		<line display="inline" fill="none" stroke="#EF4023" stroke-width="4" stroke-miterlimit="10" x1="122.67" y1="73.432" x2="26.376" y2="73.432"/>
	
		<line display="inline" fill="none" stroke="#EF4023" stroke-width="4" stroke-miterlimit="10" x1="32.416" y1="35.333" x2="109.733" y2="109.204"/>
	
		<circle display="inline" fill="none" stroke="#EF4023" stroke-width="5.8764" stroke-miterlimit="10" cx="74.641" cy="74.274" r="22.079"/>
	<g display="inline">
		<path fill="#EF4023" d="M74.639,90.859c-9.145,0-16.584-7.44-16.584-16.585c0-9.145,7.44-16.585,16.584-16.585
			c9.146,0,16.588,7.44,16.588,16.585C91.227,83.419,83.786,90.859,74.639,90.859z"/>
		<path fill="#FFFFFF" d="M74.639,60.897c7.391,0,13.38,5.989,13.38,13.377c0,7.39-5.989,13.377-13.38,13.377
			c-7.387,0-13.376-5.988-13.376-13.377C61.263,66.886,67.252,60.897,74.639,60.897 M74.639,54.481
			c-10.914,0-19.792,8.879-19.792,19.793s8.879,19.793,19.792,19.793c10.916,0,19.796-8.879,19.796-19.793
			S85.555,54.481,74.639,54.481L74.639,54.481z"/>
	</g>
</g>
<g id="Growth" display="none">
	
		<rect x="1.833" y="127.37" display="inline" fill-rule="evenodd" clip-rule="evenodd" fill="#EF4023" width="140.87" height="4.696"/>
	
		<rect x="1.833" y="17.248" display="inline" fill-rule="evenodd" clip-rule="evenodd" fill="#EF4023" width="4.581" height="111.297"/>
	<path display="inline" fill-rule="evenodd" clip-rule="evenodd" fill="#EF4023" d="M15.491,105.276
		c0.304-0.277,0.622-0.541,0.912-0.831C32.419,88.347,48.436,72.246,64.444,56.14c0.32-0.321,0.566-0.716,0.837-1.066
		c4.958,4.961,9.737,9.743,14.531,14.54c12.016-12.234,23.979-24.416,36.075-36.731c-4.941-4.945-10.146-10.152-15.545-15.556
		c0.581-0.041,0.852-0.076,1.123-0.076c13.582-0.002,27.163-0.002,40.744,0c0.165,0,0.33,0.023,0.495,0.036
		c0,14.205,0,28.41,0,42.615c-3.792-3.787-7.586-7.572-11.375-11.364c-1.404-1.405-2.795-2.825-4.395-4.443
		c-15.656,15.953-31.23,31.822-46.739,47.625c-5.037-5.023-9.824-9.796-14.778-14.74c-12.98,13.246-25.865,26.392-38.83,39.622
		c-2.231-2.259-4.169-4.242-6.132-6.202c-1.64-1.639-3.308-3.25-4.964-4.873C15.491,105.444,15.491,105.358,15.491,105.276z"/>
</g>
<g id="Flexibility" display="none">
	
		<circle display="inline" fill="none" stroke="#EF4023" stroke-width="6" stroke-miterlimit="10" cx="113.266" cy="111.581" r="19.166"/>
	
		<circle display="inline" fill="none" stroke="#EF4023" stroke-width="5" stroke-miterlimit="10" cx="23.537" cy="38.666" r="16.137"/>
	
		<circle display="inline" fill="none" stroke="#EF4023" stroke-width="6" stroke-miterlimit="10" cx="21.801" cy="89.509" r="17.874"/>
	
		<circle display="inline" fill="none" stroke="#EF4023" stroke-width="5" stroke-miterlimit="10" cx="59.852" cy="122.207" r="14.823"/>
	
		<circle display="inline" fill="none" stroke="#EF4023" stroke-width="5" stroke-miterlimit="10" cx="128.513" cy="57.876" r="15.247"/>
	
		<circle display="inline" fill="none" stroke="#EF4023" stroke-width="6" stroke-miterlimit="10" cx="80.145" cy="24.63" r="21.51"/>
	
		<line display="inline" fill="none" stroke="#EF4023" stroke-width="4" stroke-miterlimit="10" x1="35.689" y1="49.278" x2="98.468" y2="99.401"/>
	
		<line display="inline" fill="none" stroke="#EF4023" stroke-width="4" stroke-miterlimit="10" x1="114.149" y1="62.995" x2="40.096" y2="84.065"/>
	
		<line display="inline" fill="none" stroke="#EF4023" stroke-width="4" stroke-miterlimit="10" x1="21.8" y1="54.803" x2="21.8" y2="71.636"/>
	
		<line display="inline" fill="none" stroke="#EF4023" stroke-width="4" stroke-miterlimit="10" x1="33.173" y1="104.05" x2="47.019" y2="114.791"/>
	
		<line display="inline" fill="none" stroke="#EF4023" stroke-width="4" stroke-miterlimit="10" x1="74.675" y1="119.937" x2="94.1" y2="117.333"/>
	
		<line display="inline" fill="none" stroke="#EF4023" stroke-width="4" stroke-miterlimit="10" x1="118.98" y1="94.293" x2="124.11" y2="73.837"/>
	
		<line display="inline" fill="none" stroke="#EF4023" stroke-width="4" stroke-miterlimit="10" x1="117.331" y1="47.741" x2="100.89" y2="35.518"/>
	
		<line display="inline" fill="none" stroke="#EF4023" stroke-width="4" stroke-miterlimit="10" x1="58.634" y1="29.04" x2="40.096" y2="34.348"/>
	
		<line display="inline" fill="none" stroke="#EF4023" stroke-width="4" stroke-miterlimit="10" x1="86.306" y1="42.63" x2="103.81" y2="92.416"/>
	<circle display="inline" fill="#EF4023" cx="113.266" cy="111.582" r="9.457"/>
	<circle display="inline" fill="#EF4023" cx="80.145" cy="24.631" r="10.759"/>
	<circle display="inline" fill="#EF4023" cx="21.801" cy="89.51" r="7.877"/>
</g>
<g id="Flexibilty" display="none">
	<g display="inline">
		<circle fill="none" stroke="#EF4023" stroke-width="4.7119" stroke-miterlimit="10" cx="83.501" cy="69.261" r="20.647"/>
		<circle fill="none" stroke="#EF4023" stroke-width="4.7119" stroke-miterlimit="10" cx="17.24" cy="41.076" r="13.24"/>
		<circle fill="#EF4023" stroke="#EF4023" stroke-width="0.7559" stroke-miterlimit="10" cx="71.695" cy="12.334" r="10.335"/>
		<circle fill="none" stroke="#EF4023" stroke-width="4.7119" stroke-miterlimit="10" cx="82.016" cy="125.633" r="10.532"/>
		<circle fill="none" stroke="#EF4023" stroke-width="4.7119" stroke-miterlimit="10" cx="149.762" cy="19.814" r="14.229"/>
		<circle fill="#EF4023" stroke="#EF4023" stroke-width="0.7559" stroke-miterlimit="10" cx="32.569" cy="106.842" r="9.533"/>
		<circle fill="#EF4023" stroke="#EF4023" stroke-width="1.0135" stroke-miterlimit="10" cx="83.501" cy="69.261" r="12.51"/>
		
			<line fill="#050E2F" stroke="#EF4023" stroke-width="6.47" stroke-miterlimit="10" x1="100.436" y1="55.06" x2="138.011" y2="27.836"/>
		
			<line fill="#050E2F" stroke="#EF4023" stroke-width="4.5877" stroke-miterlimit="10" x1="134.039" y1="109.947" x2="100.436" y2="84.233"/>
		
			<line fill="#050E2F" stroke="#EF4023" stroke-width="2.9418" stroke-miterlimit="10" x1="65.317" y1="59.479" x2="29.052" y2="43.932"/>
		
			<line fill="#050E2F" stroke="#EF4023" stroke-width="2.9418" stroke-miterlimit="10" x1="69.271" y1="86.358" x2="38.884" y2="103.023"/>
		
			<line fill="#050E2F" stroke="#EF4023" stroke-width="2.9033" stroke-miterlimit="10" x1="83.5" y1="89.909" x2="82.018" y2="116.374"/>
		
			<line fill="#050E2F" stroke="#EF4023" stroke-width="3.1616" stroke-miterlimit="10" x1="73.61" y1="19.702" x2="82.018" y2="48.615"/>
		<circle fill="#EF4023" stroke="#EF4023" stroke-width="1.0135" stroke-miterlimit="10" cx="141.849" cy="116.237" r="12.51"/>
	</g>
</g>
<g id="Store_of_value" display="none">
	<path display="inline" fill="none" stroke="#EF4023" stroke-width="6" stroke-miterlimit="10" d="M3.774,4v126.406h123.632V4H3.774
		z"/>
	
		<line display="inline" fill="none" stroke="#EF4023" stroke-width="5" stroke-miterlimit="10" x1="3.774" y1="36.097" x2="127.803" y2="36.097"/>
	<g display="inline">
		<polyline fill="none" stroke="#EF4023" stroke-width="5" stroke-linecap="round" stroke-miterlimit="10" points="100.59,92.175 
			91.671,110.341 109.837,101.421 		"/>
		
			<rect x="100.007" y="71.978" transform="matrix(0.7071 -0.7071 0.7071 0.7071 -20.1145 110.0579)" fill="#EF4023" stroke="#EF4023" stroke-width="4" stroke-miterlimit="10" width="45.57" height="14.662"/>
		
			<polyline fill="none" stroke="#EF4023" stroke-width="4" stroke-linecap="round" stroke-linejoin="round" stroke-miterlimit="10" points="
			150.25,44.845 143.806,38.4 129.796,52.41 		"/>
		<path fill="#EF4023" d="M146.692,41.679l-23.144,23.144c-2.74,2.739-2.98,6.938-0.243,9.676l4.296,4.297
			c2.738,2.738,7.218,2.776,9.957,0.038l23.144-23.145c2.739-2.739,2.701-7.218-0.037-9.957l-4.297-4.296
			C153.63,38.697,149.431,38.939,146.692,41.679z M156.416,57.173l-1.681,1.681l-10.928-10.928l1.681-1.681L156.416,57.173z"/>
	</g>
	<g display="inline">
		<path fill="#EF4023" d="M51.882,109.102v8.119h-5.463v-7.896c-5.064-0.023-9.777-1.172-14.142-3.441V95.521
			c1.446,1.173,3.604,2.257,6.471,3.255c2.87,0.998,5.426,1.57,7.67,1.722V86.878c-5.836-2.168-9.821-4.52-11.953-7.052
			c-2.133-2.532-3.199-5.619-3.199-9.26c0-3.915,1.383-7.251,4.153-10.008c2.768-2.755,6.434-4.358,10.999-4.808v-6.959h5.463v6.811
			c5.262,0.25,9.19,1.097,11.786,2.543v10.102c-3.493-2.119-7.42-3.417-11.786-3.891v14.18c5.462,1.969,9.378,4.222,11.747,6.754
			c2.371,2.531,3.555,5.592,3.555,9.184c0,4.14-1.322,7.477-3.965,10.007C60.575,107.013,56.795,108.553,51.882,109.102z
			 M46.419,76.365V64.506c-3.466,0.623-5.199,2.431-5.199,5.424C41.22,72.499,42.953,74.645,46.419,76.365z M51.882,89.011v11.335
			c3.567-0.546,5.35-2.33,5.35-5.349C57.232,92.552,55.449,90.557,51.882,89.011z"/>
	</g>
</g>
<g id="Value" display="none">
	<path display="inline" fill-rule="evenodd" clip-rule="evenodd" fill="#EF4023" stroke="#FFFFFF" stroke-miterlimit="10" d="
		M73.919,144.405C50.373,112.018,26.964,79.819,3.473,47.507C14.111,32.5,24.713,17.546,35.357,2.531c25.571,0,51.133,0,76.857,0
		c10.654,14.895,21.36,29.863,32.162,44.965C120.94,79.731,97.503,111.967,73.919,144.405z M51.407,49.743
		c7.521,27.644,14.978,55.048,22.434,82.451c0.103-0.008,0.205-0.016,0.308-0.024c7.919-27.429,15.838-54.858,23.796-82.427
		C82.297,49.743,66.964,49.743,51.407,49.743z M10.439,49.742c19.379,26.655,38.55,53.023,57.72,79.391
		c0.107-0.057,0.214-0.113,0.321-0.169c-7.184-26.401-14.367-52.801-21.557-79.222C34.784,49.742,22.82,49.742,10.439,49.742z
		 M102.433,49.784c-7.587,26.273-15.171,52.538-22.755,78.803c0.101,0.045,0.201,0.092,0.301,0.138
		c19.077-26.24,38.154-52.481,57.392-78.941C125.606,49.784,114.15,49.784,102.433,49.784z M52.47,45.227
		c14.938,0,29.563,0,44.466,0C89.479,33.005,82.154,20.999,74.7,8.782C67.232,21.026,59.918,33.018,52.47,45.227z M35.664,9.573
		c-8.569,12.088-16.871,23.8-25.293,35.683c11.978,0,23.563,0,35.308,0C42.365,33.45,39.088,21.777,35.664,9.573z M112.062,9.744
		c-2.891,12.146-5.661,23.787-8.443,35.479c11.362,0,22.442,0,33.816,0C128.963,33.376,120.652,21.756,112.062,9.744z M39.392,6.865
		c3.298,11.745,6.538,23.28,9.9,35.256c7.287-11.94,14.334-23.49,21.515-35.256C60.226,6.865,49.969,6.865,39.392,6.865z
		 M99.963,41.887c2.865-12.032,5.593-23.487,8.33-34.98c-10.016,0-19.714,0-29.671,0C85.729,18.554,92.702,29.984,99.963,41.887z"/>
	
		<rect x="7.167" y="44.394" display="inline" fill-rule="evenodd" clip-rule="evenodd" fill="#EF4023" width="132.833" height="6.356"/>
	
		<rect x="36.5" y="3.125" display="inline" fill-rule="evenodd" clip-rule="evenodd" fill="#EF4023" width="74.125" height="5.763"/>
</g>
<g id="Ownership_1_" display="none">
	<path display="inline" fill="none" stroke="#EF4023" stroke-width="6.1285" stroke-miterlimit="10" d="M82.72,31.124
		c-11.48-9.254-28.357-7.502-37.613,3.98c-7.929,9.835-7.919,23.431-0.314,33.123l-9.886,12.266L5.171,117.379
		c-1.793,2.223-0.878,5.931,1.93,8.193c2.807,2.263,6.624,2.369,8.415,0.147l4.474-5.55l2.283,1.841l7.729,6.229l5.38-6.674
		l-7.675-6.188l5.918-7.343l7.676,6.188l5.112-6.342l-7.729-6.229l-2.283-1.84l18.857-23.395c11.258,5.16,23.772,1.901,31.526-7.717
		c9.081-11.265,7.553-27.619-3.349-36.971C83.227,31.548,82.937,31.297,82.72,31.124z"/>
	<path display="inline" fill="none" stroke="#EF4023" stroke-width="6.1285" stroke-miterlimit="10" d="M80.917,25.631
		C66.171,25.572,54.084,37.48,54.024,52.227c-0.05,12.634,8.448,23.247,20.439,26.068L74.4,94.049l-0.19,47.379
		c-0.012,2.856,3.019,5.18,6.624,5.194c3.607,0.015,6.654-2.286,6.666-5.141l0.028-7.129l2.933,0.012l9.928,0.04l0.034-8.573
		l-9.859-0.04l0.037-9.431l9.859,0.04l0.032-8.146l-9.927-0.039l-2.932-0.012l0.12-30.048c12.015-3,19.754-13.36,19.804-25.715
		c0.058-14.469-11.348-26.288-25.703-26.785C81.578,25.646,81.195,25.632,80.917,25.631z"/>
	<circle display="inline" fill="#FCFCFC" cx="80.313" cy="52.597" r="24.049"/>
	
		<circle display="inline" fill="#FFFFFF" stroke="#EF4023" stroke-width="5" stroke-miterlimit="10" cx="80.71" cy="42.976" r="9.32"/>
	<g display="inline">
		<path fill="#EF4023" d="M72.137,1.037c-12.754,0-23.131,10.377-23.131,23.131c0,2.734,0.48,5.358,1.355,7.795
			c1.222-1.014,2.706-1.766,4.043-2.539c0.148-0.086,0.296-0.153,0.442-0.206c-0.469-1.604-0.733-3.296-0.733-5.051
			c0-9.938,8.085-18.024,18.024-18.024s18.023,8.085,18.023,18.024s-8.085,18.023-18.023,18.023c-0.105,0-0.208-0.012-0.313-0.014
			c0.378,1.435,0.526,3.047,0.92,4.408c0.07,0.241,0.093,0.471,0.093,0.696c12.431-0.373,22.431-10.594,22.431-23.113
			C95.268,11.414,84.892,1.037,72.137,1.037z"/>
	</g>
</g>
<g id="Ownership_2_" display="none">
	<g display="inline">
		
			<path fill-rule="evenodd" clip-rule="evenodd" fill="none" stroke="#EF4023" stroke-width="5.439" stroke-linecap="round" stroke-miterlimit="10" d="
			M4.788,111.259c0.317-0.234,0.67-0.432,0.946-0.706c15.54-15.453,31.069-30.916,46.621-46.356
			c0.603-0.598,0.756-1.149,0.603-1.949C49.582,44.606,61.709,27.671,79.5,25.162c17.459-2.462,33.535,9.637,35.872,26.999
			c2.392,17.782-10.441,33.882-28.442,35.473c-2.994,0.265-6.062-0.198-9.087-0.424c-0.727-0.053-1.219,0.012-1.742,0.544
			c-2.362,2.404-4.785,4.751-7.142,7.161c-0.592,0.606-1.185,0.864-2.042,0.857c-4.82-0.04-9.639-0.019-14.596-0.019
			c0,2.602,0,5.16,0,7.853c-2.702,0-5.273,0-7.932,0c0,2.662,0,5.189,0,7.853c-2.658,0-5.229,0-7.949,0
			c0,2.374,0.053,4.616-0.035,6.854c-0.023,0.614-0.319,1.351-0.742,1.794c-2.072,2.169-4.201,4.287-6.379,6.351
			c-0.447,0.424-1.184,0.756-1.792,0.765c-4.615,0.063-9.231,0.057-13.846,0.005c-0.54-0.006-1.201-0.283-1.592-0.657
			c-2.142-2.042-4.213-4.16-6.32-6.237c-0.278-0.274-0.628-0.474-0.945-0.707C4.788,116.838,4.788,114.048,4.788,111.259z"/>
		<g>
			<path fill-rule="evenodd" clip-rule="evenodd" fill="#EF4023" d="M13.204,117.463c-0.003-1.934-0.005-3.776,0.022-5.618
				c0.003-0.049,0.087-0.228,0.323-0.462C26.28,98.695,39.02,86.018,51.762,73.34l0.001,0.739c0.002,1.921,0.005,3.752-0.023,5.583
				c-0.003,0.05-0.087,0.229-0.323,0.463c-12.732,12.687-25.472,25.365-38.213,38.043L13.204,117.463z"/>
			<path fill="#FFFFFF" d="M51.263,74.542c0.002,1.725,0.002,3.37-0.022,5.018c-0.028,0.043-0.084,0.119-0.178,0.212
				c-12.45,12.406-24.908,24.804-37.361,37.195c-0.002-1.725-0.002-3.371,0.022-5.019c0.028-0.043,0.084-0.119,0.178-0.211
				C26.352,99.33,38.811,86.932,51.263,74.542 M52.261,72.27c-0.3,0.224-0.431,0.298-0.534,0.4
				c-12.848,12.783-25.694,25.566-38.531,38.358c-0.218,0.217-0.466,0.534-0.47,0.81c-0.036,2.399-0.021,4.799-0.021,7.4
				c0.3-0.223,0.431-0.297,0.534-0.399c12.847-12.783,25.693-25.567,38.53-38.358c0.217-0.216,0.466-0.535,0.47-0.81
				C52.277,77.271,52.261,74.871,52.261,72.27L52.261,72.27z"/>
		</g>
	</g>
	<g display="inline">
		
			<path fill-rule="evenodd" clip-rule="evenodd" fill="#FFFFFF" stroke="#EF4023" stroke-width="6.3572" stroke-linecap="round" stroke-miterlimit="10" d="
			M61.494,144.569c0.183-0.349,0.414-0.682,0.54-1.049c7.197-20.7,14.378-41.404,21.591-62.099c0.279-0.802,0.176-1.364-0.313-2.016
			c-10.766-14.379-7.288-34.915,7.603-44.968c14.615-9.865,34.367-6.035,44.076,8.547c9.943,14.934,5.464,35.031-10.018,44.349
			c-2.576,1.551-5.536,2.479-8.355,3.603c-0.677,0.27-1.09,0.544-1.326,1.252c-1.07,3.197-2.22,6.368-3.283,9.567
			c-0.265,0.804-0.686,1.295-1.458,1.665c-4.35,2.077-8.673,4.208-13.127,6.379c1.14,2.339,2.261,4.639,3.441,7.059
			c-2.429,1.185-4.74,2.312-7.131,3.478c1.167,2.392,2.274,4.664,3.441,7.058c-2.389,1.166-4.699,2.291-7.144,3.483
			c1.04,2.133,2.071,4.125,2.973,6.176c0.247,0.561,0.305,1.354,0.119,1.937c-0.912,2.858-1.898,5.695-2.951,8.505
			c-0.216,0.577-0.732,1.199-1.274,1.472c-4.121,2.079-8.273,4.097-12.444,6.073c-0.488,0.232-1.202,0.271-1.718,0.107
			c-2.821-0.897-5.61-1.893-8.416-2.837c-0.369-0.125-0.771-0.149-1.158-0.22C63.938,149.583,62.717,147.077,61.494,144.569z"/>
		<g>
			<path fill-rule="evenodd" clip-rule="evenodd" fill="#EF4023" d="M71.784,146.472c-0.853-1.742-1.665-3.402-2.449-5.074
				c-0.018-0.044-0.022-0.243,0.087-0.558c5.884-16.984,11.778-33.962,17.676-50.941l0.275,0.562
				c0.863,1.762,1.684,3.439,2.476,5.13c0.019,0.047,0.021,0.244-0.087,0.557c-5.883,16.984-11.779,33.964-17.676,50.942
				L71.784,146.472z"/>
			<path fill="#FFFFFF" d="M87.176,91.197c0.757,1.548,1.479,3.028,2.18,4.521c-0.006,0.051-0.024,0.143-0.067,0.268
				c-5.753,16.607-11.519,33.212-17.281,49.807c-0.758-1.55-1.48-3.03-2.18-4.52c0.006-0.051,0.023-0.144,0.066-0.269
				C75.649,124.396,81.412,107.792,87.176,91.197 M87.077,88.718c-0.172,0.332-0.256,0.456-0.304,0.593
				c-5.947,17.121-11.89,34.24-17.823,51.366c-0.1,0.289-0.184,0.684-0.067,0.934c1.018,2.172,2.084,4.322,3.224,6.66
				c0.171-0.331,0.257-0.456,0.305-0.593c5.945-17.119,11.89-34.24,17.822-51.364c0.101-0.289,0.185-0.685,0.068-0.933
				C89.284,93.207,88.218,91.056,87.077,88.718L87.077,88.718z"/>
		</g>
		
			<circle fill-rule="evenodd" clip-rule="evenodd" fill="none" stroke="#EF4023" stroke-width="4" stroke-linecap="round" stroke-miterlimit="10" cx="111.897" cy="52.546" r="11.01"/>
	</g>
	<g display="inline">
		<path fill="#EF4023" stroke="#FFFFFF" stroke-width="2" stroke-miterlimit="10" d="M114.521,1.792
			c-14.005-3.536-28.387,5.086-32.733,19.342c1.975-0.119,4.039,0.097,5.712,0.116c0.201,0.002,0.39,0.024,0.565,0.062
			c3.932-10.142,14.555-16.099,24.932-13.48c11.264,2.844,18.015,14.718,15.048,26.472c-2.206,8.738-9.169,14.981-17.226,16.444
			c0.643,1.656,1.095,3.378,1.839,4.99c0.135,0.293,0.204,0.588,0.243,0.88c9.835-2.25,18.209-10.069,20.932-20.854
			C137.641,20.681,128.978,5.44,114.521,1.792z"/>
	</g>
</g>
<g id="Ownership" display="none">
	<g display="inline">
		<path fill="#EF4023" stroke="#F2F2F2" stroke-width="0.4788" stroke-miterlimit="10" d="M115.915,70.406"/>
		<path fill="#EF4023" d="M54.192,81.16c-15.573,0-28.198,12.884-28.198,28.456c0,0.294,0.014,0.528,0.022,0.82H2
			c0.114-28.064,21.752-55.684,48.435-55.684c24.157,0,44.18,22.639,47.834,47.988H81.632C78.704,90.066,67.534,81.16,54.192,81.16z
			"/>
		<path fill="none" stroke="#EF4023" stroke-width="5.0332" stroke-miterlimit="10" d="M26.016,110.549
			c0.464,15.16,12.896,27.254,28.176,27.254c13.047,0,24.019-8.128,27.238-20.803h31.73v3.097v10.483h8.601v-10.411h9.959v10.411
			h9.053v-10.483V117h7.528c3.015,0,5.457-3.208,5.457-7.017c0-3.807-2.442-7.016-5.457-7.016H98.269H81.632
			c-2.929-12.674-14.099-21.693-27.44-21.693c-15.573,0-28.198,12.714-28.198,28.286C25.994,109.853,26.007,110.257,26.016,110.549z
			"/>
		<g>
			<path fill="#EF4023" d="M51.936,59.247c-17.022,0-30.871-13.851-30.871-30.876c0-17.022,13.849-30.871,30.871-30.871
				c17.024,0,30.875,13.849,30.875,30.871C82.811,45.396,68.96,59.247,51.936,59.247z"/>
			<path fill="#FFFFFF" d="M51.936,0.999c15.119,0,27.375,12.256,27.375,27.371c0,15.119-12.256,27.376-27.375,27.376
				c-15.118,0-27.371-12.258-27.371-27.376C24.565,13.255,36.818,0.999,51.936,0.999 M51.936-6.001
				c-18.952,0-34.371,15.419-34.371,34.371c0,18.955,15.419,34.376,34.371,34.376c18.955,0,34.375-15.421,34.375-34.376
				C86.311,9.418,70.891-6.001,51.936-6.001L51.936-6.001z"/>
		</g>
	</g>
	
		<circle display="inline" fill="#FFFFFF" stroke="#EF4023" stroke-width="4.3026" stroke-miterlimit="10" cx="45.669" cy="115.47" r="10.052"/>
</g>
<g id="Transparancy">
	<circle fill="none" stroke="#EF4023" stroke-width="7" stroke-miterlimit="10" cx="55.104" cy="54.679" r="49.834"/>
	<circle fill="none" cx="55.105" cy="53.679" r="38.839"/>
	
		<rect x="94.172" y="87.483" transform="matrix(0.7071 -0.7071 0.7071 0.7071 -40.0066 100.1903)" fill="#EF4023" stroke="#EF4023" stroke-width="3.2739" stroke-miterlimit="10" width="13.538" height="21.812"/>
	<path fill="none" d="M83.806,143.987c2.505,2.505,2.776,6.534,0.458,8.852l-6.145,6.145c-2.317,2.318-6.346,2.047-8.851-0.459
		L46.904,136.16c-2.506-2.505-2.659-6.416-0.342-8.732l6.146-6.146c2.316-2.318,6.227-2.166,8.731,0.341L83.806,143.987z"/>
	<path fill="#EF4023" stroke="#FFFFFF" stroke-width="4" stroke-miterlimit="10" d="M50.207,77.827
		c-1.153,0-2.253-0.658-3.023-1.523L32.336,59.576c-1.487-1.667-1.342-4.272,0.327-5.76c1.67-1.488,4.229-1.36,5.718,0.306
		l11.625,13.023l24.157-30.836c1.379-1.763,3.924-2.075,5.685-0.695c1.76,1.382,2.069,3.925,0.69,5.685L53.393,76.107
		c-0.739,0.946-1.86,1.72-3.058,1.72C50.292,77.827,50.248,77.827,50.207,77.827z"/>
	
		<rect x="114.716" y="100.56" transform="matrix(0.7071 -0.7071 0.7071 0.7071 -49.2825 122.546)" fill="none" stroke="#EF4023" stroke-width="7" stroke-miterlimit="10" width="17.138" height="40.405"/>
</g>
<g id="Spread" display="none">
	
		<circle display="inline" fill="none" stroke="#EF4023" stroke-width="7" stroke-miterlimit="10" cx="78.646" cy="24.727" r="19.728"/>
	<circle display="inline" fill="#EF4023" cx="78.646" cy="24.726" r="10.095"/>
	
		<circle display="inline" fill="none" stroke="#EF4023" stroke-width="7" stroke-miterlimit="10" cx="22.098" cy="113.367" r="17.098"/>
	
		<circle display="inline" fill="none" stroke="#EF4023" stroke-width="7" stroke-miterlimit="10" cx="79.522" cy="113.367" r="17.098"/>
	
		<circle display="inline" fill="none" stroke="#EF4023" stroke-width="7" stroke-miterlimit="10" cx="138.701" cy="113.367" r="17.098"/>
	
		<line display="inline" fill="none" stroke="#EF4023" stroke-width="4" stroke-miterlimit="10" x1="138.701" y1="96.269" x2="78.647" y2="44.546"/>
	
		<line display="inline" fill="none" stroke="#EF4023" stroke-width="4" stroke-miterlimit="10" x1="79.232" y1="96.269" x2="78.209" y2="44.228"/>
	
		<line display="inline" fill="none" stroke="#EF4023" stroke-width="4" stroke-miterlimit="10" x1="22.098" y1="96.269" x2="78.209" y2="44.228"/>
</g>
<g id="Security" display="none">
	<path display="inline" fill="#EF4023" stroke="#FFFFFF" stroke-width="6" stroke-miterlimit="10" d="M26.887,35.693
		c0-14.724,12.074-26.726,26.886-26.726c14.812,0,26.886,12.002,26.886,26.726v16.035h10.755V35.693
		c0-20.555-16.963-37.416-37.641-37.416c-20.679,0-37.642,16.861-37.642,37.416v16.035h10.755V35.693z"/>
	<path display="inline" fill-rule="evenodd" clip-rule="evenodd" fill="#EF4023" d="M58.593,117.127c-3.346,0-6.306,0-9.605,0
		c0-2.48-0.103-4.854,0.031-7.216c0.113-2.008-0.417-3.109-2.463-4.044c-7.779-3.555-11.404-12.372-8.692-20.379
		c2.64-7.795,10.807-12.73,18.644-11.269c8.611,1.605,14.596,8.942,14.032,17.53c-0.436,6.631-3.775,11.519-9.833,14.296
		c-1.635,0.75-2.253,1.568-2.151,3.326C58.7,111.853,58.593,114.348,58.593,117.127z M53.803,98.021
		c3.94-0.006,7.225-3.34,7.177-7.283c-0.046-3.948-3.392-7.178-7.354-7.103c-3.813,0.072-6.995,3.3-7.026,7.13
		C46.567,94.714,49.858,98.028,53.803,98.021z"/>
	<rect x="12.191" y="62.418" display="inline" fill="none" width="86.037" height="64.142"/>
	<path display="inline" fill="none" d="M55.209,8.967c-14.812,0-26.886,12.002-26.886,26.726v16.035h0.884h52.888V35.693
		C82.095,20.969,70.021,8.967,55.209,8.967z"/>
	<path display="inline" fill="#EF4023" stroke="#FFFFFF" stroke-width="3.8944" stroke-miterlimit="10" d="M102.168,51.728H91.414
		H80.659H27.771h-0.884H16.132H5.377H0v5.345v74.832v5.345h5.377h96.791h5.378v-5.345V57.073v-5.345H102.168z M96.792,126.56H10.755
		V62.418h86.037V126.56z"/>
</g>
<g id="Guides">
</g>
</svg>
